<svg xmlns="http://www.w3.org/2000/svg" viewBox="0 0 513.54 252.03"><defs><style>.cls-1{fill:#f93;}.cls-2{fill:#fff;}</style></defs><title>dewoid websites</title><g id="Слой_2" data-name="Слой 2"><g id="Слой_1-2" data-name="Слой 1"><g id="Vortex"><path class="cls-1" d="M302.27,76.83c-2.2,15.94-9.6,33-22,48.38-28,34.49-70.84,47-95.72,28-10.65-8.16-16.27-20.78-17-35.24-2.75,19.9,2.61,38,16.42,48.56,24.89,19.05,67.74,6.54,95.73-27.94C295.63,118.81,303.29,96.17,302.27,76.83Z"/><path class="cls-1" d="M248.78,138.24c-15.12,2.15-29.24-1.16-39.49-10.59-23-21.22-17.79-65.33,11.72-98.53C233.65,14.91,248.68,5,263.54,0c-18.87,2.68-39.29,13.86-55.68,32.29-29.52,33.2-34.77,77.31-11.72,98.53C209.32,143,228.91,145,248.78,138.24Z"/><path class="cls-1" d="M211.18,100c3-16.08,11.22-33,24.25-47.89,29.31-33.39,72-43.51,95.28-22.6,10,8.94,14.78,22.13,14.73,36.9C349.23,46.31,345,27.57,332,16c-23.32-20.91-66-10.79-95.28,22.61C220,57.67,211.25,80.24,211.18,100Z"/><path class="cls-1" d="M263.27,41.94c15.14-2.24,29.31,1,39.63,10.33,23.2,21,18.18,65.1-11.21,98.41C279.11,164.94,264.1,174.9,249.23,180c18.9-2.79,39.3-14.07,55.62-32.56,29.39-33.32,34.41-77.37,11.2-98.41C302.78,37,283.15,35.12,263.27,41.94Z"/></g><g id="Text_transformed" data-name="Text transformed"><path class="cls-2" d="M27.85,218.27q8.65.06,10.95,4.2t2.3,12c0,.91,0,1.89-.05,2.95a25.84,25.84,0,0,1-.3,3.25,23.31,23.31,0,0,1-1,4.53,9.45,9.45,0,0,1-2.12,3.63,8,8,0,0,1-3.53,2.07,18.57,18.57,0,0,1-4.12.68c-.6,0-1.18,0-1.75,0H0V218.27Zm-1.3,30q7.65,0,9-3.68a30.38,30.38,0,0,0,1.35-10.07,24.67,24.67,0,0,0-1.45-9.48Q34,221.68,27,221.67H4.05v26.61Z"/><path class="cls-2" d="M51.55,240.47a17.36,17.36,0,0,0,.87,5.13q.78,2.18,4.08,2.87a15.52,15.52,0,0,0,1.87.31c.65.06,1.3.1,1.93.1s1,0,1.47,0H65.1a12.13,12.13,0,0,0,2.2,0,23.47,23.47,0,0,0,2.55-.22,8.49,8.49,0,0,0,2.15-.57,3.91,3.91,0,0,0,1.67-1.38,4.52,4.52,0,0,0,.63-2.08l3.7,0c0,2.79-1,4.66-3,5.6a17.83,17.83,0,0,1-6.47,1.65l-2,.07c-.65,0-1.29,0-1.92,0a40.45,40.45,0,0,1-12-1.47Q48.05,249,48.05,240q0-7.4,2.87-9.8t10-2.39h1.25a3.88,3.88,0,0,0,.57.05h.58a3.1,3.1,0,0,1,.42,0l.43,0a29.65,29.65,0,0,1,10.22,1.81q3.67,1.58,3.68,9.59v.6a1,1,0,0,0,0,.3v.29ZM74.37,237c0-.17,0-.36,0-.56a8.32,8.32,0,0,0-.35-2,3.75,3.75,0,0,0-1.15-1.75,5,5,0,0,0-2.28-1.22,15,15,0,0,0-2.92-.47c-.5,0-1-.06-1.48-.08l-1.42,0H62c-.5,0-1,.06-1.58.08l-1.67.07a17.07,17.07,0,0,0-3,.47,6,6,0,0,0-2.42,1.16,3.51,3.51,0,0,0-1.13,1.57,9.16,9.16,0,0,0-.42,1.92c0,.2-.06.42-.08.64s0,.45,0,.64H74.4A3.61,3.61,0,0,0,74.37,237Z"/><path class="cls-2" d="M124.7,228.13h4L118,251.63H112.7L105,230.78,97.2,251.63H92l-10.85-23.5H85.1L94.55,249l7.75-20.9h5.35L115.4,249Z"/><path class="cls-2" d="M131.7,240.1a20.12,20.12,0,0,1,1.4-8q1.4-3.24,6.85-3.93c.56-.07,1.14-.12,1.72-.16l1.78-.09c.56,0,1.14,0,1.72,0h1.73a34.06,34.06,0,0,1,11.35,1.55q4.29,1.55,4.3,10.07,0,8.91-3.68,10.72t-12,1.8c-4.74,0-8.44-.56-11.13-1.7s-4-4.51-4-10.12Zm3.75-.22q0,5.94,2.32,7.52t7.78,1.57h.32a1.33,1.33,0,0,0,.38-.05h.65c.36,0,.71,0,1,0s.68,0,1.05,0a23.28,23.28,0,0,0,7-1.18c1.88-.68,2.83-2.91,2.83-6.67v-1.2a18.06,18.06,0,0,0-.93-5.5c-.58-1.7-2.06-2.72-4.42-3.05a36.21,36.21,0,0,0-4-.28c-1.35,0-2.71,0-4.07,0-3.5,0-6,.46-7.6,1.38s-2.35,3.44-2.35,7.57Z"/><path class="cls-2" d="M173.4,218v4.41h-3.5V218Zm0,10.16v23.5h-3.5v-23.5Z"/><path class="cls-2" d="M211.15,218v33.66h-3.5V248a5.17,5.17,0,0,1-3,3.05,14.38,14.38,0,0,1-4.15.89,10,10,0,0,1-1.08.06H196.8a5.49,5.49,0,0,0-.8-.06h-.8q-7.2,0-10.83-1.72t-3.62-10q0-7.4,2.7-9.87t9.85-2.47l2.75,0c.53,0,1.11,0,1.72,0s1.24,0,1.88,0c.9.07,1.77.16,2.62.25a8.8,8.8,0,0,1,2.13.5,5.61,5.61,0,0,1,1.92,1.36,8.43,8.43,0,0,1,1.33,1.94V218ZM184.5,240.28c0,2.83.41,4.92,1.25,6.27s2.76,2.09,5.8,2.23l1.1.07c.36,0,.75,0,1.15,0s.73,0,1.1,0H196c3.86,0,6.76-.4,8.7-1.22s2.9-3.37,2.9-7.67a16.09,16.09,0,0,0-.88-5.75c-.58-1.54-2.19-2.5-4.82-2.9a32.85,32.85,0,0,0-3.4-.33c-1.14-.05-2.29-.08-3.45-.08-3.84,0-6.55.44-8.15,1.31s-2.4,3.55-2.4,8.05Z"/><path class="cls-1" d="M293.05,218.27h4.5l-15.9,33.36h-5.6L263,222.17l-13.2,29.46h-5.5l-15.9-33.36H233L247,247.92l13.2-29.65h5.55l13.15,29.65Z"/><path class="cls-1" d="M302,240.47a17,17,0,0,0,.87,5.13q.78,2.18,4.08,2.87a15.52,15.52,0,0,0,1.87.31c.65.06,1.29.1,1.93.1s1,0,1.47,0h3.33a10,10,0,0,0,1.1.05,10.24,10.24,0,0,0,1.1-.05,23.91,23.91,0,0,0,2.55-.22,8.49,8.49,0,0,0,2.15-.57,4,4,0,0,0,1.67-1.38,4.52,4.52,0,0,0,.63-2.08l3.7,0q-.06,4.19-3,5.6a17.89,17.89,0,0,1-6.47,1.65l-2,.07c-.65,0-1.29,0-1.92,0a40.45,40.45,0,0,1-11.95-1.47Q298.45,249,298.45,240q0-7.4,2.87-9.8t10-2.39h1.25a3.88,3.88,0,0,0,.57.05h.58a3.1,3.1,0,0,1,.42,0l.43,0a29.7,29.7,0,0,1,10.22,1.81q3.68,1.58,3.68,9.59v.6a.79.79,0,0,0-.05.3v.29ZM324.77,237c0-.17,0-.36,0-.56a8.84,8.84,0,0,0-.35-2,3.83,3.83,0,0,0-1.15-1.75A5,5,0,0,0,321,231.5a15,15,0,0,0-2.92-.47c-.5,0-1-.06-1.48-.08l-1.42,0H312.4c-.5,0-1,.06-1.58.08l-1.67.07a16.93,16.93,0,0,0-3,.47,6,6,0,0,0-2.42,1.16,3.43,3.43,0,0,0-1.13,1.57,8.57,8.57,0,0,0-.42,1.92,6.21,6.21,0,0,0-.08.64c0,.23,0,.45,0,.64H324.8A3.61,3.61,0,0,0,324.77,237Z"/><path class="cls-1" d="M339.3,218v14a5.11,5.11,0,0,1,2.95-3.09,14.46,14.46,0,0,1,4.3-1c.4,0,.8,0,1.2,0h1.15l2.65,0q7.4,0,11.05,1.92T366.25,240c0,5.61-1.19,9-3.55,10.2s-6.07,1.8-11.1,1.8h-.73a5.09,5.09,0,0,0-.77.06h-1.55a20.55,20.55,0,0,1-5.28-.63,6.64,6.64,0,0,1-4-3.37v3.6h-3.5V218Zm.05,22.25v.88a5.47,5.47,0,0,0,0,.82,10.85,10.85,0,0,0,.67,3.55A4.48,4.48,0,0,0,342.6,248a9,9,0,0,0,2.12.52c.85.12,1.73.21,2.63.28s1.63.09,2.4.09h3.75c.66,0,1.35,0,2.05-.09a19.8,19.8,0,0,0,2.27-.23,7.26,7.26,0,0,0,1.83-.52,3.81,3.81,0,0,0,2.15-2.2,11.39,11.39,0,0,0,.65-3.16,7.22,7.22,0,0,0,.05-.82v-2.18a21,21,0,0,0-.7-5.5q-.71-2.53-4.3-3c-.5-.06-1-.11-1.48-.14s-1-.05-1.47-.05-1-.06-1.48-.06H351.6c-1.17,0-2.34,0-3.5.06a29.34,29.34,0,0,0-3.5.3q-3.9.49-4.58,3.07a23.31,23.31,0,0,0-.67,5.88Z"/><path class="cls-1" d="M401.35,234.67h-3.5a4.06,4.06,0,0,0-1-2.67,5.78,5.78,0,0,0-2.9-.87c-.37,0-.75-.06-1.15-.08s-.79,0-1.15-.08c-.77,0-1.54-.05-2.3-.05h-2.3c-1.1,0-2.2,0-3.3.05a26.69,26.69,0,0,0-3.25.31,7.73,7.73,0,0,0-2.73.82,2.44,2.44,0,0,0-1.17,2.37c0,1.54.4,2.5,1.22,2.91a7.4,7.4,0,0,0,3.23.59l6,.11h6.55a13.5,13.5,0,0,1,6.2,1.3c1.56.83,2.35,2.68,2.35,5.54q0,4.76-2.55,5.73a19.57,19.57,0,0,1-6.05,1.13c-.27,0-.53,0-.78,0s-.49,0-.72.08c-.54,0-1.08,0-1.63,0s-1.09,0-1.62,0-1.12.05-1.65.05h-3.2c-.54,0-1.09,0-1.65-.05-.84,0-1.66-.08-2.48-.14s-1.56-.15-2.22-.25q-3-.66-4.05-2.28a8.19,8.19,0,0,1-1-4.47v-.28a.79.79,0,0,1,0-.28v-.5l3.55-.05a1.72,1.72,0,0,1,.05.36v.25c0,1.66.35,2.78,1.07,3.35a6.75,6.75,0,0,0,3.43,1.09l3.07.13c1,.05,2,.07,3.08.07,1.36,0,2.71,0,4.05,0s2.66-.12,4-.25a7.08,7.08,0,0,0,2.6-.85,2.53,2.53,0,0,0,.95-2.31c0-1.76-.45-2.92-1.33-3.47a7.27,7.27,0,0,0-3.82-.83l-6.35-.09H381a12.94,12.94,0,0,1-5.78-1.05c-1.52-.74-2.27-2.45-2.27-5.15,0-2.47.7-4.18,2.12-5.13a10.75,10.75,0,0,1,5.43-1.62l1.67-.1,1.68-.11,1.65-.07c.56,0,1.11,0,1.65,0H389c.63,0,1.26,0,1.9,0s1.21,0,1.85,0,1.26.09,1.9.16q3.6.24,5.07,1.67c1,.95,1.53,2.61,1.63,5Z"/><path class="cls-1" d="M412.7,218v4.41h-3.5V218Zm0,10.16v23.5h-3.5v-23.5Z"/><path class="cls-1" d="M441.5,228.13v3H425.25v11.29c0,2.67.45,4.42,1.37,5.25s2.68,1.25,5.28,1.25a15,15,0,0,0,5-.72q2-.72,2-4.23v-1.34a3.28,3.28,0,0,1,0-.63v-.67l3.25-.05c0,4-.47,6.74-1.4,8.32S437,252,432.3,252a20.93,20.93,0,0,1-7.55-1.17c-2-.78-3-3-3-6.67v-13h-5.7v-3h5.7v-5.3h3.5v5.3Z"/><path class="cls-1" d="M451,240.47a17,17,0,0,0,.88,5.13c.52,1.45,1.87,2.41,4.07,2.87a15.69,15.69,0,0,0,1.88.31c.65.06,1.29.1,1.92.1s1,0,1.48,0h3.32a10.31,10.31,0,0,0,1.11.05,9.94,9.94,0,0,0,1.09-.05,23.47,23.47,0,0,0,2.55-.22,8.27,8.27,0,0,0,2.15-.57,3.94,3.94,0,0,0,1.68-1.38,4.4,4.4,0,0,0,.62-2.08l3.7,0q0,4.19-3,5.6a17.89,17.89,0,0,1-6.48,1.65l-2,.07c-.65,0-1.29,0-1.92,0a40.41,40.41,0,0,1-12-1.47Q447.49,249,447.49,240q0-7.4,2.88-9.8t10-2.39h1.25a3.77,3.77,0,0,0,.57.05h.57a3.17,3.17,0,0,1,.43,0l.43,0a29.7,29.7,0,0,1,10.22,1.81q3.68,1.58,3.67,9.59v.6a1,1,0,0,0-.05.3v.29ZM473.82,237a4.86,4.86,0,0,1,0-.56,7.86,7.86,0,0,0-.35-2,3.75,3.75,0,0,0-1.15-1.75A4.91,4.91,0,0,0,470,231.5a15,15,0,0,0-2.92-.47c-.5,0-1-.06-1.48-.08l-1.43,0h-2.75c-.5,0-1,.06-1.57.08l-1.68.07a16.82,16.82,0,0,0-3,.47,6.11,6.11,0,0,0-2.43,1.16,3.49,3.49,0,0,0-1.12,1.57,8.59,8.59,0,0,0-.43,1.92c0,.2-.05.42-.07.64s0,.45,0,.64h22.75A3.61,3.61,0,0,0,473.82,237Z"/><path class="cls-1" d="M512.64,234.67h-3.5a4,4,0,0,0-.95-2.67,5.75,5.75,0,0,0-2.9-.87c-.36,0-.75-.06-1.15-.08s-.78,0-1.15-.08c-.76,0-1.53-.05-2.3-.05h-2.3c-1.1,0-2.2,0-3.3.05a26.89,26.89,0,0,0-3.25.31,7.74,7.74,0,0,0-2.72.82,2.45,2.45,0,0,0-1.18,2.37c0,1.54.41,2.5,1.23,2.91a7.38,7.38,0,0,0,3.22.59l6.05.11H505a13.44,13.44,0,0,1,6.2,1.3q2.35,1.25,2.35,5.54,0,4.76-2.55,5.73a19.52,19.52,0,0,1-6.05,1.13c-.26,0-.52,0-.77,0s-.49,0-.73.08c-.53,0-1.07,0-1.62,0s-1.09,0-1.63,0-1.11.05-1.65.05h-3.2c-.53,0-1.08,0-1.65-.05-.83,0-1.65-.08-2.47-.14s-1.56-.15-2.23-.25q-3-.66-4.05-2.28a8.19,8.19,0,0,1-1.05-4.47v-.28a1.11,1.11,0,0,1,.05-.28v-.5l3.55-.05a1.24,1.24,0,0,1,.05.36v.25c0,1.66.36,2.78,1.08,3.35a6.74,6.74,0,0,0,3.42,1.09l3.08.13c1,.05,2,.07,3.07.07,1.37,0,2.72,0,4.05,0s2.67-.12,4-.25a7,7,0,0,0,2.6-.85,2.51,2.51,0,0,0,1-2.31c0-1.76-.44-2.92-1.32-3.47a7.28,7.28,0,0,0-3.83-.83l-6.35-.09h-6.05a12.92,12.92,0,0,1-5.77-1.05c-1.52-.74-2.28-2.45-2.28-5.15q0-3.7,2.13-5.13a10.71,10.71,0,0,1,5.42-1.62l1.68-.1,1.67-.11,1.65-.07c.57,0,1.12,0,1.65,0h1.9c.64,0,1.27,0,1.9,0s1.22,0,1.85,0,1.27.09,1.9.16c2.4.16,4.1.72,5.08,1.67s1.52,2.61,1.62,5Z"/></g></g></g></svg>