<svg xmlns="http://www.w3.org/2000/svg" viewBox="0 0 515.12 80"><defs><style>.cls-1{fill:#f93;}.cls-2{fill:#fff;}</style></defs><title>dewoid-web_1</title><g id="Слой_2" data-name="Слой 2"><g id="Слой_1-2" data-name="Слой 1"><g id="Vortex"><path class="cls-1" d="M60.22,34.15a44.49,44.49,0,0,1-9.8,21.5C38,71,18.94,76.54,7.88,68.07,3.14,64.45.65,58.84.31,52.41-.91,61.25,1.47,69.29,7.61,74c11.06,8.47,30.11,2.91,42.54-12.42C57.27,52.8,60.67,42.74,60.22,34.15Z"/><path class="cls-1" d="M36.45,61.44c-6.72,1-13-.51-17.55-4.71C8.66,47.3,11,27.7,24.11,12.94A45.12,45.12,0,0,1,43,0C34.62,1.19,25.55,6.16,18.26,14.35,5.14,29.11,2.81,48.71,13.05,58.14,18.91,63.53,27.61,64.42,36.45,61.44Z"/><path class="cls-1" d="M19.74,44.44A45.69,45.69,0,0,1,30.52,23.15c13-14.84,32-19.34,42.34-10,4.44,4,6.57,9.84,6.55,16.41,1.68-8.93-.21-17.26-6-22.42C63.09-2.2,44.13,2.3,31.11,17.14,23.66,25.63,19.77,35.66,19.74,44.44Z"/><path class="cls-1" d="M42.89,18.64c6.73-1,13,.43,17.61,4.59,10.31,9.35,8.08,28.93-5,43.74A45.25,45.25,0,0,1,36.65,80c8.4-1.24,17.46-6.25,24.72-14.47,13.06-14.81,15.29-34.39,5-43.74C60.45,16.44,51.72,15.61,42.89,18.64Z"/></g><path class="cls-2" d="M126.56,26.93q6.93,0,8.76,3.36t1.84,9.6c0,.72,0,1.5,0,2.36a19.49,19.49,0,0,1-.24,2.6,18.85,18.85,0,0,1-.82,3.62,7.45,7.45,0,0,1-1.7,2.9A6.43,6.43,0,0,1,131.54,53a15.36,15.36,0,0,1-3.3.54c-.48,0-.94,0-1.4,0H104.28V26.93Zm-1,24q6.12,0,7.2-2.94a24.37,24.37,0,0,0,1.08-8.06,19.62,19.62,0,0,0-1.16-7.58q-1.15-2.7-6.8-2.7H107.52V50.93Z"/><path class="cls-2" d="M145.52,44.69a14,14,0,0,0,.7,4.1c.41,1.16,1.5,1.92,3.26,2.3q.72.15,1.5.24c.52.05,1,.08,1.54.08s.8,0,1.18,0h2.66c.3,0,.59,0,.88,0s.59,0,.88,0q1,0,2-.18a6.8,6.8,0,0,0,1.72-.46,3.14,3.14,0,0,0,1.34-1.1,3.57,3.57,0,0,0,.5-1.66l3,0c0,2.24-.82,3.73-2.38,4.48a14,14,0,0,1-5.18,1.32l-1.58.06-1.54,0a32.51,32.51,0,0,1-9.56-1.18q-3.72-1.18-3.72-8.42,0-5.92,2.3-7.84t8-1.92h1a3.91,3.91,0,0,0,.46,0h.46a2,2,0,0,1,.34,0l.34,0a23.63,23.63,0,0,1,8.18,1.45c2,.84,2.94,3.39,2.94,7.67v.48a1,1,0,0,0,0,.24v.24Zm18.26-2.76c0-.14,0-.28,0-.44a6.32,6.32,0,0,0-.28-1.6,2.92,2.92,0,0,0-.92-1.4,3.85,3.85,0,0,0-1.82-1,12.16,12.16,0,0,0-2.34-.38l-1.18-.06c-.39,0-.76,0-1.14,0h-2.2l-1.26.05-1.34.06a14,14,0,0,0-2.42.38,4.93,4.93,0,0,0-1.94.92,2.91,2.91,0,0,0-.9,1.27,7.21,7.21,0,0,0-.34,1.53c0,.16-.05.33-.06.51s0,.36,0,.52h18.2C163.8,42.18,163.79,42.06,163.78,41.93Z"/><path class="cls-2" d="M204,34.81h3.2l-8.6,18.8h-4.2l-6.2-16.68L182,53.61h-4.16l-8.68-18.8h3.16l7.56,16.72,6.2-16.72h4.28l6.2,16.72Z"/><path class="cls-2" d="M209.64,44.39A16.2,16.2,0,0,1,210.76,38c.75-1.72,2.57-2.77,5.48-3.14q.67-.09,1.38-.12l1.42-.08c.45,0,.91,0,1.38,0h1.38a27.28,27.28,0,0,1,9.08,1.24c2.29.83,3.44,3.51,3.44,8.06q0,7.13-2.94,8.57t-9.62,1.45a23.39,23.39,0,0,1-8.9-1.37q-3.23-1.35-3.22-8.09Zm3-.18q0,4.76,1.86,6t6.22,1.26H221a1.77,1.77,0,0,0,.3,0h.52l.84,0c.27,0,.55,0,.84,0a18.82,18.82,0,0,0,5.62-.94q2.27-.82,2.26-5.34v-1a14.19,14.19,0,0,0-.74-4.4c-.47-1.36-1.65-2.18-3.54-2.44a26.66,26.66,0,0,0-3.22-.22c-1.08,0-2.17,0-3.26,0-2.8,0-4.83.36-6.08,1.1s-1.88,2.75-1.88,6.06Z"/><path class="cls-2" d="M243,26.69v3.52h-2.8V26.69Zm0,8.12v18.8h-2.8V34.81Z"/><path class="cls-2" d="M273.2,26.69V53.61h-2.8V50.73A4.12,4.12,0,0,1,268,53.17a11.73,11.73,0,0,1-3.32.72c-.29,0-.58,0-.86,0h-2.14a4.58,4.58,0,0,0-.64,0h-.64q-5.76,0-8.66-1.38c-1.93-.92-2.9-3.6-2.9-8q0-5.93,2.16-7.9t7.88-2l2.2,0c.43,0,.89,0,1.38,0s1,0,1.5,0c.72.05,1.42.12,2.1.2a6.35,6.35,0,0,1,1.7.4,4.28,4.28,0,0,1,1.54,1.08,6.69,6.69,0,0,1,1.06,1.56V26.69ZM251.88,44.53a9.79,9.79,0,0,0,1,5c.67,1.08,2.21,1.67,4.64,1.78l.88.06.92,0c.29,0,.59,0,.88,0h.88a18.9,18.9,0,0,0,7-1c1.55-.66,2.32-2.7,2.32-6.14a12.94,12.94,0,0,0-.7-4.6c-.47-1.23-1.75-2-3.86-2.32a25,25,0,0,0-2.72-.26q-1.36-.06-2.76-.06c-3.07,0-5.24.34-6.52,1s-1.92,2.84-1.92,6.44Z"/><path class="cls-1" d="M338.72,26.93h3.6L329.6,53.61h-4.48L314.68,30.05,304.12,53.61h-4.4L287,26.93h3.64l11.24,23.72,10.56-23.72h4.44L327.4,50.65Z"/><path class="cls-1" d="M345.84,44.69a13.63,13.63,0,0,0,.7,4.1c.41,1.16,1.5,1.92,3.26,2.3q.72.15,1.5.24c.52.05,1,.08,1.54.08s.79,0,1.18,0h2.66c.29,0,.59,0,.88,0s.59,0,.88,0q1,0,2-.18a6.8,6.8,0,0,0,1.72-.46,3.2,3.2,0,0,0,1.34-1.1,3.57,3.57,0,0,0,.5-1.66l3,0q0,3.36-2.38,4.48a14.08,14.08,0,0,1-5.18,1.32l-1.58.06-1.54,0a32.51,32.51,0,0,1-9.56-1.18Q343,51.53,343,44.29q0-5.92,2.3-7.84t8-1.92h1a3.73,3.73,0,0,0,.46,0h.46a2,2,0,0,1,.34,0l.34,0a23.63,23.63,0,0,1,8.18,1.45c2,.84,2.94,3.39,2.94,7.67v.48a.67.67,0,0,0,0,.24v.24Zm18.26-2.76c0-.14,0-.28,0-.44a6.8,6.8,0,0,0-.28-1.6,3,3,0,0,0-.92-1.4,3.85,3.85,0,0,0-1.82-1,12.16,12.16,0,0,0-2.34-.38l-1.18-.06c-.39,0-.77,0-1.14,0h-2.2l-1.26.05-1.34.06a13.87,13.87,0,0,0-2.42.38,4.87,4.87,0,0,0-1.94.92,2.76,2.76,0,0,0-.9,1.27,6.65,6.65,0,0,0-.34,1.53,4,4,0,0,0-.06.51c0,.19,0,.36,0,.52h18.2C364.12,42.18,364.11,42.06,364.1,41.93Z"/><path class="cls-1" d="M375.72,26.69v11.2a4.09,4.09,0,0,1,2.36-2.48,11.39,11.39,0,0,1,3.44-.76c.32,0,.64,0,1,0h.92l2.12,0c3.94,0,6.89.54,8.84,1.54s2.92,3.72,2.92,8.18-.95,7.2-2.84,8.16-4.86,1.44-8.88,1.44H385a4.4,4.4,0,0,0-.62,0h-1.24a16.73,16.73,0,0,1-4.22-.5,5.34,5.34,0,0,1-3.18-2.7v2.88h-2.8V26.69Zm0,17.8v.7a4.87,4.87,0,0,0,0,.66,8.83,8.83,0,0,0,.54,2.84,3.58,3.58,0,0,0,2,2,7.66,7.66,0,0,0,1.7.42c.68.09,1.38.16,2.1.22s1.3.08,1.92.08h3c.53,0,1.08,0,1.64-.08a17,17,0,0,0,1.82-.18,6.2,6.2,0,0,0,1.46-.42A3.07,3.07,0,0,0,393.72,49a9.19,9.19,0,0,0,.52-2.52c0-.22,0-.44,0-.66V44.09a16.67,16.67,0,0,0-.56-4.4c-.38-1.36-1.52-2.16-3.44-2.4-.4-.06-.79-.1-1.18-.12s-.78,0-1.18,0-.79,0-1.18,0h-1.18c-.93,0-1.87,0-2.8,0a22,22,0,0,0-2.8.24q-3.12.39-3.66,2.46a18.57,18.57,0,0,0-.54,4.7Z"/><path class="cls-1" d="M425.36,40.05h-2.8a3.21,3.21,0,0,0-.76-2.14,4.61,4.61,0,0,0-2.32-.7c-.3,0-.6-.05-.92-.06l-.92-.06c-.62,0-1.23,0-1.84,0H414c-.88,0-1.76,0-2.64,0a18.61,18.61,0,0,0-2.6.24,6,6,0,0,0-2.18.66,1.94,1.94,0,0,0-.94,1.9c0,1.22.32,2,1,2.32a5.88,5.88,0,0,0,2.58.48l4.84.08h5.24a10.78,10.78,0,0,1,5,1q1.88,1,1.88,4.44,0,3.8-2,4.58a15.46,15.46,0,0,1-4.84.9c-.22,0-.42,0-.62,0a5.16,5.16,0,0,0-.58.06c-.43,0-.86,0-1.3,0l-1.3,0c-.46,0-.9,0-1.32,0h-2.56c-.43,0-.87,0-1.32,0q-1,0-2-.12c-.66-.06-1.25-.12-1.78-.2a4.93,4.93,0,0,1-3.24-1.82,6.56,6.56,0,0,1-.84-3.58v-.22a.6.6,0,0,1,0-.22v-.4l2.84,0a1.57,1.57,0,0,1,0,.28v.2a3.29,3.29,0,0,0,.86,2.68,5.44,5.44,0,0,0,2.74.88c.82,0,1.64.06,2.46.1s1.63.06,2.46.06c1.09,0,2.17,0,3.24,0s2.13-.1,3.2-.2a5.58,5.58,0,0,0,2.08-.68,2,2,0,0,0,.76-1.84c0-1.42-.36-2.34-1.06-2.78a5.84,5.84,0,0,0-3.06-.66l-5.08-.08H409a10.43,10.43,0,0,1-4.62-.84c-1.22-.59-1.82-2-1.82-4.12,0-2,.56-3.34,1.7-4.1a8.53,8.53,0,0,1,4.34-1.3l1.34-.08,1.34-.08q.63,0,1.32-.06c.45,0,.89,0,1.32,0h1.52c.5,0,1,0,1.52,0s1,0,1.48,0,1,.06,1.52.12a6.43,6.43,0,0,1,4.06,1.34,5.79,5.79,0,0,1,1.3,4Z"/><path class="cls-1" d="M434.44,26.69v3.52h-2.8V26.69Zm0,8.12v18.8h-2.8V34.81Z"/><path class="cls-1" d="M457.48,34.81v2.4h-13v9c0,2.13.36,3.53,1.1,4.2s2.14,1,4.22,1a12.08,12.08,0,0,0,4-.58c1.08-.39,1.62-1.52,1.62-3.38V46.41a2.74,2.74,0,0,1,0-.5v-.54l2.6,0c0,3.17-.38,5.39-1.12,6.66s-3,1.9-6.72,1.9a16.83,16.83,0,0,1-6-.94q-2.4-.95-2.4-5.34V37.21h-4.56v-2.4h4.56V30.57h2.8v4.24Z"/><path class="cls-1" d="M465.08,44.69a13.33,13.33,0,0,0,.7,4.1c.41,1.16,1.5,1.92,3.26,2.3q.72.15,1.5.24c.52.05,1,.08,1.54.08s.79,0,1.18,0h2.66c.29,0,.58,0,.88,0s.58,0,.88,0q1,0,2-.18a6.92,6.92,0,0,0,1.72-.46,3.2,3.2,0,0,0,1.34-1.1,3.69,3.69,0,0,0,.5-1.66l3,0q0,3.36-2.38,4.48a14.08,14.08,0,0,1-5.18,1.32l-1.58.06-1.54,0A32.46,32.46,0,0,1,466,52.71q-3.72-1.18-3.72-8.42c0-3.95.76-6.56,2.3-7.84s4.19-1.92,8-1.92h1a3.73,3.73,0,0,0,.46,0h.46a2.06,2.06,0,0,1,.34,0l.34,0a23.63,23.63,0,0,1,8.18,1.45c2,.84,2.94,3.39,2.94,7.67v.48a.67.67,0,0,0,0,.24v.24Zm18.26-2.76a3.1,3.1,0,0,1,0-.44,6.8,6.8,0,0,0-.28-1.6,3,3,0,0,0-.92-1.4,3.9,3.9,0,0,0-1.82-1,12.16,12.16,0,0,0-2.34-.38l-1.18-.06c-.39,0-.77,0-1.14,0h-2.2l-1.26.05-1.34.06a13.72,13.72,0,0,0-2.42.38,4.8,4.8,0,0,0-1.94.92,2.76,2.76,0,0,0-.9,1.27,6.16,6.16,0,0,0-.34,1.53,4,4,0,0,0-.06.51,4.79,4.79,0,0,0,0,.52h18.2C483.36,42.18,483.35,42.06,483.34,41.93Z"/><path class="cls-1" d="M514.4,40.05h-2.8a3.21,3.21,0,0,0-.76-2.14,4.61,4.61,0,0,0-2.32-.7c-.3,0-.6-.05-.92-.06l-.92-.06c-.62,0-1.23,0-1.84,0H503c-.88,0-1.76,0-2.64,0a18.61,18.61,0,0,0-2.6.24,6,6,0,0,0-2.18.66,1.94,1.94,0,0,0-.94,1.9c0,1.22.32,2,1,2.32a5.88,5.88,0,0,0,2.58.48l4.84.08h5.24a10.78,10.78,0,0,1,5,1q1.88,1,1.88,4.44,0,3.8-2,4.58a15.46,15.46,0,0,1-4.84.9c-.22,0-.42,0-.62,0a5.16,5.16,0,0,0-.58.06c-.43,0-.86,0-1.3,0l-1.3,0c-.46,0-.9,0-1.32,0h-2.56c-.43,0-.87,0-1.32,0q-1,0-2-.12c-.66-.06-1.25-.12-1.78-.2a4.93,4.93,0,0,1-3.24-1.82,6.56,6.56,0,0,1-.84-3.58v-.22a.6.6,0,0,1,0-.22v-.4l2.84,0a1.57,1.57,0,0,1,0,.28v.2a3.29,3.29,0,0,0,.86,2.68,5.44,5.44,0,0,0,2.74.88c.82,0,1.64.06,2.46.1s1.63.06,2.46.06c1.09,0,2.17,0,3.24,0s2.13-.1,3.2-.2a5.58,5.58,0,0,0,2.08-.68,2,2,0,0,0,.76-1.84c0-1.42-.36-2.34-1.06-2.78a5.84,5.84,0,0,0-3.06-.66l-5.08-.08h-4.84a10.43,10.43,0,0,1-4.62-.84c-1.22-.59-1.82-2-1.82-4.12,0-2,.56-3.34,1.7-4.1a8.53,8.53,0,0,1,4.34-1.3l1.34-.08,1.34-.08q.63,0,1.32-.06c.45,0,.89,0,1.32,0h1.52c.5,0,1,0,1.52,0s1,0,1.48,0,1,.06,1.52.12a6.43,6.43,0,0,1,4.06,1.34,5.79,5.79,0,0,1,1.3,4Z"/></g></g></svg>