<svg xmlns="http://www.w3.org/2000/svg" viewBox="0 0 283.48 21.54"><defs><style>.cls-1{fill:#343148;}</style></defs><title>Ресурс 2</title><g id="Слой_2" data-name="Слой 2"><g id="Слой_1-2" data-name="Слой 1"><path class="cls-1" d="M6.34,3.7A10.75,10.75,0,0,1,5.6,1.41.53.53,0,0,1,6,.86,3.06,3.06,0,0,1,7,.72c.19,0,.27,0,.27-.19S7,.34,6.48.34c-1,0-2.28.08-2.55.08S2,.34.71.34C.27.34,0,.34,0,.53S0,.72.22.72a4.2,4.2,0,0,1,1,.11c1,.27,1.38.58,2,2.11l6.83,16.85c.52,1.32.66,1.7,1,1.7s.38-.44,1.15-2.09c.63-1.34,1.87-4.31,3.54-8.32,1.4-3.37,2.78-6.67,3.08-7.44.74-1.87,1.15-2.33,1.51-2.58A2.54,2.54,0,0,1,21.65.73c.22,0,.33,0,.33-.19s-.17-.19-.47-.19c-.8,0-2,.08-2.14.08C19,.43,17.78.35,16.68.35c-.44,0-.61,0-.61.22s.14.16.31.16a3.38,3.38,0,0,1,1,.11.69.69,0,0,1,.36.63,3.86,3.86,0,0,1-.25,1c-.61,2-4.29,11.56-5.88,15.24L6.34,3.65Zm21.25,6.51v-5c0-.71.19-1.15.85-1.29a3.08,3.08,0,0,1,.61-.06.23.23,0,0,0,.19-.19c0-.14-.11-.19-.38-.19H24c-.27,0-.38,0-.38.19a.2.2,0,0,0,.19.19,4.53,4.53,0,0,1,.74.09c.53.11.72.46.77,1.26s.06,1.4.06,5v4.11a46.8,46.8,0,0,1-.14,5.06c-.08.68-.16,1.12-.63,1.23a3.08,3.08,0,0,1-.74.11.2.2,0,0,0-.2.18h0c0,.14.14.2.39.2.74,0,2.25-.09,2.39-.09s1.67.09,3,.09c.27,0,.38-.09.38-.2a.18.18,0,0,0-.17-.19h0a8,8,0,0,1-1.1-.11c-.71-.11-.79-.55-.88-1.23-.11-1-.11-2.8-.11-5.06V10.21Zm16.26,11.2a14.34,14.34,0,0,0,4.37-.52c.41-.17.47-.25.6-.69a23.7,23.7,0,0,0,.58-3c0-.17-.11-.33-.22-.33s-.19.08-.25.33a4.24,4.24,0,0,1-.93,2c-1,1-2.17,1.1-4,1.1A8.49,8.49,0,0,1,35.29,12v-.19c0-2.36.39-4.45,2.17-6.1.85-.8,2.34-1.62,5.44-1.62a7.89,7.89,0,0,1,4.77,1.29,3.06,3.06,0,0,1,1,2.34c0,.33,0,.49.19.49s.24-.14.27-.49,0-1.62.06-2.39S49.3,4.23,49.3,4s-.06-.25-.31-.25a17.08,17.08,0,0,1-2.45-.38,23.93,23.93,0,0,0-3.49-.29c-3.71,0-5.91,1.1-7.36,2.5A9.24,9.24,0,0,0,33,12a8.77,8.77,0,0,0,2.94,6.92c1.89,1.65,4.34,2.5,8,2.5ZM60.27,4.52l3,.06c2.3,0,2.82.57,2.91,1.29v.24c0,.33.09.42.2.42s.22-.12.22-.31.08-2,.08-2.66c0-.14,0-.28-.11-.28s-.33.06-.69.11a11,11,0,0,1-1.72.11H55.05q-.93,0-1.86-.09a9.85,9.85,0,0,1-1.07-.27c-.08,0-.19.3-.25.44s-.52,2.28-.52,2.53a.19.19,0,0,0,.16.19c.11,0,.2,0,.25-.22a3.49,3.49,0,0,1,.39-.74c.35-.55.93-.72,2.44-.74l3.49-.06v9.8c0,2.26,0,4.1-.11,5.06-.09.68-.22,1.15-.72,1.26a2.84,2.84,0,0,1-.71.11c-.14,0-.19.08-.19.16s.11.2.38.2c.72,0,2.39-.09,2.5-.09s1.67.09,3,.09c.27,0,.38-.09.38-.2a.17.17,0,0,0-.15-.19h0a8,8,0,0,1-1.1-.11c-.73-.11-.84-.55-.93-1.23-.11-1-.11-2.8-.11-5.06V4.52Zm8.11,7.72c0,4.2,2.82,9.17,9.44,9.17a9.36,9.36,0,0,0,9.7-9v-.52c0-5.44-4.12-8.76-9.56-8.76A9.23,9.23,0,0,0,68.39,12,1.77,1.77,0,0,0,68.38,12.24Zm2.49-.63c0-5.08,2.92-7.61,7-7.61,3.82,0,7.22,2.94,7.22,8.54,0,6.75-4.41,7.87-6.58,7.87-4.37,0-7.64-3.41-7.64-8.84Zm21.7,2.71a45.47,45.47,0,0,1-.14,5.09c-.11.68-.16,1.12-.63,1.23a3.08,3.08,0,0,1-.74.11.18.18,0,0,0-.19.17v0c0,.14.13.2.38.2.74,0,2.36-.09,2.39-.09s1.65.09,3,.09c.27,0,.38-.09.38-.2a.17.17,0,0,0-.15-.19h0a7.61,7.61,0,0,1-1.07-.11c-.74-.11-.88-.55-1-1.23-.11-1-.11-2.78-.11-5v-.55c0-.13,0-.19.16-.19l3.08.06a.36.36,0,0,1,.33.13c.52.63,1.59,2.14,2.61,3.41,1.37,1.76,2.25,2.88,3.29,3.43a4.88,4.88,0,0,0,2.58.47h1.51c.44,0,.58-.06.58-.2a.21.21,0,0,0-.22-.19,4.8,4.8,0,0,1-.85-.08A4.39,4.39,0,0,1,105.05,19c-1.4-1.46-3.08-3.57-5.06-6,2.26-1.92,3-3.6,3-5.33a4.1,4.1,0,0,0-1.67-3.18,8,8,0,0,0-4.51-1H91c-.27,0-.38,0-.38.19a.23.23,0,0,0,.19.19,5.79,5.79,0,0,1,.83.06c.79.11.93.49,1,1.29s.06,1.4.06,5v4.11Zm2.09-9.64a.29.29,0,0,1,.19-.27,11.11,11.11,0,0,1,1.73-.14c2.58,0,4.17,1.68,4.17,4.59a4.18,4.18,0,0,1-1.45,3.55,3.18,3.18,0,0,1-1.81.41,8.05,8.05,0,0,1-2.67-.36.33.33,0,0,1-.16-.3V4.68Zm18.56,5.53v-5c0-.71.19-1.15.85-1.29a3.05,3.05,0,0,1,.6-.06.23.23,0,0,0,.2-.19c0-.14-.11-.19-.39-.19h-4.86c-.27,0-.38,0-.38.19a.2.2,0,0,0,.19.19,4.53,4.53,0,0,1,.74.09c.52.11.71.46.77,1.26s0,1.4,0,5v4.11a50.39,50.39,0,0,1-.13,5.06c-.09.68-.17,1.12-.63,1.23a3.16,3.16,0,0,1-.75.11.2.2,0,0,0-.19.19h0c0,.14.14.2.39.2.74,0,2.25-.09,2.39-.09s1.67.09,3,.09c.27,0,.38-.09.38-.2a.18.18,0,0,0-.17-.19h0a8,8,0,0,1-1.1-.11c-.71-.11-.8-.55-.88-1.23-.11-1-.11-2.8-.11-5.06V10.21Zm6.48,8.32c-.46,1.18-.93,2-2,2.14H117a.22.22,0,0,0-.22.19c0,.14.16.2.46.2,1,0,2.2-.09,2.45-.09s1.59.09,2.17.09c.22,0,.35-.06.35-.2s0-.19-.24-.19h-.22c-.42,0-.83-.16-.83-.63a4.67,4.67,0,0,1,.36-1.56l1.37-3.74a.26.26,0,0,1,.25-.19h5.58c.13,0,.16,0,.22.14L130.85,20a.43.43,0,0,1-.14.59l-.08,0c-.11.06-.16.06-.16.17s.38.13.85.16c1.68.06,3.46.06,3.82.06s.55-.06.55-.2-.17-.19-.3-.19a3.35,3.35,0,0,1-1-.13c-.52-.17-1.18-.47-2.06-2.56C130.85,14.44,127,4.8,126.54,3.81c-.25-.52-.33-.85-.58-.85s-.27.14-.57.91Zm3.49-4.89c-.08,0-.11-.06-.08-.17l2.25-6.4c.14-.35.27-.35.41,0l2.39,6.4c0,.11,0,.17-.08.17Zm34.47,7.85a15.85,15.85,0,0,0,4.94-.63c.49-.22.55-.27.71-.8a28,28,0,0,0,.61-3.51c0-.22-.06-.41-.2-.41s-.22.11-.27.41a5.2,5.2,0,0,1-1,2.31c-1.09,1.12-2.72,1.37-4.77,1.37a9.92,9.92,0,0,1-9.92-9.92v-.08c0-2.8.47-5.25,2.47-7.17,1-.93,2.67-2,6.32-2a9.1,9.1,0,0,1,5.5,1.51,3.79,3.79,0,0,1,1.13,2.84c0,.39,0,.58.21.58s.22-.17.25-.58,0-1.92.08-2.83.14-1.32.14-1.54,0-.27-.36-.3a23.91,23.91,0,0,1-2.8-.41,22.34,22.34,0,0,0-4-.33c-4.23,0-6.73,1.29-8.37,2.94a11,11,0,0,0-3.06,7.47,10.53,10.53,0,0,0,3.32,8.13c2.17,1.95,5,3,9.07,3Zm10.21-3c-.47,1.18-.93,2-2,2.14-.24,0-.47,0-.71,0a.22.22,0,0,0-.22.19c0,.14.16.2.46.2,1,0,2.2-.09,2.45-.09s1.59.09,2.17.09c.22,0,.35-.06.35-.2s-.05-.19-.24-.19h-.22c-.42,0-.83-.16-.83-.63a4.67,4.67,0,0,1,.36-1.56l1.37-3.74a.26.26,0,0,1,.25-.19h5.57c.14,0,.17,0,.22.14L179,20a.43.43,0,0,1-.14.59l-.08,0c-.11.06-.16.06-.16.17s.38.13.85.16c1.68.06,3.46.06,3.82.06s.55-.06.55-.2-.17-.19-.31-.19a3.35,3.35,0,0,1-1-.13c-.52-.17-1.18-.47-2.06-2.56-1.44-3.45-5.34-13.09-5.78-14.08-.25-.52-.33-.85-.58-.85s-.27.14-.57.91l-5.69,14.61Zm3.49-4.89c-.08,0-.11-.06-.08-.17L173.53,7c.14-.35.27-.35.41,0l2.39,6.4c0,.11,0,.17-.08.17Zm19.17-9.12,3,.06c2.31,0,2.83.57,2.91,1.29v.24c0,.33.08.42.19.42s.22-.12.22-.31.09-2,.09-2.66c0-.14,0-.28-.11-.28s-.34.06-.69.11a11.09,11.09,0,0,1-1.73.11h-9.07a17.29,17.29,0,0,1-1.9-.11,9.85,9.85,0,0,1-1.07-.27c-.08,0-.19.3-.25.44s-.52,2.28-.52,2.53a.19.19,0,0,0,.17.19c.11,0,.19,0,.24-.22a3.49,3.49,0,0,1,.39-.74c.36-.55.93-.72,2.44-.74l3.49-.06v9.8c0,2.26,0,4.1-.11,5.06-.08.68-.22,1.15-.71,1.26a2.92,2.92,0,0,1-.72.11.18.18,0,0,0-.19.15h0c0,.14.11.2.38.2.72,0,2.39-.09,2.5-.09s1.67.09,3,.09c.28,0,.39-.09.39-.2a.17.17,0,0,0-.15-.19h0a8,8,0,0,1-1.1-.11c-.74-.11-.85-.55-.93-1.23-.11-1-.11-2.8-.11-5.06V4.48Zm11.52,9.84a47.43,47.43,0,0,1-.14,5.06c-.11.68-.17,1.15-.63,1.23a6,6,0,0,1-.74.11.2.2,0,0,0-.2.18h0c0,.14.14.2.39.2a12.78,12.78,0,0,0,1.4-.06,4.88,4.88,0,0,1,1,0c.36,0,1,0,2,.06s2.39.08,4.2.08c.93,0,1.18,0,1.35-.6a19.34,19.34,0,0,0,.37-2.28c0-.17,0-.36-.16-.36s-.19.08-.25.36a1.76,1.76,0,0,1-1.1,1.62,8.16,8.16,0,0,1-2.41.24c-2.39,0-2.83-.3-2.89-1.86v-5.9c0-.08,0-.16.17-.16.41,0,3,0,3.65.11.94.11,1.15.38,1.24.71a2.25,2.25,0,0,1,.11.77c0,.14.05.22.16.22s.22-.25.22-.44.06-1,.11-1.51c.06-.77.19-1.15.19-1.29s0-.19-.13-.19-.2.14-.36.3a2.21,2.21,0,0,1-1.18.33c-.58.05-3.74.06-4,.06s-.14-.09-.14-.25V4.68c0-.16,0-.24.14-.24s3.08,0,3.49.08c1.32.16,1.56.33,1.73.71a2.63,2.63,0,0,1,.14.83c0,.19,0,.3.19.3s.19-.14.22-.25c0-.27.11-1.32.14-1.53a10.11,10.11,0,0,1,.19-1.1c0-.11,0-.22-.11-.22a1.14,1.14,0,0,0-.36.15c-.19,0-.63.11-1.1.13s-5.6,0-5.77,0h-2.8c-.27,0-.38,0-.38.19a.23.23,0,0,0,.19.19A5.66,5.66,0,0,1,201,4c.8.11.94.49,1,1.29s.06,1.4.06,5v4.11Zm15.13,0a45.47,45.47,0,0,1-.13,5.09c-.11.68-.16,1.12-.63,1.23a3.08,3.08,0,0,1-.74.11.18.18,0,0,0-.19.17v0c0,.14.13.2.38.2.74,0,2.36-.09,2.39-.09s1.65.09,3,.09c.27,0,.38-.09.38-.2a.17.17,0,0,0-.15-.19h0a7.61,7.61,0,0,1-1.07-.11c-.74-.11-.88-.55-1-1.23-.11-1-.11-2.78-.11-5v-.55c0-.13,0-.19.16-.19l3.08.06a.36.36,0,0,1,.33.13c.52.63,1.59,2.14,2.6,3.41,1.38,1.76,2.26,2.88,3.3,3.43a4.88,4.88,0,0,0,2.58.47h1.51c.44,0,.58-.06.58-.2a.21.21,0,0,0-.22-.19,4.8,4.8,0,0,1-.85-.08,4.4,4.4,0,0,1-2.69-1.62c-1.4-1.46-3.08-3.57-5.06-6,2.26-1.92,3-3.6,3-5.33a4,4,0,0,0-1.68-3.18,7.94,7.94,0,0,0-4.5-1h-5.86c-.27,0-.38,0-.38.19a.23.23,0,0,0,.19.19,5.66,5.66,0,0,1,.82.06c.8.11.94.49,1,1.29s.06,1.4.06,5v4.11Zm2.09-9.64a.29.29,0,0,1,.19-.27,11.11,11.11,0,0,1,1.73-.14c2.58,0,4.17,1.68,4.17,4.59a4.19,4.19,0,0,1-1.49,3.55,3.22,3.22,0,0,1-1.82.41,8,8,0,0,1-2.66-.36.33.33,0,0,1-.16-.3V4.66Zm18.56,5.53v-5c0-.71.19-1.15.85-1.29a3.05,3.05,0,0,1,.6-.06.23.23,0,0,0,.2-.19c0-.14-.11-.19-.39-.19h-4.86c-.27,0-.38,0-.38.19a.2.2,0,0,0,.19.19,4.53,4.53,0,0,1,.74.09c.52.11.71.46.77,1.26s0,1.4,0,5v4.11a50.39,50.39,0,0,1-.13,5.06c-.09.68-.17,1.12-.64,1.23a3.08,3.08,0,0,1-.74.11.2.2,0,0,0-.19.19h0c0,.14.14.2.38.2.75,0,2.26-.09,2.39-.09s1.68.09,3,.09c.28,0,.39-.09.39-.2a.2.2,0,0,0-.19-.19h0a8,8,0,0,1-1.1-.11c-.72-.11-.8-.55-.88-1.23-.11-1-.11-2.8-.11-5.06V10.21Zm8.68-3.3c.74.82,3.45,3.68,6.25,6.62,2.55,2.66,6,6.09,6.29,6.31,1.34,1.24,1.6,1.43,1.84,1.43s.2-.13.2-1.67l.05-13.68c0-1.4.06-1.87.85-2a2.86,2.86,0,0,1,.58-.06.26.26,0,0,0,.27-.22c0-.13-.19-.16-.44-.16h-4.59c-.27,0-.46,0-.46.16s0,.22.19.22a7.73,7.73,0,0,1,1.18.11c.74.14.88.66.91,2.17l.24,11.7c-.74-.77-3.32-3.54-5.7-6-3.74-3.85-7.25-7.58-7.63-8-.25-.24-.66-.71-.94-.71s-.33.25-.33,1.18V17.67c0,2.12-.08,2.75-.68,2.92a3.76,3.76,0,0,1-1,.13.2.2,0,0,0-.2.19c0,.17.14.2.39.2,1.1,0,2.11-.09,2.33-.09s1.18.09,2.55.09c.28,0,.44-.06.44-.2a.2.2,0,0,0-.19-.19h0a5.47,5.47,0,0,1-1.21-.13c-.65-.17-.87-.75-.93-2.67l-.27-11Zm33.12,12.27c0,.44-.19.55-.5.72a6,6,0,0,1-2.61.44,8.62,8.62,0,0,1-6.17-2.45,9.22,9.22,0,0,1-2.6-6.48,7.25,7.25,0,0,1,2.39-5.88,7.68,7.68,0,0,1,5-1.51c3.13,0,5,.94,5.58,1.82a3.49,3.49,0,0,1,.55,1.53c0,.22,0,.36.16.36s.28-.11.28-.49c0-2.34.13-3,.13-3.3,0-.11,0-.22-.3-.22a10.62,10.62,0,0,1-2-.25,20,20,0,0,0-3.71-.38,12.06,12.06,0,0,0-6.42,1.48,8.74,8.74,0,0,0-4,7.66,8.93,8.93,0,0,0,2.89,6.65,13.62,13.62,0,0,0,13.1,1.53c.31-.17.33-.2.33-1.27V14.08c0-.74.25-1.18.91-1.29a3.05,3.05,0,0,1,.6-.06.23.23,0,0,0,.19-.19c0-.17-.11-.19-.38-.19h-5.22c-.27,0-.38,0-.38.19a.23.23,0,0,0,.19.19,5.66,5.66,0,0,1,.82.06c1,.19,1,.46,1,2.36v4Z"/></g></g></svg>
