<svg xmlns="http://www.w3.org/2000/svg" viewBox="0 0 267 50"><defs><style>.cls-1{fill:#fff;}</style></defs><title>full-logo-svg</title><g id="Слой_2" data-name="Слой 2"><g id="Слой_1-2" data-name="Слой 1"><g id="Слой_1-2-2" data-name="Слой 1-2"><path class="cls-1" d="M39.22,21.3l-2.53,1.79L37.45,25c-.26.63-.51,1.26-.76,1.89l2.53,1.79.25-2.6L38.61,25l.86-1.08c-.1-1-.19-2-.25-2.6Z"/><path class="cls-1" d="M31.18,14.39,32.45,16l2.82-1.26-2.14-1.51-1.37.19c-.16-.39-.34-.82-.51-1.26l-2.39-1.08c.1,1.11.19,2.09.29,3.07l2,.29Z"/><path class="cls-1" d="M34.17,17.6l1.62,1.26c.1.7.2,1.36.29,2l3.09.29L38.06,18.8l-1.27-.52c.05-.41.12-.87.19-1.36-.63-.85-1.17-1.63-1.52-2.13L34.19,17.6Z"/><path class="cls-1" d="M18.1,13.39l-1.37-.2L14.6,14.71,17.41,16l1.27-1.61,2-.29L21,11l-2.39,1.08-.52,1.27Z"/><path class="cls-1" d="M38.06,31.17l1.09-2.38-3.09.29-.29,2-1.61,1.27c.41.9.82,1.79,1.26,2.8L37,33.05l-.2-1.36L38,31.17Z"/><path class="cls-1" d="M31.87,36.57l1.37.2,2.13-1.52c-1-.46-1.9-.87-2.82-1.26L31.28,35.6l-2,.29c-.09,1-.18,2-.29,3.07l2.39-1.13Z"/><path class="cls-1" d="M16.09,32.36,14.47,31.1l-.29-2-3.09-.29,1.09,2.38,1.27.51c0,.42-.12.89-.19,1.36l1.52,2.13c.47-1,.87-1.89,1.27-2.81Z"/><path class="cls-1" d="M25.13,37l-1.9-.75-1.8,2.52,2.62.25,1.08-.86,1.09.86,2.61-.25c-.63-.91-1.22-1.71-1.79-2.52l-1.9.75Z"/><path class="cls-1" d="M11.06,21.3c-.05.63-.15,1.56-.24,2.6L11.67,25c-.26.33-.56.69-.85,1.08.09,1,.19,2,.24,2.6l2.54-1.79c-.25-.63-.49-1.26-.76-1.89.27-.66.51-1.26.76-1.89l-2.54-1.79Z"/><path class="cls-1" d="M25.14,12.75l1.91.76L28.84,11l-2.61-.25-1.09.86-1.08-.85L21.44,11l1.8,2.53,1.9-.77Z"/><path class="cls-1" d="M19,35.58,17.71,34l-2.82,1.26L17,36.76l1.36-.19c.16.39.33.83.52,1.26l2.39,1.1L21,35.85l-2-.29Z"/><path class="cls-1" d="M43.13,29.79l2.18,3c0,.41.09,2,.18,3.86l-3.43,1.77-3.74-.35c.21,2.11.35,3.55.36,3.72L36.9,45.26,33,45.07,30,42.88l-1.56,3.4-3.27,2.09-3.27-2.09-1.56-3.4L17.24,45l-3.88.19c-.88-1.69-1.59-3.06-1.78-3.44,0-.16.15-1.6.35-3.72l-3.73.39L4.74,36.69c.1-1.9.17-3.45.19-3.86l2.18-3L3.69,28.24,1.59,25l2.1-3.26,3.42-1.55-2.18-3c0-.42-.09-2-.19-3.86L8.2,11.51l3.74.35c-.21-2.11-.34-3.55-.36-3.71.2-.37.9-1.74,1.78-3.44l3.89.19L20.3,7.06c.88-1.93,1.49-3.24,1.56-3.39l3.26-2.09L28.4,3.67c.06.15.67,1.46,1.56,3.39L33,4.9l3.89-.19c.87,1.7,1.58,3.07,1.78,3.44,0,.16-.16,1.6-.36,3.71l3.74-.35,3.45,1.77c-.09,1.89-.17,3.44-.18,3.86l-2.2,3,3.41,1.55L48.65,25l-2.11,3.25ZM50.24,25l-2.78-4.3-2.3-1,1.47-2c0-1.18.14-3.06.24-5.11l-4.55-2.34-2.53.24c.12-1.26.21-2.18.24-2.52L37.7,3.35l-5.14.24L30.51,5.05,29.46,2.76,25.13,0,20.81,2.76l-1,2.29L17.7,3.59l-5.14-.24L10.21,7.9c0,.31.12,1.26.24,2.52l-2.53-.24L3.35,12.52c.09,2.05.18,3.92.24,5.11l1.48,2-2.29,1L0,25l2.78,4.3,2.29,1.05c-.73,1-1.26,1.78-1.46,2-.06,1.18-.15,3.06-.24,5.11l4.56,2.34,2.54-.24c-.12,1.26-.21,2.19-.24,2.52l2.35,4.54,5.14-.24L19.78,45l1,2.29L25.15,50l4.32-2.76L30.53,45l2,1.46,5.14.24,2.35-4.54c0-.32-.12-1.26-.24-2.52l2.54.24,4.57-2.34c-.1-2.05-.19-3.93-.24-5.11-.18-.26-.73-1-1.47-2l2.3-1.05L50.31,25Z"/><path class="cls-1" d="M12.18,18.8l-1.09,2.38,3.09-.29c.1-.66.19-1.33.29-2l1.62-1.26L14.82,14.8l-1.53,2.13c.07.49.14.95.2,1.37l-1.27.51Z"/><path class="cls-1" d="M42.24,34v.72l-.87.33-1.56-.16,1.42-1V34h-.66a9,9,0,0,1,.49-1.26L42,34Zm-2.7-1.26L39,33a5,5,0,0,0,.09.63L37.26,36.1l4.44.42,1.81-.93c0-.67-.06-1.35-.09-2L40.84,30l-1.27,2.79Z"/><path class="cls-1" d="M25.73,44l-.63.39L24.5,44c-.21-.46-.43-.92-.64-1.41l1.19.11.06-.05s.05,0,.06.05l1.2-.11Zm-.63-3.15-.49.38-3-.24,1.83,4,1.72,1.1L26.84,45c.64-1.4,1.27-2.8,1.85-4l-3.07.29-.5-.39Z"/><path class="cls-1" d="M34.88,42h-.71l-1.27-1.1,1.29-.53V40h-.12l1-.39c.05.54.1,1,.16,1.55q-.18.32-.33.63Zm-1.15-3.17-.63-.09-.24.58-2.8,1.26,3.61,2.56,2,.1.93-1.81c-.15-1.52-.29-3.05-.42-4.41l-2.54,1.78Z"/><path class="cls-1" d="M41.23,15l1,.33V16l-1.12,1.27C41,16.88,40.63,16,40.63,16h-.4v.1l-.39-1L41.23,15ZM39,17l.58.23L40.81,20l2.57-3.59c0-.68.07-1.36.1-2l-1.81-.93-4.44.42L39,16.43a4.52,4.52,0,0,1-.08.63Z"/><path class="cls-1" d="M24.53,6l.6-.39.63.39.64,1.41-1.19-.11-.07.05-.05-.05-1.2.11C24.11,6.89,24.33,6.43,24.53,6Zm.61,3.15.5-.39,3.07.3L26.86,5,25.14,3.9,23.42,5c-.63,1.4-1.26,2.79-1.84,4l3.07-.3.49.39Z"/><path class="cls-1" d="M44.26,25.59l-1.42.63c0-.41.07-.8.11-1.19L42.9,25l.05-.06c0-.38-.07-.77-.11-1.18l1.42.63a7,7,0,0,1,.39.63Zm-3.07-4.15c.09.94.19,2,.3,3L41.1,25l.39.49c-.11,1.06-.21,2.1-.3,3.05l4-1.84,1.1-1.7-1.1-1.71Z"/><path class="cls-1" d="M15.37,8h.72l1.27,1.1-1.27.5V9h.1l-1,1.37c-.05-.53-.1-1-.15-1.55l.33-.63Zm1.16,3.17.63.08.23-.57L20.2,9.41,16.59,6.85l-2.05-.1-.93,1.81c.15,1.52.29,3,.42,4.41l2.54-1.77Z"/><path class="cls-1" d="M32.1,24.41l-1.13-1L31.45,22l1.23-1a8.56,8.56,0,0,0,1,3.58Zm.58,4.51-1.23-1L31,26.54l1.13-1,1.55-.22A8.87,8.87,0,0,0,32.68,28.92Zm-3,3.24-.59-1.45c.1-.48.19-1,.29-1.47L30.88,29l1.46.58A8.39,8.39,0,0,0,29.7,32.16Zm-4.21,1.3c.07-.53.15-1,.22-1.54l1-1.12,1.42.48,1,1.23A8.59,8.59,0,0,0,25.49,33.46ZM24,29.15l-1.61.55c-.11-.56-.22-1.12-.33-1.66l-1.67-.32c.19-.55.37-1.09.56-1.61L19.69,25,21,23.88c-.19-.52-.37-1.06-.56-1.6L22.07,22c.11-.55.22-1.1.33-1.67l1.61.55,1.12-1.26,1.12,1.26,1.61-.55c.12.57.23,1.12.33,1.67l1.68.32-.56,1.6L30.58,25l-1.27,1.11.56,1.61L28.19,28c-.1.54-.21,1.1-.33,1.66l-1.61-.55-1.12,1.26C24.76,30,24.38,29.54,24,29.15Zm-2.83,3.36c.33-.43.63-.82,1-1.23l1.43-.48,1,1.12c.07.51.14,1,.22,1.54A8.63,8.63,0,0,0,21.18,32.51ZM20.54,32a8.33,8.33,0,0,0-2.63-2.62l1.45-.58,1.48.28.29,1.48L20.57,32Zm-3.95-6.64,1.55.22,1.14,1c-.18.49-.33.95-.5,1.41l-1.23,1A8.55,8.55,0,0,0,16.59,25.35Zm1-4.29,1.23,1c.17.46.32.92.5,1.41l-1.14,1-1.55.22A8.86,8.86,0,0,0,17.55,21.06Zm3-3.22.59,1.44-.29,1.48L19.36,21l-1.45-.58A8.43,8.43,0,0,0,20.54,17.84Zm4.22-1.32c-.08.54-.16,1-.23,1.54l-1,1.14-1.42-.49-1-1.22A8.7,8.7,0,0,0,24.76,16.52Zm4.3,1c-.33.42-.63.82-1,1.22l-1.42.49-1-1.14c-.07-.5-.14-1-.22-1.54A8.92,8.92,0,0,0,29.06,17.49Zm.64.35a8.35,8.35,0,0,0,2.64,2.62L30.88,21l-1.48-.28c-.1-.52-.19-1-.29-1.48Zm.52-1.62c-3.17-.45-2.07-.15-5.07-1.35-3,1.2-1.94.9-5.08,1.35-2,2.52-1.21,1.75-3.72,3.72-.46,3.19-.18,2.12-1.37,5A12.12,12.12,0,0,1,16.35,30c2.54,2,1.76,1.21,3.72,3.7,3.23.46,2.14.18,5.08,1.36,3-1.2,1.94-.91,5.07-1.36,2-2.52,1.22-1.74,3.73-3.7.47-3.2.19-2.13,1.37-5.05-1.21-3-.91-1.93-1.37-5C31.42,17.93,32.2,18.72,30.22,16.22Z"/><path class="cls-1" d="M34.17,8h.71a3.19,3.19,0,0,0,.33.83c-.05.51-.1,1-.15,1.55L34.09,9h.1v.62l-1.27-.5,1.27-.9Zm-1.05,3.22.63-.08,2.54,1.77c.12-1.33.27-2.86.42-4.41l-.94-1.8-2,.09L30.12,9.34l2.8,1.26.23.58Z"/><path class="cls-1" d="M16.09,42h-.72a2.78,2.78,0,0,0-.33-.86c.06-.51.11-1,.16-1.56l1,1.42h-.08v-.66l1.25.5-1.27.9Zm1-3.26-.64.09L14,37c-.12,1.34-.27,2.87-.41,4.41l.93,1.81,2-.1,3.62-2.56-2.81-1.26Z"/><path class="cls-1" d="M8.05,15.84v-.72l.63-.32,1.56.15-.7,1a.11.11,0,0,1,0,.08H9.47c-.16.36-.33.71-.5,1.09-.31-.44-.63-.86-.91-1.26Zm2.66,1.42.57-.23a3.68,3.68,0,0,0-.09-.63c.64-.87,1.24-1.72,1.79-2.53l-4.44-.41-1.81.93c0,.66.06,1.35.09,2L9.4,20c.39-.86.83-1.81,1.27-2.79Z"/><path class="cls-1" d="M8.68,35.22l-.63-.34v-.71c.29-.42.59-.83.9-1.26L9.45,34h.07a.14.14,0,0,1,0,.09c.23.3.46.63.7,1Zm2.64-2.3-.58-.23c-.45-1-.89-1.93-1.27-2.79L6.89,33.5l-.09,2,1.81.93L13.05,36l-1.79-2.53a6,6,0,0,0,.09-.63Z"/><path class="cls-1" d="M25.76,27.33a3.81,3.81,0,0,1-1.26,0,3.54,3.54,0,0,1-1.1-.63,3.73,3.73,0,0,1-.64-1.09,3.81,3.81,0,0,1,0-1.26,3.52,3.52,0,0,1,.64-1.09,3.54,3.54,0,0,1,1.1-.63,3.81,3.81,0,0,1,1.26,0,3.88,3.88,0,0,1,1.1.63,3.73,3.73,0,0,1,.64,1.09,3.81,3.81,0,0,1,0,1.26,3.52,3.52,0,0,1-.64,1.09A3.54,3.54,0,0,1,25.76,27.33ZM27.27,27l1.91.19-1.1-1.54,1.73-.77-1.72-.79,1.09-1.54-1.91.18c.06-.63.12-1.26.19-1.89L25.92,22l-.79-1.72L24.34,22,22.8,20.86,23,22.75l-1.9-.18,1.12,1.51-1.73.79,1.73.78-1.1,1.54L23,27c-.07.63-.13,1.26-.19,1.89l1.55-1.09.79,1.71L26,27.81l1.52,1.08c-.06-.63-.13-1.27-.18-1.9Z"/><path class="cls-1" d="M7.36,25,7.31,25c0,.39.08.78.12,1.19L6,25.6,5.62,25,6,24.37l1.42-.63c0,.41-.08.8-.12,1.18Zm1.42.48L9.17,25l-.39-.49c.1-1.07.2-2.11.29-3.06L5,23.27,3.93,25,5,26.69l4,1.84C9,27.58,8.88,26.54,8.78,25.47Z"/><path class="cls-1" d="M25.13,24.34a.63.63,0,1,0,.63.63A.63.63,0,0,0,25.13,24.34Z"/></g></g><g id="Слой_2-2" data-name="Слой 2"><path class="cls-1" d="M64.6,22.39c.18-.45.41-1,.68-1.66s.55-1.35.84-2.09.6-1.49.9-2.26.58-1.48.83-2.16.48-1.27.66-1.79l.39-1.14a3.38,3.38,0,0,0,.13-.42,1.55,1.55,0,0,0,0-.34.79.79,0,0,0,0-.25.42.42,0,0,0-.21-.21,1.59,1.59,0,0,0-.39-.07h-.37c-.15,0-.23,0-.23-.12s.15-.16.45-.16.8,0,1.19,0l.78,0h.21l.4,0,.48,0h.48c.22,0,.34,0,.34.14s-.08.14-.24.14l-.39,0a1.32,1.32,0,0,0-.58.21,1.42,1.42,0,0,0-.21.17,2.64,2.64,0,0,0-.24.32,4.49,4.49,0,0,0-.29.55q-.17.35-.36.84c-.06.15-.16.4-.31.74s-.32.77-.52,1.26-.42,1-.67,1.62l-.76,1.8C67,19,66.45,20.25,66,21.29s-.77,1.81-1,2.3l-.56,1.21c-.1.21-.19.31-.29.31s-.22-.09-.31-.26-.22-.5-.41-1L58.5,11.61a5.7,5.7,0,0,0-.31-.68,2.51,2.51,0,0,0-.31-.43,1.27,1.27,0,0,0-.36-.26l-.47-.17a2.13,2.13,0,0,0-.44-.07h-.32c-.11,0-.16,0-.16-.14s.17-.14.52-.14h.75l.7,0,.56,0H59l.73,0c.37,0,.76,0,1.15,0s.54,0,.54.14-.07.14-.2.14l-.4,0a1.58,1.58,0,0,0-.37.08.5.5,0,0,0-.21.19.63.63,0,0,0-.05.21,2,2,0,0,0,.16.64l.38,1Z"/><path class="cls-1" d="M76.3,19.89c0,.83,0,1.56,0,2.2s0,1.14.07,1.48a2.4,2.4,0,0,0,.14.61c.07.16.24.25.51.29a2.75,2.75,0,0,0,.44.06,2.71,2.71,0,0,0,.36,0,.13.13,0,0,1,.14.14c0,.1-.09.14-.28.14H77l-.71,0-.53,0h-.47l-.48,0-.55,0h-.48c-.19,0-.28,0-.28-.14a.12.12,0,0,1,.14-.14,1.32,1.32,0,0,0,.27,0,1.07,1.07,0,0,0,.27-.06.43.43,0,0,0,.34-.29,2.11,2.11,0,0,0,.12-.61c0-.34.07-.84.08-1.48s0-1.37,0-2.2v-5.6c0-.26,0-.47,0-.63a3,3,0,0,0,0-.43,1.57,1.57,0,0,0-.16-.65.56.56,0,0,0-.4-.27l-.3-.05h-.24c-.1,0-.14,0-.14-.14s.09-.14.28-.14h3.56c.19,0,.28,0,.28.14a.12.12,0,0,1-.14.14h-.2l-.24,0a.72.72,0,0,0-.48.28,2,2,0,0,0-.15.66c0,.14,0,.28,0,.43s0,.37,0,.63v5.6Z"/><path class="cls-1" d="M85.09,24.59a7.07,7.07,0,0,1-2.43-1.36A5.91,5.91,0,0,1,81.59,22a6,6,0,0,1-.66-1.28,6.14,6.14,0,0,1-.33-1.31,9.34,9.34,0,0,1-.09-1.26,6.47,6.47,0,0,1,.09-1A6.55,6.55,0,0,1,80.91,16a6.84,6.84,0,0,1,.61-1.25,6.76,6.76,0,0,1,1-1.21,6.67,6.67,0,0,1,.91-.71,6.38,6.38,0,0,1,1.17-.58,8.68,8.68,0,0,1,1.47-.39,11.21,11.21,0,0,1,1.84-.14c.35,0,.76,0,1.22,0s.92.09,1.35.15.65.13.94.17a6.42,6.42,0,0,0,.87.09c.15,0,.22.06.22.18a1.85,1.85,0,0,1,0,.3q0,.21-.06.66c0,.15,0,.31,0,.48s0,.35,0,.52,0,.31,0,.45,0,.24,0,.29c0,.24-.08.36-.2.36s-.14-.12-.14-.36a2.46,2.46,0,0,0-.2-1,2.06,2.06,0,0,0-.54-.74,3.85,3.85,0,0,0-1.38-.67,7.43,7.43,0,0,0-2.1-.27,10.7,10.7,0,0,0-1.49.1,6.83,6.83,0,0,0-1.12.27,4.61,4.61,0,0,0-.8.38,5.83,5.83,0,0,0-.58.43,4.27,4.27,0,0,0-1.28,2,9.38,9.38,0,0,0-.3,2.42,6,6,0,0,0,.46,2.34,5.86,5.86,0,0,0,1.31,2,6.13,6.13,0,0,0,2,1.35,6.37,6.37,0,0,0,2.59.5,8.25,8.25,0,0,0,1.7-.14,2.33,2.33,0,0,0,1.22-.66,2,2,0,0,0,.46-.73,3.94,3.94,0,0,0,.22-.69l.06-.19a.14.14,0,0,1,.12-.05.15.15,0,0,1,.11.07.26.26,0,0,1,0,.17,2.67,2.67,0,0,1,0,.31c0,.18-.06.39-.1.61s-.08.46-.14.69-.1.43-.14.57a.86.86,0,0,1-.15.32.72.72,0,0,1-.29.18,4.88,4.88,0,0,1-1.44.3c-.6.05-1.18.08-1.76.08A10.83,10.83,0,0,1,85.09,24.59Z"/><path class="cls-1" d="M100.52,19.89c0,.83,0,1.56,0,2.2s0,1.14.07,1.48a1.73,1.73,0,0,0,.16.61.64.64,0,0,0,.52.29,2.46,2.46,0,0,0,.44.06,2.85,2.85,0,0,0,.37,0,.13.13,0,0,1,.14.14c0,.1-.1.14-.28.14h-.74l-.68,0-.52,0H99.5l-.5,0-.58,0h-.5c-.18,0-.28,0-.28-.14s0-.12.14-.12a1.32,1.32,0,0,0,.27,0,1.1,1.1,0,0,0,.26-.06.51.51,0,0,0,.38-.3,2.19,2.19,0,0,0,.14-.62c0-.34.06-.84.07-1.48s0-1.37,0-2.2V12.75l-2.55,0a5.8,5.8,0,0,0-1.22.13,1,1,0,0,0-.57.41,2,2,0,0,0-.21.33,1,1,0,0,1-.08.21.17.17,0,0,1-.18.16L94,14a.14.14,0,0,1,0-.11,2.65,2.65,0,0,1,.06-.34c0-.18.09-.38.13-.59s.09-.4.13-.58a2.35,2.35,0,0,0,.06-.33c0-.05.06-.12.1-.2s.06-.12.09-.12a.73.73,0,0,1,.26.08,1.32,1.32,0,0,0,.52.12c.25,0,.52.05.8.06s.48,0,.59,0h6.68c.29,0,.54,0,.74,0a3.4,3.4,0,0,0,.52-.06l.32-.06.19,0s.08.07.08.2,0,.3,0,.5,0,.4,0,.59,0,.37,0,.53,0,.27,0,.32-.06.22-.17.22a.1.1,0,0,1-.09-.06,1.16,1.16,0,0,1-.05-.24l0-.18a.77.77,0,0,0-.12-.36.88.88,0,0,0-.33-.29,2.31,2.31,0,0,0-.64-.2c-.28,0-.62-.07-1-.09l-2.21,0Z"/><path class="cls-1" d="M107.33,16.18A6.58,6.58,0,0,1,108.59,14a6.84,6.84,0,0,1,2.19-1.64,7.12,7.12,0,0,1,3.16-.65,8.6,8.6,0,0,1,2.77.44,6.55,6.55,0,0,1,2.22,1.27,5.87,5.87,0,0,1,1.47,2,6.35,6.35,0,0,1,.53,2.66,7.11,7.11,0,0,1-.51,2.69,6.6,6.6,0,0,1-3.68,3.7,7.43,7.43,0,0,1-2.91.55,7.25,7.25,0,0,1-3.11-.61,6.22,6.22,0,0,1-3.4-3.74,7.18,7.18,0,0,1-.4-2.33A6.48,6.48,0,0,1,107.33,16.18Zm1.84,4.4a6,6,0,0,0,1.17,2,5.31,5.31,0,0,0,1.77,1.29,5.45,5.45,0,0,0,2.23.45,5.87,5.87,0,0,0,1.42-.21,4,4,0,0,0,1.56-.83,4.71,4.71,0,0,0,1.28-1.75,7.1,7.1,0,0,0,.52-3,7.71,7.71,0,0,0-.43-2.69,5.84,5.84,0,0,0-1.16-2,5,5,0,0,0-1.69-1.18,5.3,5.3,0,0,0-2-.4,5.91,5.91,0,0,0-2,.35,4.47,4.47,0,0,0-1.61,1,4.75,4.75,0,0,0-1.05,1.73,6.91,6.91,0,0,0-.38,2.42A8,8,0,0,0,109.17,20.58Z"/><path class="cls-1" d="M125.18,16.89v-2.6c0-.26,0-.47,0-.63l0-.43a1.86,1.86,0,0,0-.16-.66.73.73,0,0,0-.57-.28l-.29,0h-.31a.12.12,0,0,1-.14-.14c0-.09.09-.14.28-.14h4.31a12.81,12.81,0,0,1,1.72.13,3.81,3.81,0,0,1,1.58.61,4.47,4.47,0,0,1,.37.33,3.12,3.12,0,0,1,.4.51,3.45,3.45,0,0,1,.32.67,2.37,2.37,0,0,1,.13.81,4.26,4.26,0,0,1-.47,1.89,6.56,6.56,0,0,1-1.7,2c.72.91,1.39,1.74,2,2.48s1.18,1.39,1.69,1.92a4.37,4.37,0,0,0,1.17.93,2.57,2.57,0,0,0,.8.25,2.83,2.83,0,0,0,.4.05h.23c.1,0,.16.05.16.14s0,.09-.09.11a1.24,1.24,0,0,1-.34,0h-1.1a5.72,5.72,0,0,1-1.16-.08,2.65,2.65,0,0,1-.73-.26,3.73,3.73,0,0,1-1.12-.92c-.35-.41-.79-.94-1.3-1.58l-.56-.71c-.19-.24-.37-.48-.53-.7l-.47-.61c-.14-.18-.25-.34-.35-.46a.35.35,0,0,0-.24-.1l-2.25,0c-.08,0-.12.05-.12.14v.4c0,.83,0,1.56,0,2.19a13,13,0,0,0,.07,1.47,1.38,1.38,0,0,0,.17.61.66.66,0,0,0,.53.29,2.35,2.35,0,0,0,.42.06,2.93,2.93,0,0,0,.37,0,.13.13,0,0,1,.14.14c0,.1-.1.14-.28.14h-.74l-.68,0-.53,0H126l-.67,0-.57,0h-.51c-.18,0-.28,0-.28-.14a.13.13,0,0,1,.14-.14,1.32,1.32,0,0,0,.27,0,1.15,1.15,0,0,0,.28-.06.41.41,0,0,0,.33-.29,5.57,5.57,0,0,0,.13-.61,12.33,12.33,0,0,0,.09-1.48c0-.64,0-1.37,0-2.2Zm1.53,1.44a.24.24,0,0,0,.12.22.87.87,0,0,0,.3.1,4.13,4.13,0,0,0,.47.08,4.93,4.93,0,0,0,.58.06c.2,0,.4,0,.6,0a5,5,0,0,0,.66,0,1.4,1.4,0,0,0,.67-.26,2.16,2.16,0,0,0,.76-1,3.94,3.94,0,0,0,.3-1.64,3.5,3.5,0,0,0-.81-2.47,2.92,2.92,0,0,0-2.24-.87c-.27,0-.53,0-.77,0a3.89,3.89,0,0,0-.5.07c-.1.06-.14.12-.14.2Z"/><path class="cls-1" d="M140.3,19.89c0,.83,0,1.56,0,2.2s0,1.14.07,1.48a2,2,0,0,0,.15.61c.06.16.23.25.5.29a2.75,2.75,0,0,0,.44.06,2.71,2.71,0,0,0,.36,0,.12.12,0,0,1,.14.14c0,.1-.09.14-.28.14H141l-.71,0-.53,0h-.47l-.47,0-.56,0h-.48c-.19,0-.28,0-.28-.14a.13.13,0,0,1,.14-.14,1.32,1.32,0,0,0,.27,0,1.07,1.07,0,0,0,.27-.06.41.41,0,0,0,.34-.29,2.45,2.45,0,0,0,.13-.61c0-.34.06-.84.08-1.48s0-1.37,0-2.2v-5.6c0-.26,0-.47,0-.63l0-.43a1.72,1.72,0,0,0-.17-.65.56.56,0,0,0-.4-.27l-.3-.05h-.24a.12.12,0,0,1-.14-.14c0-.09.09-.14.28-.14h3.56c.19,0,.28,0,.28.14a.12.12,0,0,1-.14.14h-.2l-.24,0a.69.69,0,0,0-.47.28,1.6,1.6,0,0,0-.15.66c0,.14,0,.28,0,.43s0,.37,0,.63v5.6Z"/><path class="cls-1" d="M149.22,12.31a2.45,2.45,0,0,1,.24-.54.21.21,0,0,1,.18-.12c.09,0,.16.06.21.17s.12.27.21.45l.35.84.66,1.59.83,2q.45,1.11.9,2.19l.83,2.05c.26.65.49,1.19.67,1.61a6,6,0,0,0,.46.92,2.91,2.91,0,0,0,.4.54,1.15,1.15,0,0,0,.35.28,1.17,1.17,0,0,0,.3.12,2.45,2.45,0,0,0,.71.1.4.4,0,0,1,.15,0,.12.12,0,0,1,.07.11c0,.06,0,.09-.12.11a1.2,1.2,0,0,1-.28,0h-1.89l-.91,0-.44,0q-.18,0-.18-.09s0-.06,0-.07a.21.21,0,0,0,.09-.05.5.5,0,0,0,.17-.14c.06-.06,0-.17,0-.32l-1.59-3.9a.2.2,0,0,0-.16-.1h-4.09a.2.2,0,0,0-.18.14l-1,2.72a3.23,3.23,0,0,0-.26,1.14.35.35,0,0,0,.19.36.8.8,0,0,0,.41.1h.16c.12,0,.18.05.18.14s-.09.14-.26.14h-.4l-.49,0-.43,0h-.52l-.44,0-.55,0h-.55c-.23,0-.34,0-.34-.14s.05-.14.16-.14h.26a.88.88,0,0,0,.26,0,1.3,1.3,0,0,0,.92-.5,4.54,4.54,0,0,0,.57-1.06Zm2,7.08q.08,0,.06-.12l-1.75-4.66c-.11-.25-.21-.25-.31,0l-1.64,4.66q0,.12.06.12Z"/><path class="cls-1" d="M169,24.57A8,8,0,0,1,166.21,23a7.09,7.09,0,0,1-1.2-1.4,7.58,7.58,0,0,1-1.12-3,9.6,9.6,0,0,1-.11-1.49,7.68,7.68,0,0,1,.1-1.17,7.35,7.35,0,0,1,.35-1.4,8.87,8.87,0,0,1,.69-1.48A7.32,7.32,0,0,1,166,11.57a7.49,7.49,0,0,1,1-.84,6.54,6.54,0,0,1,1.32-.68,11.32,11.32,0,0,1,1.68-.45,12.23,12.23,0,0,1,2.1-.17c.41,0,.87,0,1.39.05a15.22,15.22,0,0,1,1.53.19l1.08.18a8.28,8.28,0,0,0,1,.12.45.45,0,0,1,.21.07.2.2,0,0,1,0,.15,2.88,2.88,0,0,1,0,.35c0,.16,0,.41-.07.77,0,.16,0,.35,0,.55s0,.41,0,.61,0,.38,0,.54,0,.28,0,.36q0,.42-.18.42c-.11,0-.16-.14-.16-.42a3.08,3.08,0,0,0-.22-1.14,2.37,2.37,0,0,0-.62-.9,4.71,4.71,0,0,0-1.61-.8,8.32,8.32,0,0,0-2.42-.34,11.08,11.08,0,0,0-1.75.13,7.27,7.27,0,0,0-1.29.34,4.84,4.84,0,0,0-.94.47,5.3,5.3,0,0,0-.64.52A5.08,5.08,0,0,0,165.94,14a10.81,10.81,0,0,0-.35,2.85,7.4,7.4,0,0,0,2,5.09,7.11,7.11,0,0,0,5.24,2.23,9.37,9.37,0,0,0,2-.19,2.78,2.78,0,0,0,1.48-.81,2.44,2.44,0,0,0,.51-.87,3.72,3.72,0,0,0,.23-.81c0-.2.11-.3.2-.3s.09,0,.11.09a.66.66,0,0,1,0,.21,3.27,3.27,0,0,1,0,.37c0,.21-.06.45-.1.71s-.08.54-.14.81a6.11,6.11,0,0,1-.16.67,1.17,1.17,0,0,1-.17.37,1,1,0,0,1-.35.21,4.34,4.34,0,0,1-.73.21,7.73,7.73,0,0,1-.9.14l-1,.08-1,0A12,12,0,0,1,169,24.57Z"/><path class="cls-1" d="M184.49,12.31a4.11,4.11,0,0,1,.24-.54.24.24,0,0,1,.19-.12c.09,0,.16.06.21.17a2.8,2.8,0,0,0,.21.45l.35.84.65,1.59q.39.93.84,2l.89,2.19c.3.72.58,1.41.84,2.05s.49,1.19.67,1.61a6,6,0,0,0,.46.92,2.91,2.91,0,0,0,.4.54,1,1,0,0,0,.35.28,1.17,1.17,0,0,0,.3.12,1.84,1.84,0,0,0,.38.08,1.94,1.94,0,0,0,.33,0,.4.4,0,0,1,.15,0,.12.12,0,0,1,.07.11c0,.06,0,.09-.12.11a1.23,1.23,0,0,1-.29,0h-1.88l-.91,0-.44,0c-.13,0-.19,0-.19-.09s0-.06,0-.07a.21.21,0,0,0,.09-.05.5.5,0,0,0,.17-.14c.06-.06,0-.17,0-.32l-1.59-3.9a.2.2,0,0,0-.16-.1h-4.09a.2.2,0,0,0-.18.14l-1,2.72a3.23,3.23,0,0,0-.26,1.14.35.35,0,0,0,.19.36.8.8,0,0,0,.41.1H182c.12,0,.18.05.18.14s-.09.14-.26.14h-.4l-.49,0-.43,0H180l-.44,0-.55,0h-.55c-.23,0-.34,0-.34-.14s.05-.14.16-.14h.26a.93.93,0,0,0,.26,0,1.3,1.3,0,0,0,.92-.5,5,5,0,0,0,.57-1.06Zm2,7.08q.08,0,.06-.12l-1.75-4.66c-.11-.25-.21-.25-.31,0l-1.65,4.66q0,.12.06.12Z"/><path class="cls-1" d="M198.21,19.89c0,.83,0,1.56,0,2.2s0,1.14.07,1.48a1.73,1.73,0,0,0,.16.61.65.65,0,0,0,.53.29,2.34,2.34,0,0,0,.43.06,2.93,2.93,0,0,0,.37,0,.13.13,0,0,1,.14.14c0,.1-.09.14-.28.14h-.73l-.69,0-.52,0h-.5l-.51,0-.58,0h-.49c-.19,0-.28,0-.28-.14s0-.12.14-.12a1.23,1.23,0,0,0,.26,0,1.1,1.1,0,0,0,.26-.06.49.49,0,0,0,.38-.3,2.19,2.19,0,0,0,.14-.62,13.22,13.22,0,0,0,.07-1.48c0-.64,0-1.37,0-2.2V12.75l-2.55,0a5.8,5.8,0,0,0-1.22.13,1,1,0,0,0-.57.41,1.34,1.34,0,0,0-.2.33l-.08.21a.18.18,0,0,1-.19.16l-.08,0a.14.14,0,0,1,0-.11,2.65,2.65,0,0,1,.06-.34c0-.18.09-.38.14-.59s.09-.4.13-.58a2.35,2.35,0,0,0,.06-.33l.09-.2q0-.12.09-.12a.73.73,0,0,1,.26.08,1.37,1.37,0,0,0,.52.12c.26,0,.52.05.81.06s.47,0,.58,0h6.68c.29,0,.54,0,.74,0a3.4,3.4,0,0,0,.52-.06l.33-.06.18,0s.08.07.08.2,0,.3,0,.5,0,.4,0,.59,0,.37,0,.53,0,.27,0,.32-.06.22-.16.22a.1.1,0,0,1-.09-.06.73.73,0,0,1,0-.24l0-.18a.92.92,0,0,0-.13-.36.88.88,0,0,0-.33-.29,2.31,2.31,0,0,0-.64-.2c-.28,0-.62-.07-1-.09l-2.21,0Z"/><path class="cls-1" d="M206.62,16.89v-2.6c0-.26,0-.47,0-.63l0-.43a1.86,1.86,0,0,0-.16-.66.73.73,0,0,0-.57-.28l-.29,0h-.31a.12.12,0,0,1-.14-.14c0-.09.09-.14.28-.14h6.28l.48,0,.32-.05.12-.05a.27.27,0,0,1,.12,0c.06,0,.08.06.08.16a.78.78,0,0,1,0,.27,4.67,4.67,0,0,0-.09.53,2,2,0,0,1,0,.21,2,2,0,0,1,0,.33c0,.12,0,.24,0,.34a1.09,1.09,0,0,1,0,.24.34.34,0,0,1-.06.12.12.12,0,0,1-.1.06c-.09,0-.14-.07-.14-.22s0-.15,0-.27a1.32,1.32,0,0,0-.08-.33.87.87,0,0,0-.11-.18.7.7,0,0,0-.21-.14l-.36-.11-.59-.09-.5,0-.81,0h-1.24c-.07,0-.1.06-.1.18v4.62c0,.12,0,.18.1.18h2.35a3.77,3.77,0,0,0,.6,0l.53-.07a.56.56,0,0,0,.34-.17c.15-.14.23-.22.26-.22s.1,0,.1.14a1.8,1.8,0,0,1,0,.3c0,.15-.06.36-.09.64a5.2,5.2,0,0,0-.06.63c0,.25,0,.41,0,.47a.76.76,0,0,1,0,.21c0,.08-.06.11-.13.11s-.12-.05-.12-.16a2.44,2.44,0,0,0,0-.26,1.28,1.28,0,0,0-.07-.3.64.64,0,0,0-.21-.32,1.54,1.54,0,0,0-.7-.2l-.58,0-.82,0h-1.27a.11.11,0,0,0-.12.12v4.32a2.53,2.53,0,0,0,.1.69.73.73,0,0,0,.31.42,1.42,1.42,0,0,0,.63.2,7.88,7.88,0,0,0,1.07,0c.23,0,.52,0,.88,0a2.4,2.4,0,0,0,.89-.16,1.3,1.3,0,0,0,.53-.41,1.6,1.6,0,0,0,.27-.77c0-.17.1-.26.18-.26a.11.11,0,0,1,.11.08,1.1,1.1,0,0,1,0,.18s0,.11,0,.25,0,.3-.06.48-.06.36-.09.52a2,2,0,0,1-.08.39.53.53,0,0,1-.11.25.31.31,0,0,1-.17.13.62.62,0,0,1-.27.05H212c-.67,0-1.26,0-1.77,0l-1.31,0c-.37,0-.68,0-.92,0h-.81l-.5,0-.53,0h-.5c-.19,0-.28,0-.28-.14a.13.13,0,0,1,.14-.14l.27,0,.27-.05a.37.37,0,0,0,.34-.28c0-.16.09-.36.13-.62a12.33,12.33,0,0,0,.09-1.48c0-.64,0-1.37,0-2.2Z"/><path class="cls-1" d="M217.7,16.89v-2.6c0-.26,0-.47,0-.63l0-.43a1.86,1.86,0,0,0-.16-.66.73.73,0,0,0-.56-.28l-.3,0h-.31a.12.12,0,0,1-.14-.14c0-.09.1-.14.28-.14h4.31a12.81,12.81,0,0,1,1.72.13,3.81,3.81,0,0,1,1.58.61,4.47,4.47,0,0,1,.37.33,3.12,3.12,0,0,1,.4.51,3,3,0,0,1,.32.67,2.37,2.37,0,0,1,.13.81,4.13,4.13,0,0,1-.47,1.89,6.42,6.42,0,0,1-1.7,2c.73.91,1.4,1.74,2,2.48s1.18,1.39,1.69,1.92a4.37,4.37,0,0,0,1.17.93,2.66,2.66,0,0,0,.8.25,2.77,2.77,0,0,0,.41.05h.22c.1,0,.16.05.16.14s0,.09-.09.11a1.21,1.21,0,0,1-.33,0h-1.11a5.72,5.72,0,0,1-1.16-.08,2.65,2.65,0,0,1-.73-.26,3.73,3.73,0,0,1-1.12-.92c-.35-.41-.79-.94-1.3-1.58l-.56-.71c-.19-.24-.36-.48-.53-.7L222.2,20c-.15-.18-.26-.34-.36-.46a.33.33,0,0,0-.24-.1l-2.25,0c-.08,0-.12.05-.12.14v.4c0,.83,0,1.56,0,2.19s0,1.13.07,1.47a1.53,1.53,0,0,0,.17.61.66.66,0,0,0,.53.29,2.47,2.47,0,0,0,.43.06,2.71,2.71,0,0,0,.36,0,.13.13,0,0,1,.14.14c0,.1-.1.14-.28.14h-.74l-.68,0-.52,0h-.24l-.67,0-.57,0h-.51c-.18,0-.28,0-.28-.14a.13.13,0,0,1,.14-.14,1.42,1.42,0,0,0,.28,0,1.07,1.07,0,0,0,.27-.06.41.41,0,0,0,.33-.29,3.91,3.91,0,0,0,.13-.61,12.33,12.33,0,0,0,.09-1.48c0-.64,0-1.37,0-2.2Zm1.53,1.44a.24.24,0,0,0,.12.22.87.87,0,0,0,.3.1,4.56,4.56,0,0,0,.47.08,5.42,5.42,0,0,0,.58.06c.2,0,.4,0,.6,0a4.87,4.87,0,0,0,.66,0,1.4,1.4,0,0,0,.67-.26,2.16,2.16,0,0,0,.76-1,3.94,3.94,0,0,0,.3-1.64,3.5,3.5,0,0,0-.81-2.47,2.92,2.92,0,0,0-2.24-.87c-.27,0-.53,0-.77,0a3.89,3.89,0,0,0-.5.07c-.09.06-.14.12-.14.2Z"/><path class="cls-1" d="M232.83,19.89c0,.83,0,1.56,0,2.2a13.22,13.22,0,0,0,.07,1.48,1.77,1.77,0,0,0,.14.61c.06.16.23.25.5.29a2.75,2.75,0,0,0,.44.06,2.71,2.71,0,0,0,.36,0c.1,0,.15.05.15.14s-.1.14-.29.14h-.74l-.71,0-.53,0h-.47l-.47,0-.56,0h-.48c-.19,0-.28,0-.28-.14a.13.13,0,0,1,.14-.14,1.32,1.32,0,0,0,.27,0,1.07,1.07,0,0,0,.27-.06.44.44,0,0,0,.35-.29,3.11,3.11,0,0,0,.12-.61c0-.34.06-.84.08-1.48s0-1.37,0-2.2v-5.6c0-.26,0-.47,0-.63l0-.43a1.75,1.75,0,0,0-.16-.65.58.58,0,0,0-.41-.27l-.3-.05h-.24a.12.12,0,0,1-.14-.14c0-.09.09-.14.28-.14h3.56c.19,0,.28,0,.28.14s0,.14-.14.14h-.2l-.24,0a.69.69,0,0,0-.47.28,1.6,1.6,0,0,0-.15.66c0,.14,0,.28,0,.43s0,.37,0,.63v5.6Z"/><path class="cls-1" d="M239.79,22.51q0,.52.06.87A2,2,0,0,0,240,24a.73.73,0,0,0,.2.34.54.54,0,0,0,.3.15,2.74,2.74,0,0,0,.5.08,3.15,3.15,0,0,0,.38,0c.1,0,.15.05.15.14s-.11.14-.33.14c-.51,0-.93,0-1.25,0l-.62,0-.61,0c-.33,0-.7,0-1.1,0-.19,0-.28,0-.28-.14a.13.13,0,0,1,.14-.14,2,2,0,0,0,.31,0,2.07,2.07,0,0,0,.42-.08.48.48,0,0,0,.26-.16,1,1,0,0,0,.15-.36,4.28,4.28,0,0,0,.07-.63c0-.26,0-.58,0-1V12.59a2.12,2.12,0,0,1,.07-.69c.05-.11.1-.17.17-.17a.56.56,0,0,1,.35.19l.33.33.61.63c.33.36.75.8,1.26,1.33L243.2,16c.65.67,1.31,1.35,2,2,.44.46.88.91,1.31,1.37l1.23,1.29,1,1.06c.28.31.5.53.63.66l-.18-8.52a4.13,4.13,0,0,0-.14-1.16.67.67,0,0,0-.53-.42l-.5-.06-.36,0q-.1,0-.12-.06a.44.44,0,0,1,0-.1c0-.08.11-.12.34-.12L249,12l.7,0c.11,0,.3,0,.57,0l.94,0c.22,0,.32,0,.32.12a.14.14,0,0,1-.05.1.18.18,0,0,1-.15.06h-.16a1.66,1.66,0,0,0-.26,0,.83.83,0,0,0-.34.14.64.64,0,0,0-.18.27,1.65,1.65,0,0,0-.08.43,5.85,5.85,0,0,0,0,.64l0,10c0,.28,0,.5,0,.66s0,.29,0,.37a.29.29,0,0,1-.05.16.09.09,0,0,1-.07,0,.3.3,0,0,1-.14,0,1.05,1.05,0,0,1-.23-.15,3.49,3.49,0,0,1-.38-.31c-.15-.13-.35-.31-.59-.54l-.54-.51c-.31-.3-.69-.67-1.13-1.12s-.93-.93-1.45-1.46l-1.49-1.51-1.5-1.57-1.36-1.42-1.07-1.13-.66-.7Z"/><path class="cls-1" d="M264.12,20.49c0-.34,0-.62,0-.83a1.53,1.53,0,0,0-.09-.49.45.45,0,0,0-.23-.26,2.28,2.28,0,0,0-.42-.14l-.29,0h-.31c-.1,0-.15,0-.15-.14s.1-.14.29-.14h3.82c.19,0,.28.05.28.14a.12.12,0,0,1-.14.14h-.2a1.48,1.48,0,0,0-.24,0,.7.7,0,0,0-.5.27,1.79,1.79,0,0,0-.17.67c0,.27,0,.54,0,.82v2.84a3.19,3.19,0,0,1,0,.71.32.32,0,0,1-.2.21,4.54,4.54,0,0,1-.91.36,8.52,8.52,0,0,1-1,.23c-.33.06-.66.1-1,.13s-.62,0-.87,0-.73,0-1.2-.05a8.56,8.56,0,0,1-1.48-.24,8.84,8.84,0,0,1-1.59-.55,6.17,6.17,0,0,1-1.56-1,5,5,0,0,1-.79-.84,5.83,5.83,0,0,1-.67-1.12,6.7,6.7,0,0,1-.47-1.35,6.29,6.29,0,0,1-.19-1.53A7.08,7.08,0,0,1,254,16.5a6.7,6.7,0,0,1,.64-1.57,5.77,5.77,0,0,1,1-1.23,6.53,6.53,0,0,1,1.12-.89,6.64,6.64,0,0,1,2.45-.9,15.66,15.66,0,0,1,2.26-.18l.85,0,.81.08.65.1.4.07.69.12a5,5,0,0,0,.74.06c.15,0,.22.06.22.16a1.06,1.06,0,0,1,0,.24c0,.1,0,.23,0,.41s0,.41,0,.69,0,.64,0,1.06c0,.15,0,.25,0,.29a.16.16,0,0,1-.15.07c-.08,0-.12-.08-.12-.26s-.05-.27-.1-.49a1.66,1.66,0,0,0-.3-.63,3.14,3.14,0,0,0-1.35-.9,7.26,7.26,0,0,0-2.74-.42,10.21,10.21,0,0,0-1.74.17,4.91,4.91,0,0,0-2,.93A4.26,4.26,0,0,0,256,15.19a6.31,6.31,0,0,0-.5,2.6,6.31,6.31,0,0,0,.21,1.67,6.64,6.64,0,0,0,.49,1.37,6,6,0,0,0,.61,1,4.34,4.34,0,0,0,.57.64,6.23,6.23,0,0,0,2.18,1.38,6.77,6.77,0,0,0,2.34.4,9.55,9.55,0,0,0,1-.06,2.18,2.18,0,0,0,.89-.26,1.17,1.17,0,0,0,.26-.19.42.42,0,0,0,.1-.33Z"/><path class="cls-1" d="M97.82,40V31.42h3.78a2.68,2.68,0,0,1,2,.67,2.88,2.88,0,0,1,0,3.73,2.62,2.62,0,0,1-2,.66H99V40ZM99,32.38v3.14h2.24c1.26,0,1.88-.51,1.88-1.57s-.62-1.57-1.88-1.57Z"/><path class="cls-1" d="M110,40V31.42h6v1h-4.8V35.1h4.48v1h-4.48v3H116v1Z"/><path class="cls-1" d="M121.7,40V31.42h3a4.29,4.29,0,0,1,3.08,1,4.09,4.09,0,0,1,1.06,3.06q0,4.48-4.14,4.49Zm1.15-7.61V39h1.91a6,6,0,0,0,.61,0,3.25,3.25,0,0,0,.74-.24,2.44,2.44,0,0,0,.76-.54,2.83,2.83,0,0,0,.55-1,4.84,4.84,0,0,0,.23-1.56,3.83,3.83,0,0,0-.67-2.45,2.7,2.7,0,0,0-2.2-.83Z"/><path class="cls-1" d="M133.52,40l3.36-8.57h1.27L141.52,40h-1.27l-.94-2.58h-3.65l-1,2.58Zm4-7.54-1.46,4H139l-1.44-4Z"/><path class="cls-1" d="M146.7,40V31.42h1.21l4.54,6.95h0V31.42h1.08V40h-1.25l-4.5-6.88h0V40Z"/><path class="cls-1" d="M174.21,40l-.3-1.07a2.91,2.91,0,0,1-1.21.95,3.81,3.81,0,0,1-1.55.32,3.75,3.75,0,0,1-3-1.28,4.44,4.44,0,0,1-1.13-3,5.13,5.13,0,0,1,1.08-3.32,3.65,3.65,0,0,1,3-1.33,4.2,4.2,0,0,1,2.48.7,3.07,3.07,0,0,1,1.22,2.14H173.7a2.08,2.08,0,0,0-.86-1.41,3.22,3.22,0,0,0-3-.17,2.49,2.49,0,0,0-.93.83,4.07,4.07,0,0,0-.52,1.16,5.29,5.29,0,0,0-.17,1.34,3.76,3.76,0,0,0,.79,2.42,2.61,2.61,0,0,0,2.17,1,2.7,2.7,0,0,0,2.06-.8,2.55,2.55,0,0,0,.7-2h-2.75v-1h3.77V40Z"/><path class="cls-1" d="M181,40V31.42H185a2.82,2.82,0,0,1,1.92.61,2,2,0,0,1,.7,1.63,2.51,2.51,0,0,1-.37,1.39,1.86,1.86,0,0,1-1.12.79v0a1.34,1.34,0,0,1,.95.58,2.8,2.8,0,0,1,.34,1.18c0,.07,0,.27,0,.61s0,.57.06.7a3.53,3.53,0,0,0,.13.52,1.7,1.7,0,0,0,.27.54h-1.28a1,1,0,0,1-.18-.49c0-.22,0-.49,0-.81a5.25,5.25,0,0,0-.08-.81,3.45,3.45,0,0,0-.12-.61,2,2,0,0,0-.22-.47.93.93,0,0,0-.42-.36,1.92,1.92,0,0,0-.67-.11h-2.8V40Zm1.15-4.62h2.39A2.79,2.79,0,0,0,186,35a1.31,1.31,0,0,0,.53-1.2,1.5,1.5,0,0,0-.38-1.06,1.53,1.53,0,0,0-1.16-.4h-2.84Z"/><path class="cls-1" d="M193.54,37.9a5.7,5.7,0,0,1,0-4.39A3.93,3.93,0,0,1,195,31.86a4.36,4.36,0,0,1,4.55,0,3.93,3.93,0,0,1,1.41,1.65,5.7,5.7,0,0,1,0,4.39,4.08,4.08,0,0,1-7.37,0Zm1-3.88a4.6,4.6,0,0,0-.3,1.68,4.66,4.66,0,0,0,.3,1.69,3,3,0,0,0,1,1.31,3,3,0,0,0,3.39,0,3,3,0,0,0,1-1.31,4.66,4.66,0,0,0,.3-1.69,4.6,4.6,0,0,0-.3-1.68,3,3,0,0,0-1-1.31,3,3,0,0,0-3.39,0A3,3,0,0,0,194.54,34Z"/><path class="cls-1" d="M214,31.42v5.47a3.3,3.3,0,0,1-.88,2.46,3.51,3.51,0,0,1-2.51.84,3.83,3.83,0,0,1-2.63-.81,3.18,3.18,0,0,1-.91-2.49V31.42h1.15v5.47a2.32,2.32,0,0,0,.62,1.74,2.43,2.43,0,0,0,1.77.6,2.21,2.21,0,0,0,1.66-.6,2.42,2.42,0,0,0,.58-1.74V31.42Z"/><path class="cls-1" d="M220.16,40V31.42h3.77a2.65,2.65,0,0,1,2,.67,2.87,2.87,0,0,1,0,3.73,2.63,2.63,0,0,1-2,.66H221.3V40Zm1.14-7.61v3.14h2.25c1.25,0,1.88-.51,1.88-1.57s-.63-1.57-1.88-1.57Z"/></g></g></svg>