<svg id="Слой_1" data-name="Слой 1" xmlns="http://www.w3.org/2000/svg" viewBox="0 0 283.46 133.39"><defs><style>.cls-1{fill:#fff;}</style></defs><title>logo</title><path class="cls-1" d="M-85.71,76.29A10.72,10.72,0,0,1-86.45,74a.54.54,0,0,1,.35-.55,3.25,3.25,0,0,1,1-.14c.19,0,.27,0,.27-.19s-.24-.19-.74-.19c-1,0-2.28.08-2.55.08s-1.9-.08-3.22-.08c-.44,0-.71,0-.71.19s0,.19.22.19a4.25,4.25,0,0,1,1,.11c1,.27,1.38.58,2,2.11L-82,92.38c.52,1.32.66,1.7,1,1.7s.38-.44,1.15-2.09c.63-1.34,1.87-4.31,3.54-8.32,1.4-3.37,2.78-6.67,3.08-7.44.74-1.87,1.15-2.33,1.51-2.58a2.49,2.49,0,0,1,1.32-.33c.22,0,.33,0,.33-.19s-.17-.19-.47-.19c-.8,0-2,.08-2.14.08-.33,0-1.59-.08-2.69-.08-.44,0-.61,0-.61.22s.14.16.31.16a3.45,3.45,0,0,1,1,.11.69.69,0,0,1,.36.63,4,4,0,0,1-.25,1c-.61,2-4.29,11.56-5.88,15.24l-5.27-14.06Zm21.25,6.51c0-3.63,0-4.29,0-5s.19-1.15.85-1.29a2.52,2.52,0,0,1,.61-.06.23.23,0,0,0,.19-.19c0-.14-.11-.19-.38-.19-.75,0-2.31,0-2.42,0s-1.65,0-2.45,0c-.27,0-.38,0-.38.19a.2.2,0,0,0,.19.19,3.86,3.86,0,0,1,.74.09c.53.11.72.46.77,1.26s.06,1.4.06,5v4.11c0,2.26,0,4.1-.14,5.06-.08.68-.16,1.12-.63,1.23a3.15,3.15,0,0,1-.74.11.19.19,0,0,0-.2.19c0,.14.14.2.39.2.74,0,2.25-.09,2.39-.09s1.67.09,3,.09c.27,0,.38-.09.38-.2a.18.18,0,0,0-.19-.19,8.82,8.82,0,0,1-1.1-.11c-.71-.11-.79-.55-.88-1.23-.11-1-.11-2.8-.11-5.06V82.8ZM-48.2,94a14.45,14.45,0,0,0,4.37-.52c.41-.17.47-.25.6-.69a24.36,24.36,0,0,0,.58-3c0-.17-.11-.33-.22-.33s-.19.08-.25.33a4.32,4.32,0,0,1-.93,2c-1,1-2.17,1.1-4,1.1a8.49,8.49,0,0,1-8.71-8.46c0-2.36.39-4.45,2.17-6.1.85-.8,2.34-1.62,5.44-1.62A7.89,7.89,0,0,1-44.38,78a3.07,3.07,0,0,1,1,2.34c0,.33,0,.49.19.49s.24-.14.27-.49,0-1.62.06-2.39.11-1.13.11-1.32-.06-.25-.31-.25A17.12,17.12,0,0,1-45.51,76,23.91,23.91,0,0,0-49,75.71c-3.71,0-5.91,1.1-7.36,2.5a9.23,9.23,0,0,0-2.72,6.37,8.77,8.77,0,0,0,2.94,6.92c1.89,1.65,4.34,2.5,8,2.5Zm16.42-16.89,3,.06c2.3,0,2.82.57,2.91,1.29l0,.24c0,.33.09.42.2.42s.22-.12.22-.31.08-2,.08-2.66c0-.14,0-.28-.11-.28s-.33.06-.69.11a11.17,11.17,0,0,1-1.72.11H-37A17.75,17.75,0,0,1-38.86,76a8,8,0,0,1-1.07-.27c-.08,0-.19.3-.25.44s-.52,2.28-.52,2.53a.19.19,0,0,0,.16.19c.11,0,.2,0,.25-.22a3.33,3.33,0,0,1,.39-.74c.35-.55.93-.72,2.44-.74l3.49-.06v9.8c0,2.26,0,4.1-.11,5.06-.09.68-.22,1.15-.72,1.26a2.91,2.91,0,0,1-.71.11c-.14,0-.19.08-.19.16s.11.2.38.2c.72,0,2.39-.09,2.5-.09s1.67.09,3,.09c.27,0,.38-.09.38-.2a.17.17,0,0,0-.19-.19,8.31,8.31,0,0,1-1.1-.11c-.73-.11-.84-.55-.93-1.23-.11-1-.11-2.8-.11-5.06v-9.8Zm8.11,7.72c0,4.2,2.82,9.17,9.44,9.17a9.36,9.36,0,0,0,9.7-9.53c0-5.44-4.12-8.76-9.56-8.76a9.24,9.24,0,0,0-9.58,9.12Zm2.49-.63c0-5.08,2.92-7.61,7-7.61,3.82,0,7.22,2.94,7.22,8.54C-7,91.88-11.37,93-13.54,93c-4.37,0-7.64-3.41-7.64-8.84ZM.52,86.91A46.8,46.8,0,0,1,.38,92c-.11.68-.16,1.12-.63,1.23a3.15,3.15,0,0,1-.74.11.18.18,0,0,0-.19.19c0,.14.13.2.38.2.74,0,2.36-.09,2.39-.09s1.65.09,3,.09c.27,0,.38-.09.38-.2a.17.17,0,0,0-.19-.19,7.92,7.92,0,0,1-1.07-.11c-.74-.11-.88-.55-1-1.23-.11-1-.11-2.78-.11-5v-.55c0-.13.05-.19.16-.19l3.08.06a.37.37,0,0,1,.33.13c.52.63,1.59,2.14,2.61,3.41,1.37,1.76,2.25,2.88,3.29,3.43a4.87,4.87,0,0,0,2.58.47h1.51c.44,0,.58-.06.58-.2a.21.21,0,0,0-.22-.19,4.56,4.56,0,0,1-.85-.08A4.38,4.38,0,0,1,13,91.61c-1.4-1.46-3.08-3.57-5.06-6,2.26-1.92,3-3.6,3-5.33a4.08,4.08,0,0,0-1.67-3.18,7.94,7.94,0,0,0-4.51-1c-.74,0-2.77,0-3,0s-1.76,0-2.86,0c-.27,0-.38,0-.38.19a.23.23,0,0,0,.19.19,7.36,7.36,0,0,1,.83.06c.79.11.93.49,1,1.29s.06,1.4.06,5v4.11Zm2.09-9.64A.3.3,0,0,1,2.8,77a11,11,0,0,1,1.73-.14c2.58,0,4.17,1.68,4.17,4.59A4.18,4.18,0,0,1,7.25,85a3.18,3.18,0,0,1-1.81.41,8,8,0,0,1-2.67-.36.33.33,0,0,1-.16-.3v-7.5ZM21.17,82.8c0-3.63,0-4.29,0-5s.19-1.15.85-1.29a2.44,2.44,0,0,1,.6-.06.23.23,0,0,0,.2-.19c0-.14-.11-.19-.39-.19-.74,0-2.31,0-2.41,0s-1.65,0-2.45,0c-.27,0-.38,0-.38.19a.2.2,0,0,0,.19.19,4,4,0,0,1,.74.09c.52.11.71.46.77,1.26s0,1.4,0,5v4.11c0,2.26,0,4.1-.13,5.06-.09.68-.17,1.12-.63,1.23a3.24,3.24,0,0,1-.75.11.19.19,0,0,0-.19.19c0,.14.14.2.39.2.74,0,2.25-.09,2.39-.09s1.67.09,3,.09c.27,0,.38-.09.38-.2a.18.18,0,0,0-.19-.19,8.82,8.82,0,0,1-1.1-.11c-.71-.11-.8-.55-.88-1.23-.11-1-.11-2.8-.11-5.06V82.8Zm6.48,8.32c-.46,1.18-.93,2-2,2.14a6.07,6.07,0,0,1-.71,0,.22.22,0,0,0-.22.19c0,.14.16.2.46.2,1,0,2.2-.09,2.45-.09s1.59.09,2.17.09c.22,0,.35-.06.35-.2s-.05-.19-.24-.19h-.22c-.42,0-.83-.16-.83-.63a4.78,4.78,0,0,1,.36-1.56l1.37-3.74a.26.26,0,0,1,.25-.19h5.58c.13,0,.16,0,.22.14l2.16,5.35a.43.43,0,0,1-.22.63c-.11.06-.16.06-.16.17s.38.13.85.16c1.68.06,3.46.06,3.82.06s.55-.06.55-.2-.17-.19-.3-.19a3.37,3.37,0,0,1-1-.13c-.52-.17-1.18-.47-2.06-2.56-1.48-3.54-5.35-13.18-5.79-14.17-.25-.52-.33-.85-.58-.85s-.27.14-.57.91L27.65,91.12Zm3.49-4.89c-.08,0-.11-.06-.08-.17l2.25-6.4c.14-.35.27-.35.41,0l2.39,6.4c0,.11,0,.17-.08.17Zm34.47,7.85a15.91,15.91,0,0,0,4.94-.63c.49-.22.55-.27.71-.8a27.63,27.63,0,0,0,.61-3.51c0-.22-.06-.41-.2-.41s-.22.11-.27.41a5.23,5.23,0,0,1-1,2.31c-1.09,1.12-2.72,1.37-4.77,1.37a9.92,9.92,0,0,1-9.92-10c0-2.8.47-5.25,2.47-7.17,1-.93,2.67-2,6.32-2A9.15,9.15,0,0,1,70,75.16,3.78,3.78,0,0,1,71.13,78c0,.39,0,.58.21.58s.22-.17.25-.58,0-1.92.08-2.83.14-1.32.14-1.54,0-.27-.36-.3a23.7,23.7,0,0,1-2.8-.41,23.17,23.17,0,0,0-4-.33c-4.23,0-6.73,1.29-8.37,2.94A10.94,10.94,0,0,0,53.22,83a10.53,10.53,0,0,0,3.32,8.13c2.17,1.95,5,3,9.07,3Zm10.21-3c-.47,1.18-.93,2-2,2.14a6.07,6.07,0,0,1-.71,0,.22.22,0,0,0-.22.19c0,.14.16.2.46.2,1,0,2.2-.09,2.45-.09s1.59.09,2.17.09c.22,0,.35-.06.35-.2s-.05-.19-.24-.19h-.22c-.42,0-.83-.16-.83-.63a4.78,4.78,0,0,1,.36-1.56l1.37-3.74a.26.26,0,0,1,.25-.19h5.57c.14,0,.17,0,.22.14l2.17,5.35a.43.43,0,0,1-.22.63c-.11.06-.16.06-.16.17s.38.13.85.16c1.68.06,3.46.06,3.82.06s.55-.06.55-.2-.17-.19-.31-.19a3.35,3.35,0,0,1-1-.13c-.52-.17-1.18-.47-2.06-2.56C87,87.08,83.1,77.44,82.66,76.45c-.25-.52-.33-.85-.58-.85s-.27.14-.57.91L75.82,91.12Zm3.49-4.89c-.08,0-.11-.06-.08-.17l2.25-6.4c.14-.35.27-.35.41,0l2.39,6.4c0,.11,0,.17-.08.17Zm19.17-9.12,3,.06c2.31,0,2.83.57,2.91,1.29l0,.24c0,.33.08.42.19.42s.22-.12.22-.31.09-2,.09-2.66c0-.14,0-.28-.11-.28s-.34.06-.69.11a11.42,11.42,0,0,1-1.73.11H93.29a17.78,17.78,0,0,1-1.9-.11,8.52,8.52,0,0,1-1.07-.27c-.08,0-.19.3-.25.44s-.52,2.28-.52,2.53a.19.19,0,0,0,.17.19c.11,0,.19,0,.24-.22a3.86,3.86,0,0,1,.39-.74c.36-.55.93-.72,2.44-.74l3.49-.06v9.8c0,2.26,0,4.1-.11,5.06-.08.68-.22,1.15-.71,1.26a3,3,0,0,1-.72.11.17.17,0,0,0-.19.16c0,.14.11.2.38.2.72,0,2.39-.09,2.5-.09s1.67.09,3,.09c.28,0,.39-.09.39-.2a.17.17,0,0,0-.19-.19,8.31,8.31,0,0,1-1.1-.11c-.74-.11-.85-.55-.93-1.23-.11-1-.11-2.8-.11-5.06v-9.8ZM110,86.91a46.8,46.8,0,0,1-.14,5.06c-.11.68-.17,1.15-.63,1.23a6.29,6.29,0,0,1-.74.11.19.19,0,0,0-.2.19c0,.14.14.2.39.2s.93,0,1.4-.06,1,0,1,0c.36,0,1,0,2,.06s2.39.08,4.2.08c.93,0,1.18,0,1.35-.6A21,21,0,0,0,119,90.9c0-.17,0-.36-.16-.36s-.19.08-.25.36a1.76,1.76,0,0,1-1.1,1.62,8.23,8.23,0,0,1-2.41.24c-2.39,0-2.83-.3-2.89-1.86,0-.47,0-3.19,0-4V85c0-.08,0-.16.17-.16.41,0,3,0,3.65.11.94.11,1.15.38,1.24.71a2.09,2.09,0,0,1,.11.77c0,.14.05.22.16.22s.22-.25.22-.44.06-1,.11-1.51c.06-.77.19-1.15.19-1.29s0-.19-.13-.19-.2.14-.36.3-.6.28-1.18.33-3.74.06-4,.06c-.14,0-.14-.09-.14-.25V77.27c0-.16,0-.24.14-.24.28,0,3.08,0,3.49.08,1.32.16,1.56.33,1.73.71a2.6,2.6,0,0,1,.14.83c0,.19,0,.3.19.3s.19-.14.22-.25c0-.27.11-1.32.14-1.53a10.29,10.29,0,0,1,.19-1.1c0-.11,0-.22-.11-.22A1.42,1.42,0,0,0,118,76c-.19,0-.63.11-1.1.13s-5.6,0-5.77,0-1.7,0-2.8,0c-.27,0-.38,0-.38.19a.23.23,0,0,0,.19.19,7,7,0,0,1,.82.06c.8.11.94.49,1,1.29s.06,1.4.06,5v4.11Zm15.13,0A46.8,46.8,0,0,1,125,92c-.11.68-.16,1.12-.63,1.23a3.15,3.15,0,0,1-.74.11.18.18,0,0,0-.19.19c0,.14.13.2.38.2.74,0,2.36-.09,2.39-.09s1.65.09,3,.09c.27,0,.38-.09.38-.2a.17.17,0,0,0-.19-.19,7.92,7.92,0,0,1-1.07-.11c-.74-.11-.88-.55-1-1.23-.11-1-.11-2.78-.11-5v-.55c0-.13,0-.19.16-.19l3.08.06a.37.37,0,0,1,.33.13c.52.63,1.59,2.14,2.6,3.41,1.38,1.76,2.26,2.88,3.3,3.43a4.85,4.85,0,0,0,2.58.47h1.51c.44,0,.58-.06.58-.2a.21.21,0,0,0-.22-.19,4.5,4.5,0,0,1-.85-.08,4.38,4.38,0,0,1-2.69-1.62c-1.4-1.46-3.08-3.57-5.06-6,2.26-1.92,3-3.6,3-5.33a4.05,4.05,0,0,0-1.68-3.18,7.88,7.88,0,0,0-4.5-1c-.74,0-2.77,0-3,0s-1.76,0-2.86,0c-.27,0-.38,0-.38.19a.23.23,0,0,0,.19.19,7,7,0,0,1,.82.06c.8.11.94.49,1,1.29s.06,1.4.06,5v4.11Zm2.09-9.64a.3.3,0,0,1,.19-.27,11,11,0,0,1,1.73-.14c2.58,0,4.17,1.68,4.17,4.59A4.18,4.18,0,0,1,131.82,85a3.2,3.2,0,0,1-1.82.41,8,8,0,0,1-2.66-.36.33.33,0,0,1-.16-.3v-7.5Zm18.56,5.53c0-3.63,0-4.29,0-5s.19-1.15.85-1.29a2.44,2.44,0,0,1,.6-.06.23.23,0,0,0,.2-.19c0-.14-.11-.19-.39-.19-.74,0-2.31,0-2.42,0s-1.64,0-2.44,0c-.27,0-.38,0-.38.19a.2.2,0,0,0,.19.19,4.05,4.05,0,0,1,.74.09c.52.11.71.46.77,1.26s0,1.4,0,5v4.11c0,2.26,0,4.1-.13,5.06-.09.68-.17,1.12-.64,1.23a3.15,3.15,0,0,1-.74.11.19.19,0,0,0-.19.19c0,.14.14.2.38.2.75,0,2.26-.09,2.39-.09s1.68.09,3,.09c.28,0,.39-.09.39-.2a.19.19,0,0,0-.19-.19,8.82,8.82,0,0,1-1.1-.11c-.72-.11-.8-.55-.88-1.23-.11-1-.11-2.8-.11-5.06V82.8Zm8.68-3.3c.74.82,3.45,3.68,6.25,6.62,2.55,2.66,6,6.09,6.29,6.31,1.34,1.24,1.6,1.43,1.84,1.43s.2-.13.2-1.67l.05-13.68c0-1.4.06-1.87.85-2a2.56,2.56,0,0,1,.58-.06.26.26,0,0,0,.27-.22c0-.13-.19-.16-.44-.16-1,0-1.78,0-2.06,0s-1.43,0-2.53,0c-.27,0-.46,0-.46.16s0,.22.19.22a8.09,8.09,0,0,1,1.18.11c.74.14.88.66.91,2.17l.24,11.7c-.74-.77-3.32-3.54-5.7-6-3.74-3.85-7.25-7.58-7.63-8-.25-.24-.66-.71-.94-.71s-.33.25-.33,1.18V90.26c0,2.12-.08,2.75-.68,2.92a3.77,3.77,0,0,1-1,.13.2.2,0,0,0-.2.19c0,.17.14.2.39.2,1.1,0,2.11-.09,2.33-.09s1.18.09,2.55.09c.28,0,.44-.06.44-.2a.19.19,0,0,0-.19-.19,5.65,5.65,0,0,1-1.21-.13c-.65-.17-.87-.75-.93-2.67l-.27-11Zm33.12,12.27c0,.44-.19.55-.5.72a6,6,0,0,1-2.61.44,8.6,8.6,0,0,1-6.17-2.45A9.22,9.22,0,0,1,175.7,84a7.27,7.27,0,0,1,2.39-5.88,7.68,7.68,0,0,1,5-1.51c3.13,0,5,.94,5.58,1.82a3.51,3.51,0,0,1,.55,1.53c0,.22,0,.36.16.36s.28-.11.28-.49c0-2.34.13-3,.13-3.3,0-.11-.05-.22-.3-.22a10.59,10.59,0,0,1-1.95-.25,20.2,20.2,0,0,0-3.71-.38,12.13,12.13,0,0,0-6.42,1.48,8.74,8.74,0,0,0-4,7.66,8.91,8.91,0,0,0,2.89,6.65A13.63,13.63,0,0,0,189.4,93c.31-.17.33-.2.33-1.27V89.08c0-1,0-1.67,0-2.41s.25-1.18.91-1.29a2.44,2.44,0,0,1,.6-.06.23.23,0,0,0,.19-.19c0-.17-.11-.19-.38-.19-.74,0-2.25,0-2.36,0s-1.76,0-2.86,0c-.27,0-.38,0-.38.19a.23.23,0,0,0,.19.19,7,7,0,0,1,.82.06c1,.19,1,.46,1,2.36v4Z" transform="translate(92 16)"/><path class="cls-1" d="M-22.25,112.94H-20c1.76,0,3.44-.53,3.44-2.66,0-1.43-.7-2.66-3.17-2.66h-3.41v9.52h.89v-4.2Zm0-4.55h1.88c2,0,2.91.26,2.91,1.91s-1.11,1.87-2.8,1.87h-2v-3.78ZM-9,107.62v9.52h6.47v-.77H-8.08v-3.9h4.9v-.76h-4.9v-3.32h5.43v-.77Zm13.89,9.52H8.16A4.22,4.22,0,0,0,11.53,116a5.39,5.39,0,0,0,1.15-3.61c0-1.27-.33-3.12-1.59-4a4.68,4.68,0,0,0-2.93-.71H4.91v9.52Zm.9-8.75H8a5,5,0,0,1,2.18.35c1.34.72,1.64,2.24,1.64,3.63s-.31,2.92-1.58,3.57a4.54,4.54,0,0,1-2.24.43H5.81v-8ZM23,107.62l-3.74,9.52h.92l1.13-3h4.33l1.1,3h.93L24,107.62Zm.47.77,1.87,5H21.61l1.86-5Zm11.21-.77v9.52h.9v-8.3h0l5.48,8.3h1v-9.52h-.9v8.32h0l-5.5-8.32Zm27.08,2.76a3.7,3.7,0,0,0-4-3c-3,0-4.4,2.17-4.4,5,0,3.38,1.76,5.06,4.16,5.06a3.69,3.69,0,0,0,3.56-1.88v1.63h.77v-4.92H57.79V113H61c0,2.43-1.44,3.63-3.28,3.63-2.18,0-3.45-1.83-3.45-3.94,0-2.69,1-4.54,3.57-4.54a2.93,2.93,0,0,1,3,2.24Zm9-2h2.85c1.2,0,2.31.34,2.31,1.77s-1,1.89-2.36,1.89h-2.8v-3.66Zm0,4.43h2.82c1.29,0,2,.25,2,2.31a5.28,5.28,0,0,0,.31,2h1v-.09c-.22-.11-.4-.84-.4-2,0-1-.12-2.2-1.21-2.57a2.24,2.24,0,0,0,1.54-2.33c0-1.76-1.15-2.5-3.24-2.5H69.82v9.52h.9v-4.32Zm13.53-.43c0,2.74,1.49,5,4.42,5s4.45-2.26,4.45-5-1.51-5-4.49-5-4.38,2.26-4.38,5Zm4.44,4.23c-2.49,0-3.55-2-3.55-4.23s1.08-4.25,3.52-4.25c2.2,0,3.56,1.61,3.56,4.25,0,2.23-1.06,4.23-3.53,4.23Zm12-9v5.94c0,2.43,1.2,3.83,3.69,3.83s3.69-1.36,3.69-3.83v-5.94h-.9v5.67c0,2.25-.74,3.33-2.79,3.33s-2.79-1-2.79-3.33v-5.67Zm16.22,5.32h2.25c1.76,0,3.44-.53,3.44-2.66,0-1.43-.7-2.66-3.17-2.66H116v9.52h.89v-4.2Zm0-4.55h1.88c2,0,2.91.26,2.91,1.91s-1.11,1.87-2.8,1.87h-2v-3.78Z" transform="translate(92 16)"/><path class="cls-1" d="M68.2,17.79l-4,2.83c.4,1,.79,2,1.2,3-.41,1-.8,2-1.2,3,1.28.9,2.54,1.81,4,2.84.09-1,.23-2.48.39-4.13l-1.35-1.71,1.35-1.72c-.16-1.65-.3-3.16-.39-4.12Z" transform="translate(92 16)"/><path class="cls-1" d="M55.71,6.82c.7.88,1.35,1.71,2,2.55l4.45-2-3.37-2.4-2.16.31c-.25-.62-.53-1.31-.81-2-1.51-.68-2.9-1.31-3.77-1.72.17,1.77.31,3.32.46,4.87l3.2.46Z" transform="translate(92 16)"/><path class="cls-1" d="M60.27,11.92l2.55,2c.15,1.1.3,2.15.46,3.2l4.86.46-1.72-3.77-2-.81c.09-.66.2-1.39.31-2.16-1-1.35-1.85-2.59-2.4-3.38l-2,4.45Z" transform="translate(92 16)"/><path class="cls-1" d="M35.4,5.24l-2.16-.31-3.37,2.4,4.44,2,2-2.55,3.2-.46L40,1.49,36.21,3.21l-.81,2Z" transform="translate(92 16)"/><path class="cls-1" d="M66.42,33.43l1.72-3.77-4.86.46c-.16,1.05-.31,2.1-.46,3.21l-2.55,2c.65,1.43,1.3,2.84,2,4.45.55-.78,1.43-2,2.4-3.37-.11-.76-.22-1.5-.31-2.16l2-.81Z" transform="translate(92 16)"/><path class="cls-1" d="M56.63,42l2.16.31,3.37-2.4c-1.61-.74-3-1.39-4.45-2-.65.83-1.3,1.66-2,2.53l-3.2.47c-.15,1.56-.29,3.1-.46,4.87L55.82,44c.28-.71.56-1.4.81-2Z" transform="translate(92 16)"/><path class="cls-1" d="M31.75,35.32l-2.54-2-.46-3.21-4.87-.46,1.72,3.77,2,.81c-.09.66-.2,1.4-.31,2.16l2.4,3.37c.74-1.61,1.38-3,2-4.45Z" transform="translate(92 16)"/><path class="cls-1" d="M46,43l-3-1.2-2.84,4,4.13.39L46,44.85l1.72,1.35,4.12-.39c-1-1.45-1.93-2.71-2.83-4L46,43Z" transform="translate(92 16)"/><path class="cls-1" d="M23.83,17.79c-.09,1-.24,2.47-.39,4.12.47.61.93,1.19,1.35,1.72-.42.52-.88,1.1-1.35,1.71.15,1.65.3,3.17.39,4.13l4-2.84c-.39-1-.78-2-1.2-3,.42-1.05.81-2,1.2-3l-4-2.83Z" transform="translate(92 16)"/><path class="cls-1" d="M46,4.22l3,1.21c.9-1.28,1.81-2.55,2.83-4l-4.12-.39L46,2.4,44.3,1.05l-4.13.39,2.84,4,3-1.21Z" transform="translate(92 16)"/><path class="cls-1" d="M36.31,40.42l-2-2.53-4.44,2,3.37,2.4L35.4,42c.25.62.52,1.31.81,2L40,45.76l-.47-4.87-3.2-.47Z" transform="translate(92 16)"/><path class="cls-1" d="M74.43,31.24l3.43,4.82c0,.66.15,3.1.29,6.12L72.71,45l-5.9-.57c.32,3.36.54,5.64.57,5.9-.31.59-1.43,2.76-2.81,5.44l-6.12-.29L53.63,52c-1.4,3.07-2.36,5.15-2.46,5.39L46,60.74l-5.15-3.31L38.4,52l-4.82,3.43-6.12.29c-1.39-2.68-2.5-4.85-2.81-5.44,0-.26.24-2.54.56-5.9L19.32,45l-5.45-2.81c.15-3,.26-5.46.3-6.12.14-.21,1.47-2.07,3.43-4.82l-5.39-2.46c-.36-.56-1.67-2.61-3.31-5.15l3.31-5.16L17.6,16c-2-2.75-3.29-4.61-3.43-4.82,0-.67-.15-3.1-.3-6.12l5.45-2.81,5.89.56c-.32-3.35-.53-5.63-.56-5.89.31-.59,1.42-2.76,2.81-5.45l6.12.3L38.4-4.79c1.4-3.07,2.35-5.15,2.46-5.38L46-13.49l5.16,3.32c.1.23,1.06,2.31,2.46,5.38l4.82-3.43,6.12-.3c1.38,2.69,2.5,4.86,2.81,5.45,0,.26-.25,2.54-.57,5.89l5.9-.56,5.44,2.81c-.14,3-.26,5.45-.29,6.12L74.43,16l5.38,2.46,3.31,5.16-3.31,5.15-5.38,2.46Zm11.21-7.61-4.38-6.82-3.63-1.66,2.31-3.24c.09-1.88.23-4.85.39-8.1L73.12.1l-4,.38c.19-2,.33-3.47.38-4l-3.71-7.21-8.1.38L54.49-8l-1.66-3.63L46-16,39.2-11.62,37.54-8,34.3-10.31l-8.1-.38L22.49-3.48c.05.49.19,2,.38,4L18.9.1,11.7,3.81c.15,3.25.29,6.22.38,8.1l2.31,3.24-3.62,1.66L6.39,23.63l4.38,6.81,3.62,1.66c-1.15,1.63-2,2.83-2.31,3.24-.09,1.88-.23,4.85-.38,8.1l7.2,3.71,4-.38c-.19,2-.33,3.47-.38,4l3.71,7.2,8.1-.39,3.24-2.3,1.66,3.62L46,63.25l6.82-4.38,1.66-3.62,3.24,2.3,8.1.39,3.71-7.2c-.05-.5-.19-2-.38-4l4,.38,7.21-3.71c-.16-3.25-.3-6.22-.39-8.1-.28-.41-1.15-1.61-2.31-3.24l3.63-1.66,4.38-6.81Z" transform="translate(92 16)"/><path class="cls-1" d="M25.6,13.82l-1.72,3.77,4.87-.46c.15-1.05.3-2.1.46-3.2l2.54-2-2-4.45-2.4,3.38c.11.77.22,1.5.31,2.16l-2,.81Z" transform="translate(92 16)"/><path class="cls-1" d="M72.61,37.88c0,.37,0,.75,0,1.13l-1,.52-2.45-.24,1.09-1.53s0-.08,0-.13l.11,0c.26-.56.51-1.13.78-1.72l1.44,2Zm-3.88-2-.92.37c0,.33.1.65.14,1l-2.82,4,7,.67L75,40.34c0-1.06-.1-2.14-.15-3.22l-4.06-5.7c-.63,1.37-1.31,2.88-2,4.42Z" transform="translate(92 16)"/><path class="cls-1" d="M47,53.78l-1,.61-.95-.61c-.33-.73-.67-1.46-1-2.24l1.88.18.09-.08a.39.39,0,0,1,.1.08L48,51.54l-1,2.24Zm-1-5-.77.61L40.4,49l2.9,6.36L46,57.05l2.71-1.74c1-2.21,2-4.43,2.91-6.36l-4.84.46L46,48.8Z" transform="translate(92 16)"/><path class="cls-1" d="M61.4,50.27l-1.13-.05-2-1.43L60,48s0-.07,0-.11h.12l1.54-1.09c.08.86.16,1.66.24,2.46-.18.33-.35.66-.52,1Zm-1.82-4.7-1-.15c-.12.31-.24.62-.37.92l-4.42,2,5.7,4.06,3.22.15,1.47-2.86c-.23-2.42-.46-4.84-.66-7l-4,2.83Z" transform="translate(92 16)"/><path class="cls-1" d="M71.65,7.72l1,.52c0,.38,0,.75,0,1.13l-1.44,2c-.27-.6-.52-1.16-.78-1.72l-.11,0s0-.08,0-.13L69.2,8l2.45-.24ZM67.81,11l.92.36c.71,1.55,1.39,3.06,2,4.43l4.06-5.7c0-1.08.1-2.16.15-3.22L72.1,5.44l-7,.66,2.82,4c0,.33-.09.66-.14,1Z" transform="translate(92 16)"/><path class="cls-1" d="M45.06-6.53,46-7.14l1,.61,1,2.24-1.88-.18-.1.08-.09-.08L44-4.29c.35-.78.69-1.51,1-2.24Zm.95,5,.78-.61,4.84.47L48.72-8.06,46-9.8,43.3-8.06c-1,2.21-2,4.42-2.9,6.37l4.84-.47.77.61Z" transform="translate(92 16)"/><path class="cls-1" d="M76.17,24.58l-2.24,1c.06-.65.12-1.27.18-1.88L74,23.63l.08-.1c-.06-.61-.12-1.23-.18-1.88l2.24,1c.2.31.41.62.61.95l-.61.95ZM71.33,18c.15,1.5.3,3.15.47,4.84l-.61.78.61.77c-.17,1.69-.32,3.34-.47,4.84l6.37-2.91,1.74-2.7c-.57-.89-1.16-1.8-1.74-2.72L71.33,18Z" transform="translate(92 16)"/><path class="cls-1" d="M30.63-3l1.13,0,2,1.43-1.72.79,0,.11-.13,0L30.35.44c-.08-.85-.16-1.66-.24-2.46.17-.33.35-.66.52-1Zm1.82,4.7,1,.14.36-.91,4.43-2-5.7-4.06L29.3-5.32c-.48.94-1,1.9-1.48,2.86.24,2.42.47,4.84.67,7l4-2.82Z" transform="translate(92 16)"/><path class="cls-1" d="M57,22.72l-1.79-1.56L56,18.92l1.94-1.53c.52,3.6.2,2.38,1.52,5.68L57,22.72Zm.92,7.14L56,28.33l-.77-2.24L57,24.53l2.44-.35c-1.35,3.37-1,2.16-1.52,5.68ZM53.21,35l-.92-2.29c.15-.76.3-1.53.45-2.34l2.34-.45,2.29.92c-2.86,2.25-2,1.37-4.16,4.16Zm-6.64,2.08c.12-.85.24-1.65.35-2.45l1.56-1.79,2.24.77,1.53,1.95c-3.6.51-2.38.19-5.68,1.52Zm-2.32-6.85-2.55.88q-.26-1.35-.51-2.64l-2.64-.51c.3-.87.59-1.72.88-2.55l-2-1.76c.69-.61,1.38-1.2,2-1.77l-.88-2.54,2.64-.51c.17-.87.34-1.75.51-2.65l2.55.88L46,15l1.77,2,2.54-.88c.18.9.35,1.78.51,2.65l2.65.51-.88,2.54,2,1.77-2,1.76c.29.83.58,1.68.88,2.55l-2.65.51q-.24,1.29-.51,2.64l-2.54-.88-1.77,2-1.76-2Zm-4.47,5.33c.53-.68,1-1.31,1.52-1.95l2.25-.77,1.56,1.79c.11.8.23,1.6.35,2.45-3.3-1.33-2.08-1-5.68-1.52Zm-1-.56c-2.25-2.86-1.37-2-4.16-4.16L37,29.9l2.33.45c.16.81.31,1.58.45,2.34-.29.74-.59,1.49-.91,2.29Zm-6.24-10.8,2.44.35,1.8,1.56c-.27.78-.52,1.51-.78,2.24L34.1,29.86c-.51-3.6-.2-2.38-1.52-5.68Zm1.52-6.79L36,18.92c.26.73.51,1.46.78,2.24L35,22.72l-2.44.35c1.35-3.37,1-2.17,1.52-5.68Zm4.72-5.12c.32.8.62,1.54.91,2.29-.14.76-.29,1.53-.45,2.34L37,17.35l-2.29-.92c2.86-2.25,2-1.37,4.16-4.16Zm6.64-2.08c-.12.85-.24,1.65-.35,2.44l-1.56,1.8-2.25-.78-1.52-1.93c3.6-.52,2.38-.21,5.68-1.53Zm6.79,1.53c-.53.67-1,1.31-1.53,1.93l-2.24.78-1.56-1.8c-.11-.79-.23-1.59-.35-2.44,3.37,1.35,2.16,1,5.68,1.53Zm1,.55c2.25,2.86,1.37,2,4.16,4.16l-2.29.92-2.34-.45c-.15-.81-.3-1.58-.45-2.34l.92-2.29ZM54,9.72c-5-.72-3.27-.25-8-2.16C41.27,9.47,43,9,38,9.72c-3.16,4-1.92,2.77-5.87,5.88-.73,5.06-.29,3.37-2.16,8,1.87,4.66,1.43,3,2.16,8,4,3.16,2.77,1.92,5.87,5.87,5.08.73,3.37.29,8,2.16,4.76-1.91,3.06-1.44,8-2.16,3.17-4,1.92-2.76,5.88-5.87.73-5.07.29-3.37,2.15-8-1.9-4.76-1.43-3.06-2.15-8-4-3.18-2.77-1.93-5.88-5.88Z" transform="translate(92 16)"/><path class="cls-1" d="M60.27-3,61.4-3c.17.34.34.67.52,1-.08.8-.16,1.61-.24,2.46L60.14-.66,60-.64l0-.11-1.72-.79,2-1.43ZM58.6,1.82l1-.14,4,2.82c.2-2.12.43-4.54.66-7L62.73-5.32l-3.22.15-5.7,4.06,4.42,2,.37.91Z" transform="translate(92 16)"/><path class="cls-1" d="M31.76,50.22l-1.13.05c-.17-.34-.35-.67-.52-1,.08-.8.16-1.6.24-2.46l1.53,1.09H32s0,.07,0,.11l1.72.79-2,1.43Zm1.67-4.8-1,.15-4-2.83c-.2,2.13-.43,4.55-.67,7,.5,1,1,1.92,1.48,2.86l3.22-.15,5.7-4.06-4.43-2-.36-.92Z" transform="translate(92 16)"/><path class="cls-1" d="M19.42,9.37c0-.38,0-.75-.05-1.13l1-.52L22.83,8l-1.1,1.53a.69.69,0,0,1,0,.13l-.11,0c-.26.56-.52,1.12-.79,1.72-.49-.7-1-1.36-1.43-2Zm3.88,2,.91-.36c0-.32-.09-.65-.14-1,1-1.38,1.95-2.73,2.82-4l-7-.66L17.07,6.91c.05,1.06.1,2.14.15,3.22l4.06,5.7c.62-1.37,1.31-2.88,2-4.43Z" transform="translate(92 16)"/><path class="cls-1" d="M20.37,39.53l-1-.52c0-.38,0-.76.05-1.13.47-.66.94-1.31,1.43-2l.79,1.72.11,0a.51.51,0,0,1,0,.13c.36.49.72,1,1.1,1.53l-2.46.24Zm3.84-3.32-.91-.37c-.71-1.54-1.4-3.05-2-4.42l-4.06,5.7c0,1.08-.1,2.16-.15,3.22l2.86,1.48,7-.67c-.87-1.23-1.83-2.58-2.82-4,.05-.33.1-.65.14-1Z" transform="translate(92 16)"/><path class="cls-1" d="M47,27.35a6,6,0,0,1-2,0,5.78,5.78,0,0,1-1.73-1,5.78,5.78,0,0,1-1-1.73,5.54,5.54,0,0,1,0-2,5.69,5.69,0,0,1,1-1.73,5.69,5.69,0,0,1,1.73-1,5.78,5.78,0,0,1,2,0,5.93,5.93,0,0,1,1.73,1,5.91,5.91,0,0,1,1,1.73,5.78,5.78,0,0,1,0,2,5.58,5.58,0,0,1-1,1.73,5.78,5.78,0,0,1-1.73,1Zm2.4-.33,3,.29c-.59-.84-1.18-1.66-1.74-2.44l2.73-1.24-2.73-1.25c.56-.78,1.15-1.6,1.74-2.44l-3,.29c.09-1,.19-2,.29-3L47.26,19,46,16.26,44.77,19l-2.44-1.73c.1,1,.19,2,.29,3l-3-.29,1.73,2.44-2.72,1.25,2.72,1.24-1.73,2.44,3-.29c-.1,1-.19,2-.29,3l2.44-1.73c.4.87.82,1.78,1.24,2.72l1.25-2.72L49.7,30c-.1-1-.2-2-.29-3Z" transform="translate(92 16)"/><path class="cls-1" d="M18,23.63l-.08.09c.06.61.12,1.23.18,1.88l-2.24-1-.61-.95c.2-.33.4-.64.61-.95l2.24-1c-.06.65-.12,1.27-.18,1.88l.08.1Zm2.23.77.61-.77-.61-.78c.16-1.69.32-3.34.46-4.84l-6.36,2.9c-.58.92-1.17,1.83-1.74,2.72l1.74,2.7,6.36,2.91c-.14-1.5-.3-3.15-.46-4.84Z" transform="translate(92 16)"/><path class="cls-1" d="M46,22.6a1,1,0,1,0,1,1,1,1,0,0,0-1-1Z" transform="translate(92 16)"/></svg>
