<svg xmlns="http://www.w3.org/2000/svg" viewBox="0 0 209.96 50"><defs><style>.cls-1{opacity:0.3;}.cls-2{fill:#fff;}</style></defs><title>logo-center-svg</title><g id="Слой_2" data-name="Слой 2"><g id="Слой_1-2" data-name="Слой 1"><g class="cls-1"><g id="Слой_1-2-2" data-name="Слой 1-2"><path class="cls-2" d="M119.5,21.3,117,23.09l.76,1.89c-.26.63-.51,1.26-.76,1.89l2.53,1.79.25-2.6L118.89,25l.86-1.08c-.1-1-.19-2-.25-2.6Z"/><path class="cls-2" d="M111.46,14.39l1.27,1.6,2.82-1.26-2.14-1.51-1.37.19c-.16-.39-.34-.82-.51-1.26l-2.39-1.08c.1,1.11.19,2.09.29,3.07l2,.29Z"/><path class="cls-2" d="M114.46,17.6l1.61,1.26c.1.7.2,1.36.29,2l3.09.29-1.11-2.37-1.27-.52c.06-.41.13-.87.2-1.36-.64-.85-1.18-1.63-1.53-2.13l-1.27,2.81Z"/><path class="cls-2" d="M98.38,13.39,97,13.19l-2.13,1.52L97.69,16,99,14.36l2-.29.3-3.07L98.9,12.08l-.52,1.27Z"/><path class="cls-2" d="M118.34,31.17l1.09-2.38-3.08.29-.3,2-1.61,1.27c.41.9.82,1.79,1.26,2.8l1.53-2.12-.2-1.36,1.27-.52Z"/><path class="cls-2" d="M112.15,36.57l1.37.2,2.13-1.52c-1-.46-1.9-.87-2.82-1.26l-1.27,1.61-2,.29c-.09,1-.18,2-.29,3.07l2.39-1.13Z"/><path class="cls-2" d="M96.37,32.36,94.75,31.1l-.29-2-3.09-.29,1.1,2.38,1.26.51c0,.42-.12.89-.19,1.36l1.52,2.13c.47-1,.87-1.89,1.27-2.81Z"/><path class="cls-2" d="M105.41,37l-1.9-.75-1.8,2.52,2.62.25,1.08-.86,1.09.86,2.61-.25c-.63-.91-1.22-1.71-1.79-2.52l-1.9.75Z"/><path class="cls-2" d="M91.34,21.3c0,.63-.15,1.56-.24,2.6L92,25c-.26.33-.56.69-.85,1.08.09,1,.19,2,.24,2.6l2.54-1.79c-.25-.63-.49-1.26-.76-1.89.27-.66.51-1.26.76-1.89l-2.54-1.79Z"/><path class="cls-2" d="M105.42,12.75l1.91.76L109.12,11l-2.61-.25-1.09.86-1.08-.85-2.62.24,1.8,2.53,1.9-.77Z"/><path class="cls-2" d="M99.26,35.58,98,34l-2.82,1.26,2.14,1.52,1.36-.19c.16.39.33.83.52,1.26l2.39,1.1-.3-3.08-2-.29Z"/><path class="cls-2" d="M123.41,29.79l2.18,3c0,.41.09,2,.18,3.86l-3.42,1.77-3.75-.35c.21,2.11.35,3.55.36,3.72l-1.78,3.43-3.88-.19-3.06-2.19c-.88,1.94-1.49,3.25-1.56,3.4l-3.27,2.09-3.27-2.09-1.56-3.4L97.52,45l-3.88.19c-.88-1.69-1.59-3.06-1.78-3.44,0-.16.15-1.6.35-3.72l-3.73.39L85,36.69c.09-1.9.16-3.45.19-3.86l2.17-3L84,28.24,81.87,25,84,21.73l3.42-1.55-2.17-3c0-.42-.1-2-.19-3.86l3.45-1.77,3.74.35c-.21-2.11-.34-3.55-.36-3.71.2-.37.9-1.74,1.78-3.44l3.89.19,3,2.16,1.56-3.39,3.26-2.09,3.28,2.09c.06.15.67,1.46,1.56,3.39l3.05-2.16,3.89-.19c.87,1.7,1.58,3.07,1.78,3.44,0,.16-.16,1.6-.36,3.71l3.74-.35,3.45,1.77c-.09,1.89-.17,3.44-.18,3.86l-2.2,3,3.41,1.55L128.93,25l-2.11,3.25Zm7.11-4.8-2.78-4.3-2.3-1,1.47-2c0-1.18.14-3.06.24-5.11l-4.54-2.34-2.54.24c.12-1.26.21-2.18.24-2.52L118,3.35l-5.14.24-2,1.46-1.05-2.29L105.41,0l-4.32,2.76-1,2.29L98,3.59l-5.13-.24L90.49,7.9c0,.31.12,1.26.24,2.52l-2.53-.24-4.57,2.34c.09,2.05.18,3.92.24,5.11l1.48,2-2.29,1L80.28,25l2.78,4.3,2.29,1.05c-.72,1-1.26,1.78-1.46,2-.06,1.18-.15,3.06-.24,5.11l4.57,2.34,2.53-.24c-.12,1.26-.21,2.19-.24,2.52l2.35,4.54L98,46.41,100.06,45l1,2.29L105.43,50l4.33-2.76,1-2.29,2,1.46,5.14.24,2.35-4.54c0-.32-.12-1.26-.24-2.52l2.54.24,4.57-2.34c-.1-2.05-.19-3.93-.24-5.11-.18-.26-.73-1-1.47-2l2.3-1.05,2.78-4.3Z"/><path class="cls-2" d="M92.47,18.8l-1.1,2.38,3.09-.29c.1-.66.19-1.33.29-2l1.62-1.26L95.1,14.8l-1.52,2.13c.06.49.13.95.19,1.37l-1.27.51Z"/><path class="cls-2" d="M122.52,34v.72l-.87.33-1.56-.16,1.42-1V34h-.66a9,9,0,0,1,.49-1.26l.92,1.26Zm-2.7-1.26-.58.24a5,5,0,0,0,.09.63l-1.79,2.52,4.44.42,1.81-.93c0-.67-.06-1.35-.09-2L121.12,30l-1.27,2.79Z"/><path class="cls-2" d="M106,44l-.63.39-.6-.39c-.21-.46-.43-.92-.64-1.41l1.19.11.06-.05s0,0,.06.05l1.2-.11Zm-.63-3.15-.49.38-3-.24,1.84,4,1.71,1.1,1.72-1.1c.64-1.4,1.27-2.8,1.85-4l-3.07.29-.5-.39Z"/><path class="cls-2" d="M115.17,42h-.72l-1.27-1.1,1.29-.53V40h-.12l1-.39c.05.54.11,1,.16,1.55q-.18.32-.33.63ZM114,38.82l-.63-.09-.24.58-2.8,1.26L114,43.13l2,.1.93-1.81c-.15-1.52-.29-3.05-.42-4.41L114,38.79Z"/><path class="cls-2" d="M121.51,15l1,.33V16l-1.12,1.27c-.17-.38-.49-1.27-.49-1.27h-.4v.1l-.39-1,1.39-.15ZM119.24,17l.58.23L121.09,20l2.57-3.59c0-.68.07-1.36.1-2L122,13.49l-4.44.42,1.78,2.52a4.52,4.52,0,0,1-.08.63Z"/><path class="cls-2" d="M104.81,6l.6-.39L106,6l.64,1.41-1.19-.11-.07.05,0-.05-1.2.11C104.4,6.89,104.61,6.43,104.81,6Zm.61,3.15.5-.39L109,9l-1.85-4-1.72-1.1L103.7,5c-.63,1.4-1.26,2.79-1.83,4l3.06-.3.49.39Z"/><path class="cls-2" d="M124.54,25.59l-1.42.63c0-.41.08-.8.11-1.19l0-.06,0-.06c0-.38-.07-.77-.11-1.18l1.42.63a7,7,0,0,1,.39.63Zm-3.07-4.15c.1.94.19,2,.3,3l-.39.49.39.49c-.11,1.06-.2,2.1-.3,3.05l4-1.84,1.1-1.7-1.1-1.71Z"/><path class="cls-2" d="M95.66,8h.71l1.27,1.1-1.27.5V9h.1l-1,1.37c0-.53-.1-1-.15-1.55l.33-.63Zm1.15,3.17.63.08.23-.57,2.81-1.26L96.87,6.85l-2.05-.1-.93,1.81c.15,1.52.29,3,.42,4.41l2.54-1.77Z"/><path class="cls-2" d="M112.38,24.41l-1.13-1,.48-1.41,1.23-1a8.43,8.43,0,0,0,1,3.58Zm.58,4.51-1.23-1-.48-1.41,1.13-1,1.56-.22A8.73,8.73,0,0,0,113,28.92Zm-3,3.24-.59-1.45c.1-.48.19-1,.29-1.47l1.48-.29,1.46.58A8.39,8.39,0,0,0,110,32.16Zm-4.21,1.3c.07-.53.15-1,.22-1.54l1-1.12,1.42.48,1,1.23A8.63,8.63,0,0,0,105.77,33.46Zm-1.48-4.31-1.61.55c-.11-.56-.22-1.12-.33-1.66l-1.67-.32c.19-.55.37-1.09.56-1.61L100,25l1.27-1.12c-.19-.52-.37-1.06-.56-1.6l1.67-.32c.11-.55.22-1.1.33-1.67l1.61.55,1.12-1.26,1.12,1.26,1.61-.55c.12.57.23,1.12.33,1.67l1.68.32-.56,1.6L110.86,25l-1.27,1.11.56,1.61-1.68.32c-.1.54-.21,1.1-.33,1.66l-1.61-.55-1.12,1.26C105,30,104.66,29.54,104.29,29.15Zm-2.83,3.36c.34-.43.63-.82,1-1.23l1.43-.48,1,1.12c.07.51.15,1,.22,1.54A8.63,8.63,0,0,0,101.46,32.51Zm-.64-.52a8.33,8.33,0,0,0-2.63-2.62l1.45-.58,1.48.28.29,1.48L100.85,32Zm-3.95-6.64,1.55.22,1.14,1c-.17.49-.33.95-.5,1.41l-1.23,1A8.55,8.55,0,0,0,96.87,25.35Zm1-4.29,1.23,1c.17.46.33.92.5,1.41l-1.14,1-1.55.22A8.86,8.86,0,0,0,97.83,21.06Zm3-3.22.59,1.44-.29,1.48L99.64,21l-1.45-.58A8.43,8.43,0,0,0,100.82,17.84ZM105,16.52c-.08.54-.16,1-.23,1.54l-1,1.14-1.42-.49-1-1.22A8.7,8.7,0,0,0,105,16.52Zm4.3,1c-.33.42-.63.82-1,1.22L107,19.2l-1-1.14c-.07-.5-.14-1-.22-1.54A8.92,8.92,0,0,0,109.34,17.49Zm.64.35a8.35,8.35,0,0,0,2.64,2.62l-1.46.58-1.48-.28c-.1-.52-.19-1-.29-1.48Zm.52-1.62c-3.17-.45-2.07-.15-5.07-1.35a12.28,12.28,0,0,1-5.07,1.35c-2,2.52-1.22,1.75-3.73,3.72-.46,3.19-.18,2.12-1.37,5A12.12,12.12,0,0,1,96.63,30c2.54,2,1.76,1.21,3.73,3.7,3.22.46,2.13.18,5.07,1.36,3-1.2,1.94-.91,5.07-1.36,2-2.52,1.22-1.74,3.73-3.7.47-3.2.19-2.13,1.37-5.05-1.21-3-.91-1.93-1.37-5C111.7,17.93,112.48,18.72,110.5,16.22Z"/><path class="cls-2" d="M114.46,8h.71a2.61,2.61,0,0,0,.33.83c-.06.51-.11,1-.16,1.55l-1-1.38h.1v.62l-1.27-.5,1.27-.9Zm-1.06,3.22.63-.08,2.54,1.77c.12-1.33.27-2.86.42-4.41l-.94-1.8-2,.09L110.4,9.34l2.8,1.26.23.58Z"/><path class="cls-2" d="M96.37,42h-.71a3.41,3.41,0,0,0-.33-.86c0-.51.1-1,.15-1.56l1,1.42h-.08v-.66l1.25.5-1.27.9Zm1-3.26-.64.09L94.23,37c-.12,1.34-.27,2.87-.41,4.41l.93,1.81,2-.1,3.62-2.56L97.6,39.34Z"/><path class="cls-2" d="M88.33,15.84v-.72L89,14.8l1.56.15-.7,1a.11.11,0,0,1,0,.08h-.07c-.16.36-.33.71-.5,1.09-.31-.44-.63-.86-.9-1.26ZM91,17.26l.57-.23a4.94,4.94,0,0,0-.08-.63c.63-.87,1.23-1.72,1.78-2.53l-4.44-.41L87,14.39c0,.66.06,1.35.1,2L89.68,20c.39-.86.83-1.81,1.27-2.79Z"/><path class="cls-2" d="M89,35.22l-.63-.34v-.71c.29-.42.59-.83.9-1.26l.5,1.08h.07a.14.14,0,0,1,0,.09c.23.3.46.63.7,1Zm2.64-2.3L91,32.69c-.45-1-.89-1.93-1.27-2.79l-2.57,3.6c0,.68-.07,1.36-.1,2l1.81.93L93.33,36c-.55-.78-1.16-1.63-1.78-2.53,0-.2.06-.41.08-.63Z"/><path class="cls-2" d="M106,27.33a3.81,3.81,0,0,1-1.26,0,3.66,3.66,0,0,1-1.1-.63,3.73,3.73,0,0,1-.64-1.09,3.81,3.81,0,0,1,0-1.26,3.52,3.52,0,0,1,.64-1.09,3.54,3.54,0,0,1,1.1-.63,3.81,3.81,0,0,1,1.26,0,3.88,3.88,0,0,1,1.1.63,3.73,3.73,0,0,1,.64,1.09,3.81,3.81,0,0,1,0,1.26,3.52,3.52,0,0,1-.64,1.09A3.54,3.54,0,0,1,106,27.33Zm1.51-.34,1.91.19-1.1-1.54,1.73-.77-1.72-.79,1.09-1.54-1.91.18c.06-.63.12-1.26.19-1.89L106.2,22l-.79-1.72L104.62,22l-1.54-1.09.18,1.89-1.9-.18,1.12,1.51-1.72.79,1.72.78-1.1,1.54,1.91-.18c-.07.63-.12,1.26-.19,1.89l1.55-1.09.79,1.71.79-1.71,1.52,1.08c-.06-.63-.13-1.27-.18-1.9Z"/><path class="cls-2" d="M87.64,25l0,.05c0,.39.08.78.12,1.19l-1.42-.63L85.9,25l.39-.63,1.42-.63c0,.41-.08.8-.12,1.18Zm1.42.48.39-.48-.39-.49c.1-1.07.2-2.11.29-3.06l-4,1.83L84.21,25l1.11,1.7,4,1.84C89.26,27.58,89.16,26.54,89.06,25.47Z"/><path class="cls-2" d="M105.41,24.34A.63.63,0,1,0,106,25,.63.63,0,0,0,105.41,24.34Z"/></g></g><path class="cls-2" d="M8.43,22.39c.19-.45.41-1,.68-1.66s.55-1.35.84-2.09.59-1.49.89-2.26.58-1.48.84-2.16.47-1.27.65-1.79l.39-1.14c0-.14.09-.28.13-.42a1.55,1.55,0,0,0,.05-.34.79.79,0,0,0-.05-.25.53.53,0,0,0-.21-.21,1.59,1.59,0,0,0-.39-.07h-.37c-.15,0-.22,0-.22-.12s.14-.16.44-.16.79,0,1.19,0l.77,0h.21l.4,0,.48,0h.47c.23,0,.34,0,.34.14s-.08.14-.24.14l-.39,0a1.33,1.33,0,0,0-.57.21,1,1,0,0,0-.21.17,2.64,2.64,0,0,0-.24.32c-.09.14-.18.33-.29.55s-.23.51-.36.84l-.3.74c-.15.35-.32.77-.52,1.26s-.43,1-.67,1.62-.5,1.19-.75,1.8L9.83,21.29c-.44,1-.77,1.81-1,2.3L8.27,24.8c-.09.21-.19.31-.28.31s-.22-.09-.31-.26-.22-.5-.41-1L2.36,11.61a4.46,4.46,0,0,0-.31-.68,2.51,2.51,0,0,0-.31-.43,1,1,0,0,0-.36-.26c-.13-.06-.29-.11-.46-.17A2.24,2.24,0,0,0,.48,10H.16C.05,10,0,10,0,9.85s.17-.14.52-.14h.74l.7,0,.56,0h.34l.72,0c.38,0,.76,0,1.15,0s.54,0,.54.14-.07.14-.2.14l-.39,0a1.38,1.38,0,0,0-.37.08.44.44,0,0,0-.21.19.46.46,0,0,0,0,.21,2,2,0,0,0,.16.64c.1.3.23.64.38,1Z"/><path class="cls-2" d="M20.09,19.89c0,.83,0,1.56,0,2.2a13.22,13.22,0,0,0,.07,1.48,1.77,1.77,0,0,0,.14.61c.06.16.23.25.5.29a2.75,2.75,0,0,0,.44.06,2.71,2.71,0,0,0,.36,0,.13.13,0,0,1,.14.14c0,.1-.09.14-.28.14h-.74l-.7,0-.53,0H19l-.48,0-.55,0h-.48c-.18,0-.28,0-.28-.14a.13.13,0,0,1,.14-.14,1.32,1.32,0,0,0,.27,0,1.07,1.07,0,0,0,.27-.06.41.41,0,0,0,.34-.29,2.11,2.11,0,0,0,.12-.61c0-.34.07-.84.08-1.48s0-1.37,0-2.2v-5.6c0-.26,0-.47,0-.63a3,3,0,0,0,0-.43,1.57,1.57,0,0,0-.16-.65.56.56,0,0,0-.4-.27l-.3-.05h-.24a.12.12,0,0,1-.14-.14c0-.09.1-.14.28-.14H21c.18,0,.28,0,.28.14a.12.12,0,0,1-.14.14H21l-.24,0a.69.69,0,0,0-.47.28,1.6,1.6,0,0,0-.15.66c0,.14,0,.28,0,.43s0,.37,0,.63v5.6Z"/><path class="cls-2" d="M28.84,24.59a6.93,6.93,0,0,1-2.42-1.36A5.91,5.91,0,0,1,25.35,22a6,6,0,0,1-.66-1.28,6.14,6.14,0,0,1-.33-1.31,9.34,9.34,0,0,1-.09-1.26,6.47,6.47,0,0,1,.09-1A7.49,7.49,0,0,1,24.67,16a6.84,6.84,0,0,1,.61-1.25,7.15,7.15,0,0,1,1-1.21,6.78,6.78,0,0,1,.92-.71,6.28,6.28,0,0,1,1.16-.58,8.81,8.81,0,0,1,1.46-.39,11.17,11.17,0,0,1,1.83-.14c.35,0,.76,0,1.22,0s.92.09,1.35.15.64.13.93.17a6.1,6.1,0,0,0,.87.09c.14,0,.22.06.22.18s0,.17,0,.3,0,.36-.06.66c0,.15,0,.31,0,.48s0,.35,0,.52,0,.31,0,.45,0,.24,0,.29c0,.24-.08.36-.2.36s-.14-.12-.14-.36a2.46,2.46,0,0,0-.2-1,2.18,2.18,0,0,0-.54-.74,3.85,3.85,0,0,0-1.38-.67,7.31,7.31,0,0,0-2.09-.27,10.66,10.66,0,0,0-1.48.1A6.45,6.45,0,0,0,29,12.8a4.28,4.28,0,0,0-.8.38,4.7,4.7,0,0,0-.57.43,4.22,4.22,0,0,0-1.29,2,9.38,9.38,0,0,0-.3,2.42,6.18,6.18,0,0,0,.46,2.34,6,6,0,0,0,1.31,2,6.09,6.09,0,0,0,2,1.35,6.32,6.32,0,0,0,2.58.5,8.32,8.32,0,0,0,1.7-.14,2.31,2.31,0,0,0,1.21-.66,2.18,2.18,0,0,0,.46-.73,3.94,3.94,0,0,0,.22-.69A.85.85,0,0,1,36,21.8s0-.05.12-.05.07,0,.11.07a.34.34,0,0,1,.05.17s0,.13,0,.31-.06.39-.1.61-.09.46-.14.69-.1.43-.14.57a1.39,1.39,0,0,1-.15.32.8.8,0,0,1-.29.18A4.88,4.88,0,0,1,34,25c-.59.05-1.17.08-1.75.08A10.7,10.7,0,0,1,28.84,24.59Z"/><path class="cls-2" d="M44.2,19.89c0,.83,0,1.56,0,2.2s0,1.14.07,1.48a1.73,1.73,0,0,0,.16.61.63.63,0,0,0,.52.29,2.34,2.34,0,0,0,.43.06,2.93,2.93,0,0,0,.37,0,.13.13,0,0,1,.14.14c0,.1-.09.14-.28.14h-.73l-.68,0-.52,0h-.5l-.5,0-.58,0h-.49c-.19,0-.29,0-.29-.14s.05-.12.15-.12a1.28,1.28,0,0,0,.26,0,1.1,1.1,0,0,0,.26-.06.51.51,0,0,0,.38-.3,2.61,2.61,0,0,0,.14-.62c0-.34.06-.84.07-1.48s0-1.37,0-2.2V12.75l-2.55,0a5.77,5.77,0,0,0-1.21.13,1,1,0,0,0-.57.41,1.76,1.76,0,0,0-.2.33c0,.08,0,.15-.08.21s-.09.16-.18.16a.13.13,0,0,1-.08,0s0-.05,0-.11a2.65,2.65,0,0,1,.06-.34c0-.18.08-.38.13-.59s.09-.4.13-.58a2.35,2.35,0,0,0,.06-.33,1.29,1.29,0,0,0,.09-.2q0-.12.09-.12a.68.68,0,0,1,.26.08,1.37,1.37,0,0,0,.52.12c.26,0,.52.05.8.06s.48,0,.58,0h6.65c.3,0,.54,0,.74,0a3.4,3.4,0,0,0,.52-.06l.32-.06.18,0c.06,0,.09.07.09.2s0,.3,0,.5,0,.4,0,.59,0,.37,0,.53,0,.27,0,.32-.05.22-.16.22a.1.1,0,0,1-.09-.06,1.16,1.16,0,0,1-.05-.24l0-.18a.77.77,0,0,0-.12-.36.88.88,0,0,0-.33-.29,2.2,2.2,0,0,0-.64-.2c-.27,0-.61-.07-1-.09l-2.2,0Z"/><path class="cls-2" d="M51,16.18A6.58,6.58,0,0,1,52.24,14a6.87,6.87,0,0,1,2.17-1.64,7.11,7.11,0,0,1,3.15-.65,8.54,8.54,0,0,1,2.76.44,6.59,6.59,0,0,1,2.21,1.27,6,6,0,0,1,1.46,2,6.35,6.35,0,0,1,.54,2.66A6.93,6.93,0,0,1,64,20.8,6.48,6.48,0,0,1,62.58,23a6.57,6.57,0,0,1-2.23,1.49,7.33,7.33,0,0,1-2.89.55,7.22,7.22,0,0,1-3.11-.61A6.27,6.27,0,0,1,51,20.7a7.18,7.18,0,0,1-.4-2.33A6.48,6.48,0,0,1,51,16.18Zm1.83,4.4a6,6,0,0,0,1.17,2,5.17,5.17,0,0,0,1.76,1.29,5.44,5.44,0,0,0,2.22.45,5.73,5.73,0,0,0,1.41-.21,4,4,0,0,0,1.56-.83,4.81,4.81,0,0,0,1.27-1.75,7.1,7.1,0,0,0,.52-3,7.71,7.71,0,0,0-.43-2.69,5.53,5.53,0,0,0-1.16-2,5,5,0,0,0-1.68-1.18,5.24,5.24,0,0,0-2-.4,5.82,5.82,0,0,0-2,.35,4.43,4.43,0,0,0-1.6,1,4.75,4.75,0,0,0-1,1.73,7.15,7.15,0,0,0-.38,2.42A8,8,0,0,0,52.81,20.58Z"/><path class="cls-2" d="M68.75,16.89v-2.6c0-.26,0-.47,0-.63l0-.43a1.86,1.86,0,0,0-.16-.66.73.73,0,0,0-.56-.28l-.29,0h-.31a.12.12,0,0,1-.14-.14c0-.09.09-.14.28-.14h4.29a12.54,12.54,0,0,1,1.71.13,3.77,3.77,0,0,1,1.57.61,3.28,3.28,0,0,1,.37.33,3.12,3.12,0,0,1,.4.51,3.45,3.45,0,0,1,.32.67,2.37,2.37,0,0,1,.13.81,4.26,4.26,0,0,1-.47,1.89,6.51,6.51,0,0,1-1.69,2c.72.91,1.39,1.74,2,2.48s1.18,1.39,1.68,1.92a4.53,4.53,0,0,0,1.16.93,2.62,2.62,0,0,0,.81.25,2.53,2.53,0,0,0,.4.05h.22c.1,0,.16.05.16.14s0,.09-.09.11a1.21,1.21,0,0,1-.33,0H79.06a5.67,5.67,0,0,1-1.15-.08,2.65,2.65,0,0,1-.73-.26,3.7,3.7,0,0,1-1.11-.92c-.35-.41-.78-.94-1.29-1.58-.19-.22-.37-.46-.56-.71s-.37-.48-.53-.7L73.23,20l-.35-.46a.37.37,0,0,0-.24-.1l-2.25,0c-.08,0-.12.05-.12.14v.4c0,.83,0,1.56,0,2.19s0,1.13.07,1.47a1.71,1.71,0,0,0,.17.61.68.68,0,0,0,.53.29,2.35,2.35,0,0,0,.42.06,2.93,2.93,0,0,0,.37,0,.13.13,0,0,1,.14.14c0,.1-.1.14-.28.14H71l-.68,0-.52,0h-.23l-.67,0-.57,0h-.5c-.19,0-.28,0-.28-.14a.13.13,0,0,1,.14-.14,1.32,1.32,0,0,0,.27,0,1.07,1.07,0,0,0,.27-.06.41.41,0,0,0,.33-.29,3.91,3.91,0,0,0,.13-.61,12.33,12.33,0,0,0,.09-1.48c0-.64,0-1.37,0-2.2Zm1.52,1.44a.24.24,0,0,0,.12.22.87.87,0,0,0,.3.1,4.56,4.56,0,0,0,.47.08,4.93,4.93,0,0,0,.58.06c.2,0,.4,0,.6,0a5.07,5.07,0,0,0,.66,0,1.41,1.41,0,0,0,.66-.26,2.23,2.23,0,0,0,.76-1,3.94,3.94,0,0,0,.3-1.64,3.5,3.5,0,0,0-.81-2.47,2.91,2.91,0,0,0-2.23-.87c-.27,0-.53,0-.77,0a4.2,4.2,0,0,0-.5.07c-.09.06-.14.12-.14.2Z"/><path class="cls-2" d="M83.81,19.89c0,.83,0,1.56,0,2.2s0,1.14.07,1.48a2,2,0,0,0,.14.61c.07.16.23.25.5.29a2.92,2.92,0,0,0,.44.06,2.71,2.71,0,0,0,.36,0,.12.12,0,0,1,.14.14c0,.1-.09.14-.28.14h-.74l-.7,0-.53,0h-.47l-.47,0-.55,0h-.48c-.19,0-.28,0-.28-.14a.12.12,0,0,1,.14-.14,1.32,1.32,0,0,0,.27,0,1.07,1.07,0,0,0,.27-.06.43.43,0,0,0,.34-.29,3.11,3.11,0,0,0,.12-.61c0-.34.07-.84.08-1.48s0-1.37,0-2.2v-5.6c0-.26,0-.47,0-.63l0-.43a1.75,1.75,0,0,0-.16-.65.58.58,0,0,0-.4-.27l-.3-.05h-.24c-.1,0-.14,0-.14-.14S81,12,81.21,12h3.54c.19,0,.28,0,.28.14s0,.14-.14.14h-.2l-.24,0a.72.72,0,0,0-.47.28,2,2,0,0,0-.15.66c0,.14,0,.28,0,.43s0,.37,0,.63v5.6Z"/><path class="cls-2" d="M92.68,12.31a4.11,4.11,0,0,1,.24-.54.24.24,0,0,1,.18-.12.22.22,0,0,1,.21.17q.07.18.21.45c.06.12.17.4.35.84s.4,1,.66,1.59l.83,2c.3.74.59,1.47.89,2.19L97.08,21c.26.65.48,1.19.67,1.61a6.09,6.09,0,0,0,.45.92,2.91,2.91,0,0,0,.4.54,1.15,1.15,0,0,0,.35.28,1.17,1.17,0,0,0,.3.12,1.84,1.84,0,0,0,.38.08,1.89,1.89,0,0,0,.32,0,.33.33,0,0,1,.15,0,.11.11,0,0,1,.07.11c0,.06,0,.09-.12.11a1.14,1.14,0,0,1-.28,0H97.9l-.91,0-.44,0q-.18,0-.18-.09s0-.06,0-.07a.21.21,0,0,0,.09-.05.5.5,0,0,0,.17-.14c.06-.06,0-.17,0-.32l-1.58-3.9a.2.2,0,0,0-.16-.1H90.84a.2.2,0,0,0-.18.14l-1,2.72a3.47,3.47,0,0,0-.26,1.14.35.35,0,0,0,.19.36.83.83,0,0,0,.41.1h.16c.12,0,.18.05.18.14s-.09.14-.26.14h-.4l-.48,0-.43,0h-.52l-.44,0-.54,0h-.55c-.23,0-.35,0-.35-.14s.06-.14.16-.14h.27a1,1,0,0,0,.26,0A1.28,1.28,0,0,0,88,24,5.43,5.43,0,0,0,88.54,23Zm2,7.08s.07,0,.06-.12L93,14.61q-.15-.37-.3,0L91,19.27q0,.12.06.12Z"/><path class="cls-2" d="M112.38,24.57A7.94,7.94,0,0,1,109.61,23a6.77,6.77,0,0,1-1.2-1.4,7.58,7.58,0,0,1-1.12-3,11,11,0,0,1-.11-1.49,8.2,8.2,0,0,1,.45-2.57,8.87,8.87,0,0,1,.69-1.48,7.26,7.26,0,0,1,1.1-1.41,8.14,8.14,0,0,1,1-.84,6.28,6.28,0,0,1,1.32-.68,10.86,10.86,0,0,1,1.67-.45,12,12,0,0,1,2.09-.17c.4,0,.86,0,1.38.05a15.22,15.22,0,0,1,1.53.19l1.07.18a8.28,8.28,0,0,0,1,.12.45.45,0,0,1,.21.07.25.25,0,0,1,0,.15,2.88,2.88,0,0,1,0,.35c0,.16,0,.41-.07.77,0,.16,0,.35,0,.55s0,.41,0,.61,0,.38,0,.54,0,.28,0,.36q0,.42-.18.42c-.11,0-.16-.14-.16-.42a3.08,3.08,0,0,0-.22-1.14,2.37,2.37,0,0,0-.62-.9,4.65,4.65,0,0,0-1.6-.8,8.25,8.25,0,0,0-2.41-.34,10.94,10.94,0,0,0-1.74.13,7.51,7.51,0,0,0-1.29.34,4.47,4.47,0,0,0-.93.47,4.61,4.61,0,0,0-.64.52A5.16,5.16,0,0,0,109.33,14a11.24,11.24,0,0,0-.35,2.85A7.52,7.52,0,0,0,111,22a7.07,7.07,0,0,0,5.21,2.23,9.37,9.37,0,0,0,2-.19,2.75,2.75,0,0,0,1.47-.81,2.44,2.44,0,0,0,.51-.87,4.4,4.4,0,0,0,.23-.81c0-.2.11-.3.2-.3a.11.11,0,0,1,.11.09.66.66,0,0,1,0,.21,3.27,3.27,0,0,1,0,.37c0,.21-.06.45-.1.71s-.09.54-.14.81a6.11,6.11,0,0,1-.16.67,1.46,1.46,0,0,1-.17.37,1,1,0,0,1-.35.21,4.49,4.49,0,0,1-.72.21,7.73,7.73,0,0,1-.9.14l-1,.08-1,0A11.86,11.86,0,0,1,112.38,24.57Z"/><path class="cls-2" d="M127.81,12.31a4.11,4.11,0,0,1,.24-.54.21.21,0,0,1,.18-.12c.09,0,.16.06.21.17s.12.27.21.45l.35.84.65,1.59.83,2,.89,2.19c.3.72.57,1.41.83,2.05s.49,1.19.68,1.61a6.09,6.09,0,0,0,.45.92,2.91,2.91,0,0,0,.4.54,1,1,0,0,0,.35.28.94.94,0,0,0,.3.12,2.45,2.45,0,0,0,.7.1.4.4,0,0,1,.15,0,.11.11,0,0,1,.07.11c0,.06,0,.09-.12.11a1.14,1.14,0,0,1-.28,0H133l-.92,0-.44,0q-.18,0-.18-.09s0-.06,0-.07a.21.21,0,0,0,.09-.05.42.42,0,0,0,.17-.14c.06-.06.06-.17,0-.32l-1.58-3.9a.19.19,0,0,0-.16-.1H126a.2.2,0,0,0-.18.14l-1,2.72a3.47,3.47,0,0,0-.26,1.14.36.36,0,0,0,.2.36.79.79,0,0,0,.4.1h.17c.12,0,.18.05.18.14s-.09.14-.26.14h-.4l-.49,0-.43,0h-.52l-.44,0-.54,0h-.55c-.23,0-.34,0-.34-.14s0-.14.16-.14h.26a.93.93,0,0,0,.26,0,1.26,1.26,0,0,0,.91-.5,4.54,4.54,0,0,0,.57-1.06Zm2,7.08s.08,0,.06-.12l-1.74-4.66q-.16-.37-.3,0l-1.64,4.66q0,.12.06.12Z"/><path class="cls-2" d="M141.47,19.89c0,.83,0,1.56,0,2.2a13.22,13.22,0,0,0,.07,1.48,1.54,1.54,0,0,0,.16.61.63.63,0,0,0,.52.29,2.34,2.34,0,0,0,.43.06,2.93,2.93,0,0,0,.37,0,.13.13,0,0,1,.14.14c0,.1-.09.14-.28.14h-.73l-.68,0-.52,0h-.51l-.5,0-.58,0h-.49c-.18,0-.28,0-.28-.14s.05-.12.14-.12a1.18,1.18,0,0,0,.26,0,1,1,0,0,0,.26-.06.48.48,0,0,0,.38-.3,1.9,1.9,0,0,0,.14-.62,13.22,13.22,0,0,0,.07-1.48c0-.64,0-1.37,0-2.2V12.75l-2.54,0a5.77,5.77,0,0,0-1.21.13,1,1,0,0,0-.57.41,1.76,1.76,0,0,0-.2.33l-.08.21c0,.11-.09.16-.18.16a.11.11,0,0,1-.08,0s0-.05,0-.11a2.65,2.65,0,0,1,.06-.34c0-.18.08-.38.13-.59s.09-.4.13-.58a2.35,2.35,0,0,0,.06-.33,1.29,1.29,0,0,0,.09-.2q0-.12.09-.12a.68.68,0,0,1,.26.08,1.37,1.37,0,0,0,.52.12c.25,0,.52.05.8.06s.47,0,.58,0h6.65c.29,0,.54,0,.74,0a3.56,3.56,0,0,0,.52-.06l.32-.06.18,0c.06,0,.08.07.08.2s0,.3,0,.5,0,.4,0,.59,0,.37,0,.53,0,.27,0,.32-.05.22-.16.22a.1.1,0,0,1-.09-.06,1.16,1.16,0,0,1-.05-.24l0-.18a.77.77,0,0,0-.12-.36,1,1,0,0,0-.33-.29,2.31,2.31,0,0,0-.64-.2c-.27,0-.62-.07-1-.09l-2.2,0Z"/><path class="cls-2" d="M149.84,16.89v-2.6c0-.26,0-.47,0-.63l0-.43a1.86,1.86,0,0,0-.16-.66.73.73,0,0,0-.56-.28l-.29,0h-.31c-.1,0-.15,0-.15-.14s.1-.14.29-.14h6.24l.48,0a2.41,2.41,0,0,0,.32-.05l.12-.05a.31.31,0,0,1,.13,0c.05,0,.08.06.08.16a1.12,1.12,0,0,1-.05.27,3,3,0,0,0-.1.53,2,2,0,0,1,0,.21,2,2,0,0,1,0,.33c0,.12,0,.24,0,.34a1,1,0,0,1,0,.24.61.61,0,0,1-.05.12.14.14,0,0,1-.11.06c-.09,0-.14-.07-.14-.22a1.53,1.53,0,0,0,0-.27,1.32,1.32,0,0,0-.08-.33.58.58,0,0,0-.11-.18A.51.51,0,0,0,155,13a2.66,2.66,0,0,0-.36-.11l-.58-.09-.5,0-.81,0h-1.23c-.07,0-.1.06-.1.18v4.62c0,.12,0,.18.1.18h2.34a3.77,3.77,0,0,0,.6,0l.52-.07a.53.53,0,0,0,.34-.17,1.4,1.4,0,0,1,.26-.22c.07,0,.1,0,.1.14a1.13,1.13,0,0,1,0,.3c0,.15-.06.36-.09.64s0,.39-.06.63,0,.41,0,.47a.76.76,0,0,1,0,.21c0,.08-.06.11-.13.11s-.12-.05-.12-.16a2.44,2.44,0,0,0,0-.26.92.92,0,0,0-.07-.3.53.53,0,0,0-.21-.32,1.45,1.45,0,0,0-.69-.2l-.58,0-.82,0h-1.26a.11.11,0,0,0-.12.12v4.32a3,3,0,0,0,.1.69.73.73,0,0,0,.31.42,1.42,1.42,0,0,0,.63.2,7.72,7.72,0,0,0,1.06,0c.23,0,.52,0,.88,0a2.34,2.34,0,0,0,.88-.16,1.24,1.24,0,0,0,.53-.41,1.7,1.7,0,0,0,.28-.77c0-.17.1-.26.18-.26a.11.11,0,0,1,.1.08,1.1,1.1,0,0,1,0,.18s0,.11,0,.25,0,.3-.06.48-.06.36-.08.52-.06.3-.08.39a.65.65,0,0,1-.12.25.31.31,0,0,1-.17.13.62.62,0,0,1-.27.05h-.43c-.66,0-1.25,0-1.76,0l-1.3,0c-.37,0-.68,0-.92,0h-.8l-.5,0-.53,0h-.49c-.19,0-.28,0-.28-.14a.12.12,0,0,1,.14-.14l.27,0,.27-.05a.37.37,0,0,0,.33-.28c0-.16.09-.36.13-.62a12.33,12.33,0,0,0,.09-1.48c0-.64,0-1.37,0-2.2Z"/><path class="cls-2" d="M160.87,16.89v-2.6c0-.26,0-.47,0-.63l0-.43a1.86,1.86,0,0,0-.16-.66.73.73,0,0,0-.56-.28l-.29,0h-.31a.12.12,0,0,1-.14-.14c0-.09.09-.14.28-.14h4.29a12.54,12.54,0,0,1,1.71.13,3.77,3.77,0,0,1,1.57.61,3.28,3.28,0,0,1,.37.33,3.12,3.12,0,0,1,.4.51,3.45,3.45,0,0,1,.32.67,2.37,2.37,0,0,1,.13.81,4.26,4.26,0,0,1-.47,1.89,6.51,6.51,0,0,1-1.69,2c.72.91,1.39,1.74,2,2.48s1.18,1.39,1.68,1.92a4.53,4.53,0,0,0,1.16.93,2.62,2.62,0,0,0,.81.25,2.53,2.53,0,0,0,.4.05h.22c.1,0,.16.05.16.14s0,.09-.09.11a1.21,1.21,0,0,1-.33,0h-1.1a5.72,5.72,0,0,1-1.16-.08,2.65,2.65,0,0,1-.73-.26,3.58,3.58,0,0,1-1.11-.92c-.35-.41-.78-.94-1.29-1.58-.19-.22-.38-.46-.56-.71s-.37-.48-.53-.7l-.46-.61-.35-.46a.37.37,0,0,0-.24-.1l-2.25,0c-.08,0-.12.05-.12.14v.4c0,.83,0,1.56,0,2.19s0,1.13.07,1.47a1.71,1.71,0,0,0,.17.61.68.68,0,0,0,.53.29,2.34,2.34,0,0,0,.43.06,2.58,2.58,0,0,0,.35,0c.1,0,.15.05.15.14s-.1.14-.28.14h-.74l-.68,0-.52,0h-.23l-.67,0-.57,0h-.5c-.19,0-.28,0-.28-.14a.13.13,0,0,1,.14-.14,1.32,1.32,0,0,0,.27,0,1.07,1.07,0,0,0,.27-.06.41.41,0,0,0,.33-.29,3.91,3.91,0,0,0,.13-.61,12.33,12.33,0,0,0,.09-1.48c0-.64,0-1.37,0-2.2Zm1.52,1.44a.24.24,0,0,0,.12.22.87.87,0,0,0,.3.1,4.56,4.56,0,0,0,.47.08,5.16,5.16,0,0,0,.58.06c.2,0,.4,0,.6,0a5.07,5.07,0,0,0,.66,0,1.41,1.41,0,0,0,.66-.26,2.23,2.23,0,0,0,.76-1,3.94,3.94,0,0,0,.3-1.64,3.5,3.5,0,0,0-.81-2.47,2.92,2.92,0,0,0-2.24-.87c-.26,0-.52,0-.76,0a4.2,4.2,0,0,0-.5.07c-.09.06-.14.12-.14.2Z"/><path class="cls-2" d="M175.93,19.89c0,.83,0,1.56,0,2.2s0,1.14.07,1.48a2,2,0,0,0,.14.61c.07.16.23.25.5.29a2.75,2.75,0,0,0,.44.06,2.71,2.71,0,0,0,.36,0,.12.12,0,0,1,.14.14c0,.1-.09.14-.28.14h-.74l-.7,0-.53,0h-.47l-.47,0-.55,0h-.48c-.19,0-.28,0-.28-.14a.12.12,0,0,1,.14-.14,1.32,1.32,0,0,0,.27,0,1.07,1.07,0,0,0,.27-.06.44.44,0,0,0,.34-.29,3.11,3.11,0,0,0,.12-.61c0-.34.06-.84.08-1.48s0-1.37,0-2.2v-5.6c0-.26,0-.47,0-.63l0-.43a1.75,1.75,0,0,0-.16-.65.58.58,0,0,0-.4-.27l-.3-.05h-.24c-.1,0-.14,0-.14-.14s.09-.14.28-.14h3.54c.19,0,.28,0,.28.14s0,.14-.14.14h-.2l-.24,0a.69.69,0,0,0-.47.28,2,2,0,0,0-.15.66c0,.14,0,.28,0,.43s0,.37,0,.63v5.6Z"/><path class="cls-2" d="M182.86,22.51q0,.52.06.87A3.06,3.06,0,0,0,183,24a.73.73,0,0,0,.2.34.54.54,0,0,0,.3.15,2.74,2.74,0,0,0,.5.08,3.15,3.15,0,0,0,.38,0,.12.12,0,0,1,.14.14c0,.1-.1.14-.32.14-.51,0-.92,0-1.25,0l-.61,0-.61,0c-.33,0-.69,0-1.09,0-.19,0-.28,0-.28-.14a.12.12,0,0,1,.14-.14,2.09,2.09,0,0,0,.31,0,2,2,0,0,0,.41-.08.48.48,0,0,0,.26-.16,1,1,0,0,0,.15-.36,4.28,4.28,0,0,0,.07-.63c0-.26,0-.58,0-1V12.59a2.12,2.12,0,0,1,.07-.69c0-.11.1-.17.17-.17a.56.56,0,0,1,.35.19l.33.33.6.63c.33.36.75.8,1.26,1.33l1.72,1.8,2,2c.44.46.88.91,1.31,1.37l1.22,1.29,1,1.06.63.66-.18-8.52a4.13,4.13,0,0,0-.14-1.16.65.65,0,0,0-.52-.42l-.5-.06-.36,0q-.11,0-.12-.06a.44.44,0,0,1,0-.1c0-.08.11-.12.34-.12l1.14,0,.7,0c.11,0,.3,0,.56,0l.95,0c.21,0,.32,0,.32.12a.19.19,0,0,1-.05.1.2.2,0,0,1-.15.06h-.16a1.76,1.76,0,0,0-.27,0,.89.89,0,0,0-.34.14.64.64,0,0,0-.18.27,2.21,2.21,0,0,0-.08.43c0,.18,0,.39,0,.64l0,10c0,.28,0,.5,0,.66a3.12,3.12,0,0,1,0,.37.24.24,0,0,1,0,.16.09.09,0,0,1-.07,0,.3.3,0,0,1-.14,0,1.05,1.05,0,0,1-.23-.15,4.82,4.82,0,0,1-.38-.31c-.15-.13-.35-.31-.59-.54l-.53-.51c-.31-.3-.69-.67-1.13-1.12l-1.44-1.46c-.52-.52-1-1-1.48-1.51l-1.5-1.57-1.35-1.42-1.07-1.13c-.3-.32-.52-.55-.65-.7Z"/><path class="cls-2" d="M207.09,20.49c0-.34,0-.62,0-.83a1.53,1.53,0,0,0-.09-.49.45.45,0,0,0-.23-.26,2,2,0,0,0-.42-.14l-.29,0h-.31a.12.12,0,0,1-.14-.14c0-.09.09-.14.28-.14h3.81c.18,0,.28.05.28.14a.12.12,0,0,1-.14.14h-.2a1.48,1.48,0,0,0-.24,0,.7.7,0,0,0-.5.27,1.79,1.79,0,0,0-.17.67c0,.27,0,.54,0,.82v2.84a4,4,0,0,1,0,.71.36.36,0,0,1-.21.21,4.32,4.32,0,0,1-.91.36,7.93,7.93,0,0,1-1,.23c-.33.06-.66.1-1,.13s-.61,0-.86,0-.73,0-1.19-.05a8.31,8.31,0,0,1-1.47-.24,8.93,8.93,0,0,1-1.6-.55,6.49,6.49,0,0,1-1.55-1,4.56,4.56,0,0,1-.78-.84,5.83,5.83,0,0,1-.67-1.12,7.38,7.38,0,0,1-.47-1.35,6.29,6.29,0,0,1-.18-1.53A7.09,7.09,0,0,1,197,16.5a6.7,6.7,0,0,1,.64-1.57,6.07,6.07,0,0,1,.94-1.23,6.93,6.93,0,0,1,1.12-.89,6.6,6.6,0,0,1,2.44-.9,15.64,15.64,0,0,1,2.25-.18l.85,0,.8.08.65.1.4.07.68.12a5.12,5.12,0,0,0,.74.06c.15,0,.22.06.22.16a1.06,1.06,0,0,1,0,.24c0,.1,0,.23,0,.41s0,.41,0,.69,0,.64,0,1.06c0,.15,0,.25,0,.29a.16.16,0,0,1-.15.07c-.08,0-.12-.08-.12-.26a3.22,3.22,0,0,0-.1-.49,1.66,1.66,0,0,0-.3-.63,3,3,0,0,0-1.34-.9,7.18,7.18,0,0,0-2.72-.42,10,10,0,0,0-1.74.17,4.81,4.81,0,0,0-2,.93A4.36,4.36,0,0,0,199,15.19a6.32,6.32,0,0,0-.49,2.6,6.77,6.77,0,0,0,.2,1.67,7.28,7.28,0,0,0,.49,1.37,6.7,6.7,0,0,0,.61,1,5.05,5.05,0,0,0,.56.64,6.32,6.32,0,0,0,2.18,1.38,6.75,6.75,0,0,0,2.33.4,9.37,9.37,0,0,0,1-.06,2.13,2.13,0,0,0,.89-.26,1.17,1.17,0,0,0,.26-.19.42.42,0,0,0,.1-.33Z"/><path class="cls-2" d="M41.06,40V31.42h3.77a2.69,2.69,0,0,1,2,.67,2.88,2.88,0,0,1,0,3.73,2.63,2.63,0,0,1-2,.66H42.2V40Zm1.14-7.61v3.14h2.25c1.25,0,1.88-.51,1.88-1.57s-.63-1.57-1.88-1.57Z"/><path class="cls-2" d="M53.22,40V31.42h6v1h-4.8V35.1h4.48v1H54.37v3h4.84v1Z"/><path class="cls-2" d="M64.94,40V31.42h3a4.25,4.25,0,0,1,3.07,1A4.05,4.05,0,0,1,72,35.5Q72,40,67.9,40Zm1.15-7.61V39H68a5.86,5.86,0,0,0,.61,0,3.16,3.16,0,0,0,.75-.24,2.44,2.44,0,0,0,.76-.54,3,3,0,0,0,.55-1,4.84,4.84,0,0,0,.23-1.56,3.83,3.83,0,0,0-.68-2.45A2.67,2.67,0,0,0,68,32.38Z"/><path class="cls-2" d="M76.76,40l3.36-8.57h1.27L84.76,40H83.49l-.94-2.58H78.9l-1,2.58Zm4-7.54-1.46,4h2.92l-1.44-4Z"/><path class="cls-2" d="M89.93,40V31.42h1.22l4.54,6.95h0V31.42H96.8V40H95.55L91,33.11h0V40Z"/><path class="cls-2" d="M117.45,40l-.3-1.07a3,3,0,0,1-1.21.95,3.82,3.82,0,0,1-1.56.32,3.74,3.74,0,0,1-3-1.28,4.44,4.44,0,0,1-1.13-3,5.18,5.18,0,0,1,1.07-3.32,3.67,3.67,0,0,1,3-1.33,4.17,4.17,0,0,1,2.48.7,3,3,0,0,1,1.23,2.14h-1.15a2.08,2.08,0,0,0-.86-1.41,2.91,2.91,0,0,0-1.7-.47,2.86,2.86,0,0,0-1.33.3,2.49,2.49,0,0,0-.93.83,4.07,4.07,0,0,0-.52,1.16,5.29,5.29,0,0,0-.17,1.34,3.76,3.76,0,0,0,.79,2.42,2.59,2.59,0,0,0,2.16,1,2.7,2.7,0,0,0,2.07-.8,2.59,2.59,0,0,0,.7-2H114.4v-1h3.77V40Z"/><path class="cls-2" d="M124.21,40V31.42h4a2.84,2.84,0,0,1,1.92.61,2,2,0,0,1,.7,1.63,2.51,2.51,0,0,1-.37,1.39,1.88,1.88,0,0,1-1.13.79v0a1.34,1.34,0,0,1,1,.58,3,3,0,0,1,.34,1.18c0,.07,0,.27,0,.61s0,.57.06.7a3.53,3.53,0,0,0,.13.52,1.7,1.7,0,0,0,.27.54H129.9a1,1,0,0,1-.18-.49c0-.22,0-.49-.05-.81a5.25,5.25,0,0,0-.08-.81,3.45,3.45,0,0,0-.12-.61,2,2,0,0,0-.22-.47,1,1,0,0,0-.43-.36,1.84,1.84,0,0,0-.67-.11h-2.8V40Zm1.14-4.62h2.39A2.75,2.75,0,0,0,129.2,35a1.29,1.29,0,0,0,.53-1.2,1.45,1.45,0,0,0-.38-1.06,1.49,1.49,0,0,0-1.15-.4h-2.85Z"/><path class="cls-2" d="M136.78,37.9a5.7,5.7,0,0,1,0-4.39,3.93,3.93,0,0,1,1.41-1.65,4.36,4.36,0,0,1,4.55,0,3.83,3.83,0,0,1,1.4,1.65,5.58,5.58,0,0,1,0,4.39,3.81,3.81,0,0,1-1.4,1.64,4.08,4.08,0,0,1-6-1.64Zm1-3.88a4.6,4.6,0,0,0-.3,1.68,4.66,4.66,0,0,0,.3,1.69,3,3,0,0,0,1,1.31,2.71,2.71,0,0,0,1.69.53,2.74,2.74,0,0,0,1.7-.53,3,3,0,0,0,1-1.31,4.65,4.65,0,0,0,.29-1.69,4.6,4.6,0,0,0-.29-1.68,3,3,0,0,0-1-1.31,2.67,2.67,0,0,0-1.7-.53,2.65,2.65,0,0,0-1.69.53A3,3,0,0,0,137.78,34Z"/><path class="cls-2" d="M157.22,31.42v5.47a3.27,3.27,0,0,1-.89,2.46,3.48,3.48,0,0,1-2.51.84,3.82,3.82,0,0,1-2.62-.81,3.18,3.18,0,0,1-.91-2.49V31.42h1.14v5.47a2.32,2.32,0,0,0,.63,1.74,2.42,2.42,0,0,0,1.76.6,2.22,2.22,0,0,0,1.67-.6,2.42,2.42,0,0,0,.58-1.74V31.42Z"/><path class="cls-2" d="M163.39,40V31.42h3.78a2.66,2.66,0,0,1,2,.67,2.45,2.45,0,0,1,.68,1.86,2.51,2.51,0,0,1-.68,1.87,2.63,2.63,0,0,1-2,.66h-2.63V40Zm1.15-7.61v3.14h2.24c1.26,0,1.89-.51,1.89-1.57s-.63-1.57-1.89-1.57Z"/></g></g></svg>