<svg xmlns="http://www.w3.org/2000/svg" viewBox="0 0 269.67 50"><defs><style>.cls-1,.cls-2,.cls-4{fill:#fff;}.cls-2{font-size:20px;font-family:TrajanPro-Regular, Trajan Pro;}.cls-3{letter-spacing:0em;}.cls-4{font-size:12px;font-family:HelveticaKVAFont, Helvetica KVA Font;letter-spacing:0.36em;}</style></defs><title>Ресурс 1</title><g id="Слой_2" data-name="Слой 2"><g id="Слой_3" data-name="Слой 3"><g id="Слой_1-2" data-name="Слой 1-2"><path class="cls-1" d="M39,21.31,36.44,23.1,37.2,25c-.26.63-.51,1.26-.76,1.89L39,28.67l.25-2.6L38.36,25l.85-1.09c-.1-1-.19-2-.25-2.6Z"/><path class="cls-1" d="M31.09,14.39,32.35,16l2.81-1.26L33,13.23l-1.36.19c-.16-.39-.33-.83-.51-1.26l-2.38-1.09c.11,1.12.2,2.1.29,3.08l2,.29Z"/><path class="cls-1" d="M34,17.61l1.61,1.26c.1.69.2,1.36.29,2l3.06.29-1.1-2.37-1.26-.52c.06-.42.13-.88.2-1.36-.63-.85-1.17-1.64-1.52-2.13L34,17.6Z"/><path class="cls-1" d="M18.28,13.4l-1.36-.2-2.13,1.51L17.59,16l1.26-1.61,2-.29.3-3.07-2.38,1.08-.51,1.26Z"/><path class="cls-1" d="M37.82,31.17l1.09-2.37-3.07.29-.29,2-1.61,1.26c.41.9.82,1.79,1.27,2.81l1.51-2.13c-.07-.48-.14-.94-.2-1.36l1.26-.51Z"/><path class="cls-1" d="M31.67,36.58l1.36.19,2.13-1.51c-1-.47-1.9-.88-2.81-1.26l-1.26,1.6-2,.29c-.09,1-.18,2-.29,3.07l2.38-1.12C31.34,37.39,31.51,37,31.67,36.58Z"/><path class="cls-1" d="M16,32.37,14.38,31.1l-.29-2L11,28.79l1.09,2.38,1.26.51c-.06.42-.13.88-.2,1.36l1.52,2.13c.46-1,.87-1.9,1.26-2.81Z"/><path class="cls-1" d="M25,37.21l-1.89-.76L21.29,39l2.61.24L25,38.37l1.09.85,2.6-.24c-.63-.92-1.22-1.71-1.79-2.53L25,37.21Z"/><path class="cls-1" d="M11,21.31c-.05.63-.15,1.56-.24,2.6L11.6,25c-.27.33-.56.7-.85,1.08.09,1,.19,2,.24,2.61l2.52-1.79c-.24-.63-.49-1.27-.75-1.9.26-.66.51-1.26.75-1.89L11,21.32Z"/><path class="cls-1" d="M25,12.75l1.9.77c.56-.81,1.14-1.61,1.78-2.53l-2.6-.24L25,11.6l-1.07-.85L21.29,11l1.79,2.52L25,12.76Z"/><path class="cls-1" d="M18.86,35.59,17.6,34l-2.8,1.26,2.13,1.51,1.35-.18c.16.39.33.83.51,1.26l2.38,1.09-.3-3.07-2-.29Z"/><path class="cls-1" d="M42.86,29.79l2.17,3c0,.42.09,2,.18,3.86l-3.4,1.78-3.72-.36c.2,2.12.34,3.56.36,3.72-.2.37-.91,1.74-1.78,3.43l-3.85-.18-3-2.19c-.88,1.93-1.49,3.24-1.55,3.4L25,48.37l-3.24-2.08-1.56-3.4-3,2.16-3.85.18c-.88-1.69-1.58-3.06-1.78-3.43,0-.16.16-1.6.36-3.72l-3.71.39L4.72,36.69c.09-1.89.16-3.44.18-3.86l2.17-3-3.4-1.55L1.58,25l2.09-3.25,3.4-1.56-2.17-3c0-.42-.09-2-.18-3.86l3.43-1.77,3.71.35c-.2-2.11-.33-3.55-.35-3.72.2-.37.9-1.74,1.77-3.43l3.86.19,3,2.16c.88-1.94,1.48-3.25,1.55-3.39L25,1.58l3.25,2.1c.06.14.67,1.45,1.55,3.39l3-2.16,3.86-.19c.87,1.69,1.57,3.06,1.77,3.43,0,.17-.16,1.61-.36,3.72l3.72-.35,3.43,1.77c-.09,1.89-.17,3.44-.18,3.86l-2.19,3,3.4,1.55L48.35,25l-2.09,3.25ZM49.93,25l-2.76-4.3-2.29-1,1.46-2c0-1.18.14-3.06.24-5.11l-4.52-2.34-2.52.24c.12-1.26.21-2.18.24-2.52L37.47,3.35l-5.11.24-2,1.46L29.27,2.76,25,0,20.68,2.76l-1,2.29L17.59,3.59l-5.1-.24L10.15,7.9c0,.31.12,1.26.24,2.52l-2.52-.24L3.33,12.52c.09,2.05.18,3.92.24,5.11l1.47,2-2.28,1L0,25l2.76,4.3L5,30.34l-1.45,2c-.06,1.18-.15,3.06-.24,5.11l4.54,2.34,2.52-.24c-.12,1.26-.21,2.19-.24,2.52l2.34,4.54,5.1-.24,2-1.46,1.05,2.29L25,50l4.3-2.76L30.34,45l2,1.46,5.11.24,2.34-4.54c0-.32-.12-1.26-.24-2.52l2.52.24,4.54-2.34c-.1-2.05-.19-3.93-.24-5.11l-1.46-2,2.29-1.05L50,25Z"/><path class="cls-1" d="M12.11,18.81,11,21.18l3.07-.29c.1-.66.19-1.32.29-2L16,17.61l-1.26-2.8-1.52,2.13c.07.49.14.95.2,1.36l-1.26.51Z"/><path class="cls-1" d="M41.74,34v.71l-.63.33-1.55-.15.69-1v-.09h.07l.49-1.08L41.72,34ZM39.3,32.72l-.58.23c0,.21.06.41.08.63L37,36.11l4.41.42,1.8-.93c0-.67-.06-1.35-.09-2L40.59,30c-.4.86-.83,1.82-1.26,2.79Z"/><path class="cls-1" d="M25.57,44l-.63.38-.6-.38c-.2-.46-.42-.92-.63-1.41l1.19.11.06-.05.06.05,1.18-.11Zm-.63-3.15-.48.38-3-.25,1.83,4L25,46.1,26.68,45c.63-1.4,1.26-2.8,1.83-4l-3.05.29L25,40.9Z"/><path class="cls-1" d="M34.67,41.79H34l-1.26-.9,1.08-.53v-.07h.08l1-.68c.05.53.1,1,.15,1.55l-.33.63Zm-1.15-3-.63-.09c-.07.19-.15.39-.23.58l-2.79,1.26,3.6,2.56,2,.09.92-1.8c-.14-1.53-.29-3-.41-4.42L33.48,38.8Z"/><path class="cls-1" d="M41.14,15l.63.33V16l-.9,1.26c-.17-.38-.33-.73-.5-1.08h-.06v-.09l-.72-.95L41.14,15ZM38.72,17l.58.23,1.26,2.79,2.56-3.6c0-.68.06-1.36.09-2l-1.8-.92L37,13.91l1.77,2.53a4.94,4.94,0,0,1-.08.63Z"/><path class="cls-1" d="M24.38,6,25,5.59l.64.38.63,1.42-1.19-.12L25,7.32l-.06-.05-1.18.12ZM25,9.13l.5-.39,3.05.3L26.68,5,25,3.91,23.27,5C22.64,6.4,22,7.8,21.44,9l3-.29.48.38Z"/><path class="cls-1" d="M44,25.59l-1.42.63c0-.41.08-.8.12-1.18l0-.06,0-.06c0-.39-.08-.78-.12-1.19l1.42.63c.12.2.25.39.38.63Zm-3.05-4.15c.09.95.18,2,.29,3.06l-.38.49.38.48c-.11,1.07-.2,2.11-.29,3.06l4-1.84,1.1-1.7L45,23.27Z"/><path class="cls-1" d="M15.28,8.2H16l1.26.9-1.08.5v.07h-.08l-1,.7c-.05-.54-.1-1-.15-1.55.1-.21.22-.42.33-.63Zm1.15,3,.63.08.22-.57,2.8-1.26-3.6-2.56-2-.1-.92,1.8c.14,1.53.29,3.06.41,4.42l2.52-1.77Z"/><path class="cls-1" d="M31.9,24.42l-1.13-1L31.26,22l1.22-1a8.56,8.56,0,0,0,1,3.58Zm.58,4.5-1.22-1-.49-1.41,1.13-1,1.55-.22A8.83,8.83,0,0,0,32.48,28.92Zm-3,3.24-.58-1.44c.1-.48.19-1,.29-1.48L30.69,29l1.45.58A8.33,8.33,0,0,0,29.51,32.16Zm-4.18,1.31c.07-.53.15-1,.22-1.54l1-1.13,1.41.49,1,1.23A8.54,8.54,0,0,0,25.33,33.47Zm-1.46-4.31-1.61.55c-.11-.57-.22-1.12-.32-1.66l-1.67-.33c.19-.54.37-1.08.56-1.6L19.57,25c.43-.39.87-.76,1.26-1.12-.19-.52-.37-1.06-.56-1.61L21.94,22c.1-.55.21-1.11.32-1.67l1.61.55L25,19.59l1.12,1.26,1.6-.55c.12.56.22,1.12.32,1.67l1.67.31-.55,1.61L30.39,25l-1.26,1.11c.18.52.36,1.06.55,1.6L28,28.05c-.1.54-.2,1.09-.32,1.66l-1.6-.55L25,30.42C24.6,30,24.22,29.55,23.87,29.16Zm-2.82,3.36c.33-.43.63-.83,1-1.23l1.41-.49,1,1.13c.07.51.14,1,.22,1.54A8.54,8.54,0,0,0,21.05,32.52Zm-.63-.36a8.51,8.51,0,0,0-2.62-2.62L19.24,29l1.47.28L21,30.72l-.56,1.44Zm-3.94-6.81,1.55.22,1.13,1c-.17.49-.33,1-.5,1.41l-1.22,1A8.41,8.41,0,0,0,16.48,25.35Zm1-4.28,1.22,1c.17.46.33.92.5,1.41l-1.13,1-1.55.22A8.81,8.81,0,0,0,17.44,21.07Zm3-3.23L21,19.29l-.29,1.47-1.47.29-1.44-.58A8.43,8.43,0,0,0,20.42,17.84Zm4.18-1.31c-.07.54-.15,1-.22,1.54l-1,1.13L22,18.71l-1-1.22A8.55,8.55,0,0,0,24.6,16.53Zm4.28,1c-.33.43-.63.83-1,1.22l-1.41.49-1-1.13c-.07-.5-.14-1-.22-1.54A8.81,8.81,0,0,0,28.88,17.49Zm.63.35a8.46,8.46,0,0,0,2.63,2.63l-1.45.58-1.47-.29c-.1-.51-.19-1-.29-1.47ZM30,16.23c-3.16-.45-2.06-.15-5.05-1.36-3,1.21-1.93.91-5,1.36-2,2.52-1.21,1.75-3.7,3.71-.46,3.19-.18,2.13-1.36,5a12.25,12.25,0,0,1,1.36,5c2.52,2,1.75,1.21,3.7,3.7,3.2.47,2.13.19,5,1.37,3-1.21,1.93-.91,5.05-1.37,2-2.52,1.21-1.74,3.7-3.7.46-3.19.19-2.12,1.36-5a12.41,12.41,0,0,1-1.36-5A12.46,12.46,0,0,1,30,16.23Z"/><path class="cls-1" d="M34,8.2h.71c.11.21.21.42.33.63,0,.5-.1,1-.15,1.55l-1-.69H33.8V9.62l-1.08-.5L34,8.22Zm-1.05,3,.63-.08,2.52,1.77c.13-1.34.27-2.86.42-4.41l-.93-1.81-2,.1L29.93,9.35l2.79,1.26.23.57Z"/><path class="cls-1" d="M16,41.76h-.71L15,41.13c.05-.5.1-1,.15-1.55l1,.69h.08v.07l1.08.5-1.26.9Zm1-3-.63.09-2.52-1.78c-.13,1.34-.27,2.87-.42,4.41l.93,1.8,2-.09L20,40.61l-2.79-1.26Z"/><path class="cls-1" d="M8.19,16v-.71L8.83,15l1.55.15-.7,1v.08H9.61l-.5,1.08c-.3-.44-.63-.86-.9-1.26Zm2.45,1.26.57-.23a4.94,4.94,0,0,0-.08-.63c.63-.87,1.23-1.72,1.77-2.52l-4.41-.42-1.8.93.09,2L9.34,20c.39-.87.83-1.82,1.26-2.8Z"/><path class="cls-1" d="M8.83,35l-.64-.33V34c.3-.41.6-.82.91-1.26l.49,1.09h.07a.11.11,0,0,1,0,.08l.7,1Zm2.42-2.09-.58-.24c-.45-1-.88-1.92-1.26-2.78L6.85,33.5l-.09,2,1.8.94L13,36c-.55-.77-1.15-1.62-1.77-2.52,0-.21.06-.41.08-.63Z"/><path class="cls-1" d="M25.61,27.34a3.87,3.87,0,0,1-1.27,0,4,4,0,0,1-1.09-.63,4,4,0,0,1-.63-1.09,3.81,3.81,0,0,1,0-1.26,3.7,3.7,0,0,1,.63-1.09,3.76,3.76,0,0,1,1.09-.64,3.87,3.87,0,0,1,1.27,0,4,4,0,0,1,1.09.64,3.7,3.7,0,0,1,.63,1.09,3.81,3.81,0,0,1,0,1.26,3.7,3.7,0,0,1-.63,1.09A4,4,0,0,1,25.61,27.34Zm1.5-.22L29,27.3l-1.09-1.54L29.63,25l-1.72-.78L29,22.67l-1.89.18c.05-.63.12-1.26.18-1.89l-1.53,1.11L25,20.36l-.78,1.71L22.66,21c.06.63.11,1.26.18,1.89L21,22.69l1.11,1.52L20.35,25l1.71.79L21,27.31l1.89-.18L22.68,29l1.54-1.09c.25.55.52,1.13.78,1.72l.79-1.72L27.3,29c-.06-.63-.13-1.26-.18-1.89Z"/><path class="cls-1" d="M7.32,25l-.05.06c0,.39.07.78.11,1.19L6,25.61,5.58,25c.13-.21.26-.41.39-.63l1.41-.64c0,.41-.07.81-.11,1.19Zm1.4.49L9.11,25l-.39-.49c.11-1.06.21-2.1.29-3.05L5,23.28,3.91,25,5,26.7l4,1.83C8.93,27.59,8.83,26.55,8.72,25.48Z"/><path class="cls-1" d="M25,24.34a.64.64,0,1,0,.64.63A.64.64,0,0,0,25,24.34Z"/></g></g><g id="Слой_4" data-name="Слой 4"><text class="cls-2" transform="translate(58.33 22.88)">Vi<tspan class="cls-3" x="22.62" y="0">c</tspan><tspan x="36.68" y="0">toria Catering</tspan></text><text class="cls-4" transform="translate(96.72 40.63)">PEDAN GROUP</text></g></g></svg>