<svg xmlns="http://www.w3.org/2000/svg" viewBox="0 0 211.86 50"><defs><style>.cls-1{opacity:0.3;}.cls-2,.cls-3,.cls-5{fill:#fff;}.cls-3{font-size:20px;font-family:TrajanPro-Regular, Trajan Pro;}.cls-4{letter-spacing:0em;}.cls-5{font-size:12px;font-family:HelveticaKVAFont, Helvetica KVA Font;letter-spacing:0.36em;}</style></defs><title>Ресурс 2</title><g id="Слой_2" data-name="Слой 2"><g id="Слой_3" data-name="Слой 3"><g class="cls-1"><g id="Слой_1-2" data-name="Слой 1-2"><path class="cls-2" d="M120.15,21.31l-2.52,1.79.76,1.89c-.26.63-.51,1.26-.76,1.89l2.52,1.79.25-2.6L119.55,25l.85-1.09c-.1-1-.19-2-.25-2.6Z"/><path class="cls-2" d="M112.28,14.39,113.54,16l2.8-1.26-2.12-1.51-1.36.19-.51-1.26L110,11.07c.11,1.12.2,2.1.29,3.08l2,.29Z"/><path class="cls-2" d="M115.15,17.61l1.61,1.26c.1.69.2,1.36.29,2l3.06.29L119,18.81l-1.26-.52c.06-.42.13-.88.2-1.36-.63-.85-1.17-1.64-1.52-2.13l-1.26,2.8Z"/><path class="cls-2" d="M99.47,13.4l-1.36-.2L96,14.71,98.78,16,100,14.37l2-.29.3-3.07L100,12.09l-.51,1.26Z"/><path class="cls-2" d="M119,31.17l1.09-2.37-3.07.29-.29,2-1.61,1.26c.41.9.82,1.79,1.27,2.81l1.51-2.13c-.07-.48-.14-.94-.2-1.36l1.26-.51Z"/><path class="cls-2" d="M112.86,36.58l1.36.19,2.12-1.51c-1-.47-1.89-.88-2.8-1.26l-1.26,1.6-2,.29c-.09,1-.18,2-.29,3.07l2.38-1.12C112.52,37.39,112.7,37,112.86,36.58Z"/><path class="cls-2" d="M97.18,32.37,95.57,31.1l-.29-2-3.07-.29,1.09,2.38,1.26.51c-.06.42-.13.88-.2,1.36l1.52,2.13c.46-1,.87-1.9,1.26-2.81Z"/><path class="cls-2" d="M106.16,37.21l-1.89-.76L102.48,39l2.61.24,1.07-.85,1.09.85,2.6-.24c-.63-.92-1.22-1.71-1.79-2.53l-1.89.76Z"/><path class="cls-2" d="M92.18,21.31c-.05.63-.15,1.56-.24,2.6L92.79,25c-.27.33-.56.7-.85,1.08.09,1,.19,2,.24,2.61l2.52-1.79c-.24-.63-.49-1.27-.75-1.9.26-.66.51-1.26.75-1.89l-2.52-1.78Z"/><path class="cls-2" d="M106.16,12.75l1.9.77c.56-.81,1.14-1.61,1.78-2.53l-2.6-.24-1.08.85-1.07-.85-2.61.25,1.79,2.52,1.89-.76Z"/><path class="cls-2" d="M100.05,35.59,98.79,34,96,35.25l2.12,1.51,1.36-.18c.16.39.33.83.51,1.26l2.38,1.09-.3-3.07-2-.29Z"/><path class="cls-2" d="M124.05,29.79l2.17,3c0,.42.09,2,.18,3.86L123,38.47l-3.71-.36c.2,2.12.34,3.56.36,3.72-.2.37-.91,1.74-1.78,3.43L114,45.08l-3-2.19c-.88,1.93-1.49,3.24-1.55,3.4l-3.26,2.08-3.24-2.08-1.56-3.4-3,2.16-3.86.18c-.87-1.69-1.57-3.06-1.77-3.43,0-.16.15-1.6.36-3.72l-3.71.39L85.9,36.69c.1-1.89.17-3.44.19-3.86l2.17-3-3.4-1.55L82.77,25l2.09-3.25,3.4-1.56-2.17-3c0-.42-.09-2-.19-3.86l3.44-1.77,3.71.35c-.2-2.11-.33-3.55-.35-3.72.2-.37.89-1.74,1.77-3.43l3.86.19,3,2.16c.88-1.94,1.48-3.25,1.55-3.39l3.25-2.1,3.25,2.1c.06.14.67,1.45,1.55,3.39l3-2.16,3.86-.19c.87,1.69,1.57,3.06,1.77,3.43,0,.17-.16,1.61-.36,3.72l3.72-.35,3.43,1.77c-.09,1.89-.17,3.44-.19,3.86l-2.18,3,3.4,1.55L129.54,25l-2.09,3.25Zm7.07-4.8-2.76-4.3-2.29-1,1.46-2c0-1.18.14-3.06.24-5.11l-4.52-2.34-2.52.24c.12-1.26.21-2.18.24-2.52l-2.31-4.52-5.11.24-2,1.46-1.05-2.29L106.16,0l-4.29,2.76-1,2.29-2-1.46-5.1-.24L91.34,7.9c0,.31.12,1.26.24,2.52l-2.52-.24-4.54,2.34c.09,2.05.18,3.92.24,5.11l1.47,2-2.28,1L81.19,25,84,29.29l2.28,1.05-1.45,2c-.06,1.18-.15,3.06-.24,5.11l4.54,2.34,2.52-.24c-.12,1.26-.21,2.19-.24,2.52l2.34,4.54,5.1-.24,2-1.46,1,2.29L106.18,50l4.3-2.76,1-2.29,2,1.46,5.11.24L121,42.11c0-.32-.12-1.26-.24-2.52l2.52.24,4.54-2.34c-.1-2.05-.19-3.93-.24-5.11l-1.46-2,2.29-1.05,2.76-4.3Z"/><path class="cls-2" d="M93.3,18.81l-1.09,2.37,3.07-.29c.1-.66.19-1.32.29-2l1.61-1.27-1.27-2.8L94.4,16.94c.07.49.14.95.2,1.36l-1.26.51Z"/><path class="cls-2" d="M122.93,34v.71l-.63.33-1.55-.15.69-1v-.09h.07l.49-1.08.91,1.26Zm-2.44-1.26-.58.23c0,.21.06.41.08.63l-1.77,2.53,4.41.42,1.8-.93c0-.67-.06-1.35-.09-2L121.78,30c-.4.86-.83,1.82-1.26,2.79Z"/><path class="cls-2" d="M106.76,44l-.63.38-.6-.38c-.2-.46-.42-.92-.63-1.41l1.19.11.06-.05.06.05,1.18-.11Zm-.63-3.15-.48.38-3-.25,1.83,4,1.71,1.09L107.87,45c.63-1.4,1.26-2.8,1.83-4l-3,.29-.49-.38Z"/><path class="cls-2" d="M115.86,41.79h-.71l-1.26-.9,1.08-.53v-.07h.08l1-.68c0,.53.1,1,.15,1.55-.12.21-.22.41-.33.63Zm-1.15-3-.63-.09c-.07.19-.15.39-.23.58l-2.79,1.26,3.6,2.56,2,.09.92-1.8c-.14-1.53-.29-3-.41-4.42l-2.53,1.79Z"/><path class="cls-2" d="M122.33,15l.63.33V16l-.9,1.26c-.17-.38-.33-.73-.5-1.08h-.07v-.09l-.71-.95,1.55-.16ZM119.91,17l.58.23,1.26,2.79,2.56-3.6c0-.68.06-1.36.09-2l-1.8-.92-4.41.41L120,16.44a3.68,3.68,0,0,1-.09.63Z"/><path class="cls-2" d="M105.57,6l.59-.38.63.38.64,1.42-1.19-.12-.06.05-.06-.05-1.18.12Zm.59,3.16.5-.39,3,.3-1.84-4-1.71-1.1L104.46,5c-.63,1.39-1.26,2.79-1.83,4l3.05-.29.48.38Z"/><path class="cls-2" d="M125.18,25.59l-1.42.63c0-.41.08-.8.12-1.18l0-.06,0-.06c0-.39-.08-.78-.12-1.19l1.42.63c.12.2.25.39.38.63Zm-3.06-4.15c.1.95.19,2,.3,3.06L122,25l.38.48c-.11,1.07-.2,2.11-.3,3.06l4-1.84,1.1-1.7-1.1-1.72Z"/><path class="cls-2" d="M96.47,8.2h.71l1.26.9-1.08.5v.07h-.08l-1,.7c0-.54-.1-1-.15-1.55.1-.21.22-.42.32-.63Zm1.15,3,.63.08.22-.57,2.8-1.26-3.6-2.56-2-.1-.92,1.8c.14,1.53.29,3.06.41,4.42l2.52-1.77Z"/><path class="cls-2" d="M113.09,24.42l-1.13-1,.49-1.42,1.22-1a8.56,8.56,0,0,0,1,3.58Zm.58,4.5-1.22-1L112,26.55l1.13-1,1.55-.22A8.83,8.83,0,0,0,113.67,28.92Zm-3,3.24-.58-1.44c.1-.48.19-1,.29-1.48l1.47-.28,1.45.58A8.33,8.33,0,0,0,110.7,32.16Zm-4.18,1.31c.07-.53.15-1,.22-1.54l1-1.13,1.41.49,1,1.23A8.54,8.54,0,0,0,106.52,33.47Zm-1.47-4.31-1.6.55c-.11-.57-.22-1.12-.32-1.66l-1.67-.33c.19-.54.37-1.08.56-1.6L100.76,25c.43-.39.87-.76,1.26-1.12-.19-.52-.37-1.06-.56-1.61l1.67-.31c.1-.55.21-1.11.32-1.67l1.6.55,1.11-1.26,1.12,1.26,1.6-.55c.11.56.22,1.12.32,1.67l1.67.31-.55,1.61L111.58,25l-1.26,1.11c.18.52.36,1.06.55,1.6l-1.67.33c-.1.54-.21,1.09-.32,1.66l-1.6-.55-1.12,1.26C105.79,30,105.41,29.55,105.05,29.16Zm-2.81,3.36c.33-.43.63-.83,1-1.23l1.41-.49,1,1.13c.07.51.14,1,.22,1.54A8.54,8.54,0,0,0,102.24,32.52Zm-.63-.36A8.43,8.43,0,0,0,99,29.54l1.45-.58,1.47.28.29,1.48-.56,1.44Zm-3.94-6.81,1.55.22,1.13,1c-.17.49-.33,1-.5,1.41l-1.22,1A8.41,8.41,0,0,0,97.67,25.35Zm1-4.28,1.22,1c.17.46.33.92.5,1.41l-1.13,1-1.55.22A8.81,8.81,0,0,0,98.63,21.07Zm3-3.23.58,1.45-.29,1.47-1.47.29L99,20.47A8.36,8.36,0,0,0,101.61,17.84Zm4.18-1.31c-.07.54-.15,1-.22,1.54l-1,1.13-1.42-.49-1-1.22A8.55,8.55,0,0,0,105.79,16.53Zm4.28,1c-.33.43-.63.83-1,1.22l-1.41.49-1-1.13c-.07-.5-.14-1-.22-1.54A8.81,8.81,0,0,0,110.07,17.49Zm.63.35a8.46,8.46,0,0,0,2.63,2.63l-1.45.58-1.47-.29c-.1-.51-.19-1-.29-1.47Zm.53-1.61c-3.16-.45-2.07-.15-5-1.36-3,1.21-1.93.91-5,1.36-2,2.52-1.21,1.75-3.7,3.71-.46,3.19-.18,2.13-1.36,5a12.25,12.25,0,0,1,1.36,5c2.52,2,1.75,1.21,3.7,3.7,3.2.47,2.12.19,5,1.37,3-1.21,1.93-.91,5-1.37,2-2.52,1.21-1.74,3.7-3.7.46-3.19.19-2.12,1.36-5a12.41,12.41,0,0,1-1.36-5A12.46,12.46,0,0,1,111.23,16.23Z"/><path class="cls-2" d="M115.15,8.2h.71c.11.21.21.42.33.63,0,.5-.1,1-.15,1.55l-1-.69H115V9.62l-1.08-.5,1.26-.9Zm-1.05,3,.63-.08,2.52,1.77c.13-1.34.27-2.86.42-4.41l-.93-1.81-2,.1-3.59,2.56,2.79,1.26.23.57Z"/><path class="cls-2" d="M97.18,41.76h-.71l-.33-.63c0-.5.1-1,.15-1.55l1,.69h.08v.07l1.08.5-1.26.9Zm1-3-.63.09-2.52-1.78c-.13,1.34-.27,2.87-.42,4.41l.93,1.8,2-.09,3.59-2.56L98.4,39.35Z"/><path class="cls-2" d="M89.38,16v-.71L90,15l1.56.15-.7,1v.08H90.8c-.16.35-.33.7-.5,1.08-.3-.44-.63-.86-.9-1.26Zm2.45,1.26L92.4,17a4.94,4.94,0,0,0-.08-.63c.63-.87,1.22-1.72,1.77-2.52l-4.41-.42-1.8.93.09,2L90.53,20c.39-.87.83-1.82,1.26-2.8Z"/><path class="cls-2" d="M90,35l-.63-.33V34c.3-.41.6-.82.91-1.26l.49,1.09h.07a.11.11,0,0,1,0,.08l.7,1Zm2.43-2.09-.58-.24c-.45-1-.88-1.92-1.26-2.78L88,33.5l-.09,2,1.8.94L94.16,36l-1.78-2.52c0-.21.07-.41.09-.63Z"/><path class="cls-2" d="M106.79,27.34a3.81,3.81,0,0,1-1.26,0,4,4,0,0,1-1.09-.63,4,4,0,0,1-.63-1.09,3.81,3.81,0,0,1,0-1.26,3.7,3.7,0,0,1,.63-1.09,3.76,3.76,0,0,1,1.09-.64,3.81,3.81,0,0,1,1.26,0,3.91,3.91,0,0,1,1.1.64,3.7,3.7,0,0,1,.63,1.09,3.81,3.81,0,0,1,0,1.26,3.7,3.7,0,0,1-.63,1.09A3.88,3.88,0,0,1,106.79,27.34Zm1.5-.22,1.9.18-1.09-1.54,1.72-.77-1.72-.78,1.09-1.54-1.9.18c.06-.63.12-1.26.19-1.89L107,22.07l-.79-1.71-.78,1.71L103.84,21c.07.63.12,1.26.19,1.89l-1.89-.18,1.11,1.52-1.71.78,1.71.79-1.09,1.53,1.89-.18L103.87,29l1.54-1.09.78,1.72.79-1.72L108.49,29c-.06-.63-.13-1.26-.18-1.89Z"/><path class="cls-2" d="M88.51,25l-.05.06c0,.39.07.78.11,1.19l-1.41-.63-.39-.6c.13-.21.26-.41.39-.63l1.41-.64c0,.41-.07.81-.11,1.19Zm1.4.49L90.3,25l-.39-.49c.1-1.06.21-2.1.29-3.05l-4,1.83c-.36.58-.73,1.15-1.09,1.71l1.09,1.71,4,1.83C90.12,27.59,90,26.55,89.91,25.48Z"/><path class="cls-2" d="M106.16,24.34a.64.64,0,1,0,.63.63A.63.63,0,0,0,106.16,24.34Z"/></g></g></g><g id="Слой_4" data-name="Слой 4"><text class="cls-3" transform="translate(0.52 22.88)">Vi<tspan class="cls-4" x="22.62" y="0">c</tspan><tspan x="36.68" y="0">toria Catering</tspan></text><text class="cls-5" transform="translate(38.55 40.63)">PEDAN GROUP</text></g></g></svg>