<svg xmlns="http://www.w3.org/2000/svg" viewBox="0 0 79.25 79.25"><defs><style>.cls-1{fill:#170f29;}</style></defs><title>Ресурс 2</title><g id="Слой_2" data-name="Слой 2"><g id="Слой_1-2" data-name="Слой 1"><path class="cls-1" d="M61.81,33.79l-4,2.83,1.21,3c-.42,1-.81,2-1.21,3,1.28.9,2.54,1.81,4,2.84.09-1,.23-2.48.39-4.13l-1.35-1.71,1.35-1.72c-.16-1.65-.3-3.16-.39-4.12Z"/><path class="cls-1" d="M49.32,22.82c.7.88,1.35,1.71,2,2.55l4.45-2-3.37-2.4-2.16.31c-.25-.62-.53-1.31-.81-2l-3.77-1.72c.17,1.77.31,3.32.46,4.87l3.2.46Z"/><path class="cls-1" d="M53.88,27.92l2.55,2c.16,1.1.31,2.15.46,3.2l4.86.46L60,29.82,58,29c.09-.66.2-1.39.31-2.16-1-1.35-1.85-2.59-2.4-3.38l-2,4.45Z"/><path class="cls-1" d="M29,21.24l-2.16-.31-3.37,2.4,4.44,2,2-2.55,3.2-.46.47-4.87-3.77,1.72-.81,2Z"/><path class="cls-1" d="M60,49.43l1.72-3.77-4.86.46-.46,3.21-2.55,2c.65,1.43,1.3,2.84,2,4.45l2.4-3.37c-.11-.76-.22-1.5-.31-2.16l2-.81Z"/><path class="cls-1" d="M50.24,58l2.16.31,3.37-2.4c-1.61-.74-3-1.39-4.45-2-.65.83-1.3,1.66-2,2.53l-3.2.47c-.15,1.56-.29,3.1-.46,4.87L49.43,60c.28-.71.56-1.4.81-2Z"/><path class="cls-1" d="M25.36,51.32l-2.54-2-.46-3.21-4.87-.46,1.72,3.77,2,.81c-.09.66-.2,1.4-.31,2.16l2.4,3.37c.74-1.61,1.38-3,2-4.45Z"/><path class="cls-1" d="M39.62,59l-3-1.2-2.84,4,4.13.39,1.71-1.35,1.72,1.35,4.12-.39c-1-1.45-1.93-2.71-2.83-4l-3,1.2Z"/><path class="cls-1" d="M17.44,33.79c-.09,1-.24,2.47-.39,4.12.47.61.93,1.19,1.35,1.72-.42.52-.88,1.1-1.35,1.71.15,1.65.3,3.17.39,4.13l4-2.84c-.39-1-.78-2-1.2-3,.42-1.05.81-2,1.2-3l-4-2.83Z"/><path class="cls-1" d="M39.62,20.22l3,1.21c.9-1.28,1.81-2.55,2.83-4l-4.12-.39L39.62,18.4l-1.71-1.35-4.13.39,2.84,4,3-1.21Z"/><path class="cls-1" d="M29.92,56.42l-2-2.53-4.44,2,3.37,2.4L29,58c.25.62.52,1.31.81,2l3.77,1.73-.47-4.87-3.2-.47Z"/><path class="cls-1" d="M68,47.24l3.43,4.82c0,.66.15,3.1.29,6.12L66.32,61l-5.9-.57c.32,3.36.54,5.64.57,5.9-.31.59-1.43,2.76-2.81,5.44l-6.12-.29L47.24,68c-1.4,3.07-2.36,5.15-2.46,5.39l-5.16,3.31-5.15-3.31L32,68l-4.82,3.43-6.12.29c-1.39-2.68-2.5-4.85-2.81-5.44,0-.26.24-2.54.56-5.9L12.93,61,7.48,58.18c.15-3,.26-5.46.3-6.12l3.43-4.82L5.82,44.78c-.36-.56-1.67-2.61-3.31-5.15l3.31-5.16L11.21,32,7.78,27.19c0-.67-.15-3.1-.3-6.12l5.45-2.81,5.89.56c-.32-3.35-.53-5.63-.56-5.89.31-.59,1.42-2.76,2.81-5.45l6.12.3L32,11.21c1.4-3.07,2.35-5.15,2.46-5.38l5.15-3.32,5.16,3.32c.1.23,1.06,2.31,2.46,5.38l4.82-3.43,6.12-.3c1.38,2.69,2.5,4.86,2.81,5.45,0,.26-.25,2.54-.57,5.89l5.9-.56,5.44,2.81c-.14,3-.26,5.45-.29,6.12L68,32l5.38,2.46,3.32,5.16-3.32,5.15L68,47.24Zm11.21-7.61-4.38-6.82-3.63-1.66,2.31-3.24c.09-1.88.23-4.85.39-8.1L66.73,16.1l-4,.38c.19-2,.33-3.47.38-4L59.44,5.31l-8.1.38L48.1,8,46.44,4.38,39.62,0,32.81,4.38,31.15,8,27.91,5.69l-8.1-.38L16.1,12.52c0,.49.19,2,.38,4l-4-.38-7.2,3.71c.15,3.25.29,6.22.38,8.1L8,31.15,4.38,32.81,0,39.63l4.38,6.81L8,48.1c-1.15,1.63-2,2.83-2.31,3.24-.09,1.88-.23,4.85-.38,8.1l7.2,3.71,4-.38c-.19,2-.33,3.47-.38,4l3.71,7.2,8.1-.39,3.24-2.3,1.66,3.62,6.81,4.38,6.82-4.38,1.66-3.62,3.24,2.3,8.1.39,3.71-7.2c0-.5-.19-2-.38-4l4,.38,7.21-3.71c-.16-3.25-.3-6.22-.39-8.1-.28-.41-1.15-1.61-2.31-3.24l3.63-1.66,4.38-6.81Z"/><path class="cls-1" d="M19.21,29.82l-1.72,3.77,4.87-.46c.15-1.05.3-2.1.46-3.2l2.54-2-2-4.45-2.4,3.38c.11.77.22,1.5.31,2.16l-2,.81Z"/><path class="cls-1" d="M66.22,53.88c0,.37,0,.75,0,1.13l-1,.52-2.46-.24,1.09-1.53s0-.08,0-.13l.11,0c.26-.56.51-1.13.78-1.72l1.44,2Zm-3.88-2-.92.37c0,.33.1.65.14,1l-2.82,4,7,.67,2.86-1.48c0-1.06-.1-2.14-.15-3.22l-4.06-5.7c-.63,1.37-1.31,2.88-2,4.42Z"/><path class="cls-1" d="M40.57,69.78l-1,.61-.95-.61c-.33-.73-.67-1.46-1-2.24l1.88.18.09-.08a.39.39,0,0,1,.1.08l1.88-.18-1,2.24Zm-1-5-.77.61L34,65l2.9,6.36,2.71,1.74,2.71-1.74c1-2.21,2-4.43,2.91-6.36l-4.84.46-.78-.61Z"/><path class="cls-1" d="M55,66.27l-1.13,0-2-1.43L53.59,64s0-.07,0-.11h.12l1.54-1.09c.08.86.16,1.66.24,2.46-.18.33-.35.66-.52,1Zm-1.82-4.7-1-.15c-.12.31-.24.62-.37.92l-4.42,2,5.7,4.06,3.22.15,1.47-2.86c-.23-2.42-.46-4.84-.66-7l-4,2.83Z"/><path class="cls-1" d="M65.27,23.72l1,.52c0,.38,0,.75,0,1.13l-1.44,2c-.27-.6-.52-1.16-.78-1.72l-.11,0s0-.08,0-.13L62.81,24l2.46-.24ZM61.42,27l.92.36c.71,1.55,1.39,3.06,2,4.43l4.06-5.7c0-1.08.1-2.16.15-3.22l-2.86-1.47-7,.66,2.82,4c0,.33-.09.66-.14,1Z"/><path class="cls-1" d="M38.67,9.47l.95-.61,1,.61,1,2.24-1.88-.18-.1.08-.09-.08-1.88.18c.35-.78.69-1.51,1-2.24Zm.95,5,.78-.61,4.84.47L42.33,7.94,39.62,6.2,36.91,7.94c-1,2.21-2,4.42-2.9,6.37l4.84-.47.77.61Z"/><path class="cls-1" d="M69.78,40.58l-2.24,1c.06-.65.12-1.27.18-1.88l-.08-.09.08-.1c-.06-.61-.12-1.23-.18-1.88l2.24,1c.2.31.41.62.61,1l-.61.95ZM64.94,34c.15,1.5.3,3.15.47,4.84l-.61.78.61.77c-.17,1.69-.32,3.34-.47,4.84l6.37-2.91,1.74-2.7c-.57-.89-1.16-1.8-1.74-2.72L64.94,34Z"/><path class="cls-1" d="M24.24,13l1.13,0,2,1.43-1.72.79,0,.11-.13,0L24,16.44c-.08-.85-.16-1.66-.24-2.46.17-.33.35-.66.52-1Zm1.82,4.7,1,.14.36-.91,4.43-2-5.7-4.06-3.22-.15-1.47,2.86c.23,2.42.46,4.84.66,7l4-2.82Z"/><path class="cls-1" d="M50.61,38.72l-1.79-1.56.77-2.24,1.94-1.53c.52,3.6.2,2.38,1.53,5.68l-2.45-.35Zm.92,7.14-1.94-1.53-.77-2.24,1.79-1.56,2.45-.35c-1.36,3.37-1,2.16-1.53,5.68ZM46.82,51l-.92-2.29c.15-.76.3-1.53.45-2.34l2.34-.45,2.29.92c-2.86,2.25-2,1.37-4.16,4.16Zm-6.64,2.08c.12-.85.24-1.65.35-2.45l1.56-1.79,2.24.77,1.53,1.95c-3.6.51-2.38.19-5.68,1.52Zm-2.32-6.85-2.55.88q-.26-1.35-.51-2.64l-2.64-.51c.3-.87.59-1.72.88-2.55l-2-1.76c.69-.61,1.38-1.2,2-1.77l-.88-2.54,2.64-.51c.17-.87.34-1.75.51-2.65l2.55.88,1.76-2,1.77,2,2.54-.88c.18.9.35,1.78.51,2.65l2.65.51-.88,2.54,2,1.77-2,1.76c.29.83.58,1.68.88,2.55l-2.65.51q-.24,1.29-.51,2.64l-2.54-.88-1.77,2-1.76-2Zm-4.47,5.33c.53-.68,1-1.31,1.52-1.95l2.25-.77,1.56,1.79c.11.8.23,1.6.35,2.45-3.3-1.33-2.08-1-5.68-1.52Zm-1-.56c-2.25-2.86-1.37-2-4.16-4.16l2.29-.92,2.33.45.46,2.34L32.43,51Zm-6.24-10.8,2.45.35,1.79,1.56c-.27.78-.52,1.51-.78,2.24l-1.94,1.53c-.51-3.6-.2-2.38-1.52-5.68Zm1.52-6.79,1.94,1.53c.26.73.51,1.46.78,2.24l-1.79,1.56-2.45.35c1.35-3.37,1-2.17,1.52-5.68Zm4.72-5.12.92,2.29-.46,2.34-2.33.45-2.29-.92c2.86-2.25,2-1.37,4.16-4.16Zm6.64-2.08c-.12.85-.24,1.65-.35,2.44l-1.56,1.8-2.25-.78-1.52-1.93c3.6-.52,2.38-.21,5.68-1.53Zm6.79,1.53c-.53.67-1,1.31-1.53,1.93l-2.24.78-1.56-1.8c-.11-.79-.23-1.59-.35-2.44,3.37,1.35,2.16,1,5.68,1.53Zm1,.55c2.25,2.86,1.37,2,4.16,4.16l-2.29.92-2.34-.45c-.15-.81-.3-1.58-.45-2.34l.92-2.29Zm.83-2.55c-5-.72-3.27-.25-8-2.16-4.74,1.91-3.06,1.44-8,2.16-3.16,4-1.92,2.77-5.87,5.88-.73,5.06-.29,3.37-2.16,8,1.87,4.66,1.43,3,2.16,8,4,3.16,2.77,1.92,5.87,5.87,5.08.73,3.37.29,8,2.16,4.76-1.91,3.06-1.44,8-2.16,3.17-4,1.92-2.76,5.88-5.87.73-5.07.29-3.37,2.15-8-1.9-4.76-1.43-3.06-2.15-8-4-3.18-2.76-1.93-5.88-5.88Z"/><path class="cls-1" d="M53.88,13,55,13c.17.34.34.67.52,1-.08.8-.16,1.61-.24,2.46l-1.54-1.1-.12,0,0-.11-1.72-.79,2-1.43Zm-1.67,4.79,1-.14,4,2.82c.2-2.12.43-4.54.66-7l-1.47-2.86-3.22.15-5.7,4.06,4.42,2,.37.91Z"/><path class="cls-1" d="M25.37,66.22l-1.13,0c-.17-.34-.35-.67-.52-1,.08-.8.16-1.6.24-2.46l1.53,1.09h.13s0,.07,0,.11l1.72.79-2,1.43ZM27,61.42l-1,.15-4-2.83c-.2,2.13-.43,4.55-.66,7l1.47,2.86,3.22-.15,5.7-4.06-4.43-2L27,61.42Z"/><path class="cls-1" d="M13,25.37c0-.38,0-.75,0-1.13l1-.52,2.46.24-1.1,1.53a.69.69,0,0,1,0,.13l-.11,0c-.26.56-.52,1.12-.79,1.72-.49-.7-1-1.36-1.43-2Zm3.88,2,.91-.36c0-.32-.09-.65-.14-1,1-1.38,1.95-2.73,2.82-4l-7-.66-2.86,1.47c.05,1.06.1,2.14.15,3.22l4.06,5.7c.62-1.37,1.31-2.88,2-4.43Z"/><path class="cls-1" d="M14,55.53,13,55c0-.38,0-.76,0-1.13.47-.66.94-1.31,1.43-2l.79,1.72.11,0a.51.51,0,0,1,0,.13c.36.49.72,1,1.1,1.53L14,55.53Zm3.84-3.32-.91-.37c-.71-1.54-1.4-3.05-2-4.42l-4.06,5.7c-.05,1.08-.1,2.16-.15,3.22l2.86,1.48,7-.67c-.87-1.23-1.83-2.58-2.82-4,.05-.33.1-.65.14-1Z"/><path class="cls-1" d="M40.62,43.35a6,6,0,0,1-2,0,5.78,5.78,0,0,1-1.73-1,5.78,5.78,0,0,1-1-1.73,5.78,5.78,0,0,1,0-2,5.69,5.69,0,0,1,1-1.73,5.69,5.69,0,0,1,1.73-1,5.78,5.78,0,0,1,2,0,5.93,5.93,0,0,1,1.73,1,5.91,5.91,0,0,1,1,1.73,5.78,5.78,0,0,1,0,2,5.58,5.58,0,0,1-1,1.73,5.78,5.78,0,0,1-1.73,1ZM43,43l3,.29-1.73-2.44L47,39.63l-2.72-1.25L46,35.94l-3,.29c.09-1,.19-2,.29-3L40.87,35l-1.25-2.72L38.38,35l-2.44-1.73c.1,1,.19,2,.29,3l-3-.29L35,38.38l-2.72,1.25L35,40.87l-1.73,2.44,3-.29c-.1,1-.19,2-.29,3l2.44-1.73c.4.87.82,1.78,1.24,2.72l1.25-2.72L43.31,46c-.1-1-.2-2-.29-3Z"/><path class="cls-1" d="M11.61,39.63l-.08.09c.06.61.12,1.23.18,1.88l-2.24-1-.61-.95c.2-.33.4-.64.61-1l2.24-1c-.06.65-.12,1.27-.18,1.88l.08.1Zm2.23.77.61-.77-.61-.78c.16-1.69.32-3.34.46-4.84l-6.36,2.9c-.58.92-1.17,1.83-1.74,2.72l1.74,2.7,6.36,2.91c-.14-1.5-.3-3.15-.46-4.84Z"/><path class="cls-1" d="M39.62,38.6a1,1,0,1,0,1,1,1,1,0,0,0-1-1Z"/></g></g></svg>