<?xml version="1.0" standalone="no"?>
<!DOCTYPE svg PUBLIC "-//W3C//DTD SVG 20010904//EN"
 "http://www.w3.org/TR/2001/REC-SVG-20010904/DTD/svg10.dtd">
<svg version="1.0" xmlns="http://www.w3.org/2000/svg"
 width="260.000000pt" height="260.000000pt" viewBox="0 0 260.000000 260.000000"
 preserveAspectRatio="xMidYMid meet">
<metadata>
Created by potrace 1.11, written by Peter Selinger 2001-2013
</metadata>
<g transform="translate(0.000000,260.000000) scale(0.100000,-0.100000)"
fill="#000000" stroke="none">
<path d="M81 2582 c-19 -9 -44 -30 -55 -45 -21 -28 -21 -30 -21 -1237 0 -1207
0 -1209 21 -1237 11 -15 36 -36 55 -45 32 -17 111 -18 1219 -18 1108 0 1187 1
1219 18 19 9 44 30 55 45 21 28 21 30 21 1237 0 1207 0 1209 -21 1237 -11 15
-36 36 -55 45 -32 17 -111 18 -1219 18 -1108 0 -1187 -1 -1219 -18z m1308
-337 c74 -47 89 -61 104 -100 l19 -45 41 29 c38 26 53 30 144 35 l103 6 46
-91 c39 -79 45 -99 42 -141 l-3 -49 50 2 c42 2 65 -6 139 -43 l89 -45 -2 -99
c-2 -91 -4 -103 -32 -144 l-29 -45 44 -20 c36 -17 54 -35 100 -108 l57 -88
-56 -89 c-49 -76 -62 -90 -101 -105 l-44 -17 29 -41 c25 -37 29 -54 35 -144
l6 -103 -90 -45 c-71 -35 -100 -45 -140 -45 l-50 0 0 -50 c0 -40 -10 -69 -45
-140 l-45 -90 -103 6 c-90 6 -107 10 -144 35 l-41 29 -17 -44 c-15 -39 -29
-52 -106 -101 l-89 -57 -89 56 c-77 49 -90 62 -105 101 l-18 45 -41 -29 c-37
-25 -54 -29 -144 -35 l-102 -6 -45 87 c-37 72 -46 98 -46 141 l0 52 -52 0
c-43 0 -69 9 -141 46 l-88 46 7 101 c6 89 10 107 35 144 l29 41 -44 17 c-39
15 -52 29 -101 106 l-57 89 57 89 c49 78 62 92 100 107 l44 17 -28 41 c-26 36
-30 53 -36 143 l-6 101 88 46 c72 37 98 46 141 46 l52 0 -2 53 c-1 45 5 63 46
139 l48 88 101 -7 c84 -5 108 -10 137 -30 19 -12 38 -23 42 -23 5 0 15 18 24
40 13 32 32 49 102 94 48 31 89 56 91 56 2 0 42 -25 90 -55z"/>
<path d="M1227 2188 c-49 -33 -63 -50 -87 -104 -16 -35 -32 -64 -35 -64 -3 0
-32 18 -63 40 -50 35 -66 40 -133 46 l-75 6 -36 -68 c-35 -67 -36 -72 -29
-142 4 -40 6 -74 4 -75 -1 -2 -35 0 -75 4 -71 7 -75 6 -141 -29 l-69 -37 7
-75 c5 -66 11 -82 46 -132 21 -31 39 -60 39 -63 0 -3 -29 -19 -65 -35 -57 -26
-70 -37 -105 -92 -22 -34 -38 -68 -36 -75 3 -7 21 -37 40 -67 28 -44 45 -58
100 -84 36 -17 66 -34 66 -37 0 -3 -18 -30 -39 -59 -36 -48 -40 -61 -46 -132
l-6 -79 68 -36 c67 -35 71 -36 137 -28 38 5 72 7 75 4 4 -2 4 -36 0 -76 -8
-70 -7 -73 29 -139 l37 -68 75 5 c67 5 81 9 133 45 32 22 61 37 65 34 4 -4 21
-35 37 -68 26 -52 39 -67 93 -101 l62 -39 64 41 c56 37 67 50 92 106 16 35 33
65 37 65 4 0 34 -18 65 -39 50 -34 66 -40 132 -45 l76 -6 33 69 c32 65 34 74
28 146 l-6 76 27 -5 c78 -15 122 -10 192 24 48 23 69 39 65 48 -3 7 -5 42 -5
76 0 58 -3 66 -45 123 l-44 62 69 32 c63 29 74 38 111 96 l40 65 -41 63 c-37
57 -50 68 -110 96 l-69 31 45 61 c37 52 44 68 44 108 0 25 2 59 5 75 6 28 2
31 -67 66 -70 34 -76 36 -141 29 -37 -3 -70 -5 -72 -3 -2 2 -1 35 2 74 6 65 4
75 -28 140 l-34 70 -79 -7 c-60 -5 -87 -12 -110 -30 -17 -12 -43 -30 -58 -39
l-27 -18 -35 70 c-31 61 -43 75 -94 106 -33 20 -64 36 -68 35 -5 0 -35 -18
-67 -41z m115 -69 c19 -14 42 -50 64 -97 19 -41 34 -76 34 -77 0 -1 -63 -2
-140 -2 -77 0 -140 1 -140 3 0 2 15 36 34 77 31 70 73 116 104 117 8 0 27 -10
44 -21z m-314 -140 c40 -28 72 -52 72 -55 0 -2 -25 -15 -55 -29 -30 -13 -55
-29 -55 -34 0 -6 -7 -11 -16 -11 -9 0 -38 -16 -64 -35 -27 -20 -50 -32 -53
-28 -2 4 -8 44 -11 89 -6 66 -4 88 10 117 16 34 21 37 59 37 33 0 55 -10 113
-51z m716 15 c14 -30 16 -52 10 -120 -4 -51 -11 -84 -18 -84 -6 0 -29 14 -50
30 -22 17 -48 30 -58 30 -10 0 -18 6 -18 13 0 6 -26 24 -58 38 l-57 25 70 52
c60 44 77 51 116 52 42 0 46 -2 63 -36z m-462 -141 c17 -15 19 -15 38 2 40 36
214 -8 238 -61 9 -18 19 -24 42 -24 61 0 170 -111 170 -173 0 -19 7 -31 24
-39 17 -7 33 -31 50 -74 30 -74 34 -139 9 -166 -15 -17 -15 -19 0 -36 18 -20
23 -87 8 -111 -7 -11 -18 -7 -55 18 -25 18 -46 34 -46 37 0 2 7 20 14 39 13
31 13 39 0 70 -7 19 -14 36 -14 39 0 3 21 20 46 38 44 31 45 33 22 39 -12 4
-39 7 -59 8 -35 1 -37 3 -42 42 -4 30 -14 48 -38 68 l-32 27 22 49 c12 26 20
50 18 52 -3 2 -26 -6 -53 -17 l-49 -21 -25 31 c-19 23 -37 33 -68 37 -40 5
-42 7 -43 42 -1 20 -4 47 -8 61 -7 24 -8 23 -39 -23 -18 -26 -35 -47 -38 -47
-2 0 -20 7 -39 14 -31 13 -39 13 -70 0 -19 -7 -36 -14 -39 -14 -3 0 -19 20
-37 45 -18 25 -35 42 -38 39 -3 -3 -8 -29 -11 -57 -5 -52 -5 -52 -42 -55 -29
-2 -44 -12 -66 -38 l-29 -34 -56 24 -55 25 24 -56 25 -56 -36 -32 c-26 -24
-35 -41 -35 -64 0 -35 -3 -37 -75 -46 -55 -8 -56 -4 19 -60 27 -20 27 -21 12
-57 -14 -32 -14 -40 -1 -72 8 -19 15 -37 15 -39 0 -7 -89 -67 -99 -67 -18 0
-13 101 6 122 15 17 15 19 0 36 -40 44 2 215 59 241 18 8 24 19 24 41 0 62
106 169 168 170 25 0 35 5 42 25 21 54 199 98 242 58z m-530 -99 l67 -7 -35
-51 c-19 -28 -34 -56 -34 -63 0 -7 -6 -16 -13 -20 -8 -4 -25 -32 -38 -62 l-25
-55 -52 72 c-44 61 -52 78 -52 117 0 38 4 46 28 59 30 17 57 19 154 10z m1243
-11 c31 -15 35 -21 35 -56 0 -30 -11 -55 -51 -113 -28 -41 -53 -74 -56 -74 -2
0 -15 25 -28 55 -14 30 -29 55 -35 55 -5 0 -10 7 -10 16 0 9 -16 38 -35 64
-19 26 -35 50 -35 53 0 5 47 10 142 15 21 1 53 -6 73 -15z m-620 -64 c28 -10
65 -18 83 -19 25 0 41 -9 67 -37 19 -21 35 -41 35 -44 0 -3 20 -20 45 -39 35
-26 46 -42 50 -69 3 -20 15 -66 27 -103 l21 -68 -21 -67 c-12 -38 -24 -84 -27
-104 -4 -28 -15 -43 -48 -67 -24 -17 -56 -49 -71 -71 -22 -31 -37 -42 -65 -46
-20 -3 -67 -15 -104 -27 -60 -19 -73 -20 -100 -9 -37 15 -86 27 -138 36 -28 4
-43 15 -65 46 -15 22 -47 54 -71 71 -33 24 -44 39 -48 67 -3 20 -15 66 -27
104 l-21 67 21 68 c12 37 24 83 27 103 4 27 15 43 50 69 25 19 45 36 45 39 0
3 15 22 33 42 27 29 42 37 82 42 28 3 70 15 95 26 25 11 52 17 60 14 8 -3 38
-14 65 -24z m-718 -379 c0 -77 -1 -140 -2 -140 -1 0 -36 16 -78 35 -71 33
-117 74 -117 105 0 31 48 75 114 106 39 18 74 33 77 33 3 1 6 -62 6 -139z
m1365 106 c50 -23 83 -45 99 -67 l23 -32 -21 -36 c-15 -27 -40 -46 -94 -73
-41 -20 -78 -37 -82 -37 -5 -1 -7 27 -6 62 1 34 1 67 -1 72 -1 6 -1 15 0 20 1
6 1 36 0 68 -1 31 0 57 3 57 2 0 38 -15 79 -34z m-1159 -273 c4 -2 7 -18 7
-34 0 -22 10 -39 35 -62 l36 -33 -26 -57 -27 -58 -29 41 c-18 25 -29 52 -29
74 0 27 -5 35 -23 40 -14 3 -31 22 -45 51 -12 25 -22 48 -22 51 0 7 110 -5
123 -13z m974 -33 c-15 -35 -29 -52 -48 -59 -21 -7 -26 -14 -22 -34 11 -56
-108 -177 -173 -177 -25 0 -33 -5 -38 -24 -12 -48 -176 -87 -238 -56 -24 11
-30 11 -45 -3 -38 -33 -210 10 -231 59 -8 17 -20 24 -39 24 -28 0 -103 43
-103 59 0 5 23 19 52 31 l52 22 25 -31 c19 -22 38 -32 69 -37 40 -6 42 -8 42
-43 0 -20 3 -46 6 -59 6 -21 9 -19 41 27 l35 50 39 -16 c35 -14 43 -14 78 1
l39 15 34 -52 33 -52 9 61 8 62 40 5 c29 4 48 14 67 37 l26 31 49 -21 c27 -11
51 -19 53 -16 2 2 -6 25 -19 51 l-23 47 32 27 c23 19 34 39 39 68 7 45 7 45
106 51 l26 2 -21 -50z m-1132 -55 c14 -30 29 -55 35 -55 5 0 10 -7 10 -16 0
-9 16 -38 36 -65 41 -56 42 -55 -67 -64 -61 -4 -84 -2 -113 12 -33 15 -36 20
-36 58 0 34 9 55 50 113 28 40 53 72 56 72 3 0 16 -25 29 -55z m1279 -25 c37
-51 46 -72 46 -105 0 -39 -3 -43 -39 -59 -32 -15 -53 -17 -125 -11 -47 4 -86
9 -86 11 0 2 16 26 35 53 19 26 35 56 35 65 0 9 5 16 11 16 5 0 21 25 35 56
14 32 29 53 33 48 5 -5 29 -38 55 -74z m-1069 -240 c56 -36 72 -46 133 -78
l53 -28 -73 -52 c-60 -43 -80 -52 -115 -52 -67 0 -82 42 -67 188 5 41 11 59
18 55 6 -3 29 -18 51 -33z m839 -67 c5 -62 3 -77 -15 -107 -18 -32 -26 -36
-60 -36 -31 0 -53 10 -109 51 -39 28 -70 53 -70 55 0 3 25 16 55 30 30 14 55
30 55 35 0 5 7 9 15 9 8 0 37 15 63 34 55 41 56 40 66 -71z m-375 -57 c33 4
61 5 61 2 0 -25 -76 -161 -99 -177 -35 -25 -41 -26 -80 -3 -22 12 -40 39 -66
94 -19 43 -35 80 -35 84 0 4 27 4 60 1 34 -3 63 -1 66 4 4 6 11 6 18 -1 8 -6
37 -8 75 -4z"/>
<path d="M1270 2044 c-14 -35 -15 -34 30 -34 44 0 47 5 24 38 -20 29 -42 28
-54 -4z"/>
<path d="M907 1963 c-4 -3 -7 -22 -7 -40 l0 -34 29 20 c16 12 34 21 40 21 18
0 13 18 -8 30 -23 12 -45 13 -54 3z"/>
<path d="M1640 1952 l-23 -19 35 -21 c44 -28 48 -27 48 2 0 57 -21 70 -60 38z"/>
<path d="M643 1693 c-18 -7 -16 -24 6 -52 l18 -23 21 35 c11 19 18 38 15 41
-7 7 -43 7 -60 -1z"/>
<path d="M1900 1693 c1 -5 9 -23 19 -42 l18 -34 16 24 c21 29 21 45 1 53 -22
8 -54 8 -54 -1z"/>
<path d="M1248 1624 c-4 -3 -28 -11 -54 -18 l-49 -12 27 -27 c15 -15 36 -27
47 -27 23 0 61 44 61 71 0 18 -20 26 -32 13z"/>
<path d="M1320 1607 c0 -14 8 -35 18 -47 15 -18 24 -21 49 -16 17 4 38 18 46
30 15 22 14 23 -31 34 -26 6 -55 14 -64 17 -14 6 -18 2 -18 -18z"/>
<path d="M1067 1528 l-48 -48 26 -10 c43 -16 82 -2 89 32 3 16 0 40 -7 52 -12
23 -12 23 -60 -26z"/>
<path d="M1469 1553 c-5 -15 -7 -39 -4 -54 8 -34 51 -47 87 -27 l23 13 -48 47
-48 46 -10 -25z"/>
<path d="M1274 1489 c-14 -16 -26 -19 -50 -14 -30 5 -33 3 -39 -24 -5 -23 -13
-31 -37 -36 -28 -7 -29 -9 -23 -41 5 -29 2 -38 -17 -54 l-23 -20 23 -20 c19
-16 22 -25 17 -54 -6 -32 -5 -34 23 -41 24 -5 32 -13 37 -36 6 -27 9 -29 41
-23 28 5 38 2 54 -17 l20 -24 21 27 c16 22 24 26 39 18 32 -17 47 -11 54 20 4
24 12 32 36 36 33 7 35 11 20 48 -8 21 -5 28 18 45 l27 21 -24 18 c-20 16 -23
25 -17 54 6 33 5 36 -24 41 -24 5 -32 13 -37 37 -5 30 -7 31 -44 25 -31 -5
-39 -3 -49 14 -14 26 -22 26 -46 0z m45 -40 l11 -31 27 22 28 22 3 -37 c3 -36
4 -37 38 -33 19 2 34 2 34 0 0 -2 -9 -16 -20 -32 l-20 -28 30 -12 c38 -16 38
-25 -1 -39 l-31 -11 22 -30 21 -30 -35 0 c-35 0 -36 -1 -36 -36 l0 -35 -29 20
-29 21 -12 -30 c-7 -17 -16 -30 -20 -30 -4 0 -13 13 -20 30 l-12 30 -29 -21
-29 -20 0 35 c0 35 -1 36 -36 36 l-35 0 21 30 22 30 -31 11 c-39 14 -39 23 -1
39 l30 12 -21 29 -20 29 36 0 c37 0 37 1 33 35 -2 19 -2 35 0 35 2 0 16 -9 32
-20 l28 -20 12 30 c16 38 25 38 39 -1z"/>
<path d="M1235 1365 c-35 -34 -35 -96 0 -130 34 -35 96 -35 130 0 19 18 25 35
25 65 0 30 -6 47 -25 65 -18 19 -35 25 -65 25 -30 0 -47 -6 -65 -25z m86 -51
c11 -14 10 -18 -6 -30 -16 -12 -21 -12 -34 0 -12 12 -12 18 -1 30 16 20 24 20
41 0z"/>
<path d="M991 1407 c-5 -23 -13 -52 -16 -64 -6 -19 -4 -23 16 -23 13 1 35 9
47 20 19 16 22 26 17 49 -3 16 -17 36 -30 45 -23 15 -24 15 -34 -27z"/>
<path d="M1573 1435 c-11 -8 -26 -28 -31 -45 -10 -27 -8 -31 18 -50 15 -11 38
-20 50 -20 18 0 20 4 14 23 -4 12 -13 41 -19 64 -10 41 -12 42 -32 28z"/>
<path d="M975 1258 c3 -13 11 -42 16 -65 10 -42 11 -42 34 -27 13 9 27 29 30
45 5 23 2 33 -17 49 -12 11 -34 19 -47 20 -20 0 -22 -4 -16 -22z"/>
<path d="M1557 1260 c-23 -18 -25 -24 -16 -48 5 -15 20 -35 32 -44 21 -16 22
-16 32 25 6 23 15 52 19 65 6 19 4 22 -17 22 -13 0 -36 -9 -50 -20z"/>
<path d="M1039 1130 c-14 -8 -9 -17 30 -58 l46 -48 12 26 c16 35 6 77 -20 84
-31 8 -49 7 -68 -4z"/>
<path d="M1488 1133 c-21 -5 -32 -52 -19 -86 l10 -25 48 46 c46 45 47 48 28
59 -20 13 -37 14 -67 6z"/>
<path d="M1172 1033 l-26 -26 64 -18 c36 -10 66 -18 68 -19 10 -1 -2 50 -17
68 -25 29 -56 28 -89 -5z"/>
<path d="M1336 1039 c-13 -19 -23 -70 -13 -69 1 1 30 8 64 18 61 17 62 17 45
39 -9 13 -31 25 -48 29 -26 5 -35 2 -48 -17z"/>
<path d="M558 1333 c-27 -7 -32 -36 -8 -55 33 -26 40 -22 40 22 0 22 -3 39 -7
39 -5 -1 -15 -3 -25 -6z"/>
<path d="M2010 1301 c0 -45 5 -48 38 -25 32 22 26 45 -15 58 -21 7 -23 4 -23
-33z"/>
<path d="M646 958 c-9 -12 -16 -28 -16 -35 0 -15 43 -28 65 -19 12 4 12 11 -6
41 -12 19 -23 35 -24 35 -2 0 -11 -10 -19 -22z"/>
<path d="M1912 949 c-23 -36 -21 -49 8 -49 50 0 61 20 31 59 l-18 23 -21 -33z"/>
<path d="M900 686 c0 -57 18 -68 59 -37 l23 18 -34 21 c-44 28 -48 27 -48 -2z"/>
<path d="M1651 688 l-34 -22 23 -18 c39 -32 60 -19 60 38 0 29 -6 30 -49 2z"/>
<path d="M1260 576 c0 -16 26 -46 40 -46 10 0 40 40 40 52 0 5 -18 8 -40 8
-28 0 -40 -4 -40 -14z"/>
</g>
</svg>
